<?xml version="1.0" standalone="no"?><!DOCTYPE svg PUBLIC "-//W3C//DTD SVG 1.1//EN" "http://www.w3.org/Graphics/SVG/1.1/DTD/svg11.dtd"><svg class="icon" width="200px" height="200.00px" viewBox="0 0 1024 1024" version="1.1" xmlns="http://www.w3.org/2000/svg"><path d="M332.799002 686.081014m-332.799002 0a332.799002 332.799002 0 1 0 665.598003 0 332.799002 332.799002 0 1 0-665.598003 0Z" fill="#F4EFC9" /><path d="M883.19735 1024h-639.99808A141.055577 141.055577 0 0 1 102.399693 883.200422v-742.397772A141.055577 141.055577 0 0 1 243.19927 0.003072h516.350451a89.087733 89.087733 0 0 1 63.231811 25.599923l189.695431 189.695431A38.399885 38.399885 0 0 1 1023.996928 243.202342v639.99808a141.055577 141.055577 0 0 1-140.799578 140.799578zM243.19927 76.802842A63.999808 63.999808 0 0 0 179.199462 140.80265v742.397772A63.999808 63.999808 0 0 0 243.19927 947.20023h639.99808a63.999808 63.999808 0 0 0 63.999808-63.999808V259.074295l-179.199462-179.199463a12.799962 12.799962 0 0 0-8.447975-3.07199z" fill="#434260" /><path d="M409.598771 560.64139h-78.335765l-19.455941 64.511807h-36.351891l75.007775-226.047322h41.215876l75.007775 226.047322h-37.887886z m-8.703974-27.903916l-8.959973-30.463909c-7.679977-25.599923-14.335957-49.663851-21.503935-75.263774-6.399981 25.599923-13.567959 51.199846-20.991937 75.263774l-9.215973 30.463909zM496.382511 399.105875h58.623824c69.375792 0 109.055673 38.399885 109.055673 112.127663s-39.679881 113.919658-107.263678 113.919659h-60.415819z m56.319831 196.863409c48.383855 0 74.495777-28.671914 74.495776-84.735746s-25.599923-83.19975-74.495776-83.19975h-20.479939v167.935496zM748.541754 428.801786h-66.303801v-29.695911h168.447495v29.695911h-66.5598v196.095411h-35.583894z" fill="#434260" /></svg>