<?xml version="1.0" standalone="no"?><!DOCTYPE svg PUBLIC "-//W3C//DTD SVG 1.1//EN" "http://www.w3.org/Graphics/SVG/1.1/DTD/svg11.dtd"><svg class="icon" width="200px" height="200.00px" viewBox="0 0 1024 1024" version="1.1" xmlns="http://www.w3.org/2000/svg"><path d="M332.799002 686.081014m-332.799002 0a332.799002 332.799002 0 1 0 665.598003 0 332.799002 332.799002 0 1 0-665.598003 0Z" fill="#DFDFF2" /><path d="M883.19735 1024h-639.99808A141.055577 141.055577 0 0 1 102.399693 883.200422v-742.397772A141.055577 141.055577 0 0 1 243.19927 0.003072h516.350451a89.087733 89.087733 0 0 1 63.231811 25.599923l189.695431 189.695431A38.399885 38.399885 0 0 1 1023.996928 243.202342v639.99808a141.055577 141.055577 0 0 1-140.799578 140.799578zM243.19927 76.802842A63.999808 63.999808 0 0 0 179.199462 140.80265v742.397772A63.999808 63.999808 0 0 0 243.19927 947.20023h639.99808a63.999808 63.999808 0 0 0 63.999808-63.999808V259.074295l-179.199462-179.199463a12.799962 12.799962 0 0 0-8.447975-3.07199z" fill="#434260" /><path d="M309.247072 548.609426h-58.879823l-14.591956 48.383855H208.639374l56.319831-169.727491h30.975907l56.319831 169.727491h-28.671914z m-6.399981-20.991937l-6.65598-22.783932c-5.631983-18.431945-10.751968-37.375888-16.127951-56.57583-4.863985 19.455942-10.239969 38.143886-15.615953 56.57583l-6.91198 22.783932zM374.270877 427.26579h30.719908L435.198694 512.001536c3.839988 11.263966 7.423978 22.783932 11.263967 34.303897 3.839988-11.519965 7.167978-23.039931 11.007967-34.303897l30.719907-85.759743h30.975908v169.727491h-25.599924V512.001536c0-15.103955 2.047994-37.119889 3.32799-52.479843l-13.567959 39.167883-27.647917 81.919754h-16.63995L409.598771 499.713573 396.030812 460.80169c0 15.359954 3.32799 37.375888 3.32799 52.479842v83.967748h-24.063928zM565.502303 427.26579h25.599924v169.727491h-25.599924zM627.454118 512.001536c0-55.295834 34.047898-88.575734 79.103762-88.575734a67.583797 67.583797 0 0 1 51.199847 21.503935l-14.591956 17.151949a45.823863 45.823863 0 0 0-35.071895-15.103955c-31.487906 0-52.479843 25.599923-52.479843 64.255807s18.687944 65.023805 53.759839 65.023805a42.239873 42.239873 0 0 0 25.599923-8.191975v-39.679881h-33.2799v-22.015934h57.855826v73.471779a76.79977 76.79977 0 0 1-53.759838 19.711941c-45.311864 0.255999-78.335765-31.487906-78.335765-87.551737zM875.261374 548.609426h-58.879823l-14.591956 48.383855h-27.391918l56.319831-169.727491h30.975907l56.319831 169.727491h-28.671914z m-6.399981-20.991937l-6.65598-22.783932c-5.631983-18.431945-10.751968-37.375888-16.127951-56.57583-4.863985 19.455942-10.239969 38.143886-15.615953 56.57583l-6.91198 22.783932z" fill="#434260" /></svg>