<?xml version="1.0" standalone="no"?><!DOCTYPE svg PUBLIC "-//W3C//DTD SVG 1.1//EN" "http://www.w3.org/Graphics/SVG/1.1/DTD/svg11.dtd"><svg class="icon" width="200px" height="200.00px" viewBox="0 0 1024 1024" version="1.1" xmlns="http://www.w3.org/2000/svg"><path d="M332.799002 686.081014m-332.799002 0a332.799002 332.799002 0 1 0 665.598003 0 332.799002 332.799002 0 1 0-665.598003 0Z" fill="#D3EFDE" /><path d="M883.19735 1024h-639.99808A141.055577 141.055577 0 0 1 102.399693 883.200422v-742.397772A141.055577 141.055577 0 0 1 243.19927 0.003072h516.350451a89.087733 89.087733 0 0 1 63.231811 25.599923l189.695431 189.695431A38.399885 38.399885 0 0 1 1023.996928 243.202342v639.99808a141.055577 141.055577 0 0 1-140.799578 140.799578zM243.19927 76.802842A63.999808 63.999808 0 0 0 179.199462 140.80265v742.397772A63.999808 63.999808 0 0 0 243.19927 947.20023h639.99808a63.999808 63.999808 0 0 0 63.999808-63.999808V259.074295l-179.199462-179.199463a12.799962 12.799962 0 0 0-8.447975-3.07199z" fill="#434260" /><path d="M419.070743 560.64139H340.478979l-19.455942 64.511807h-36.095892l75.007775-226.047322h41.215877l75.007775 226.047322h-38.143886zM409.598771 532.481475l-8.959973-30.463909c-7.679977-25.599923-14.335957-49.663851-21.503935-75.263774-6.399981 25.599923-13.567959 51.199846-20.991937 75.263774l-9.215973 30.463909zM505.854482 399.105875h68.351795c51.199846 0 86.271741 17.151949 86.271742 68.095795s-35.839892 72.191783-84.991745 72.191784h-34.047898v85.759743h-35.583894zM572.158284 512.001536c36.351891 0 53.503839-13.823959 53.503839-43.519869s-18.943943-40.959877-54.783836-40.959878h-29.439911V512.001536zM704.509886 399.105875h133.6316v29.695911h-98.047706v62.975811h82.943751v30.207909h-82.943751v72.959781h102.399693v30.20791h-137.983587z" fill="#434260" /></svg>