<?xml version="1.0" standalone="no"?><!DOCTYPE svg PUBLIC "-//W3C//DTD SVG 1.1//EN" "http://www.w3.org/Graphics/SVG/1.1/DTD/svg11.dtd"><svg class="icon" width="200px" height="200.00px" viewBox="0 0 1024 1024" version="1.1" xmlns="http://www.w3.org/2000/svg"><path d="M332.799002 686.081014m-332.799002 0a332.799002 332.799002 0 1 0 665.598003 0 332.799002 332.799002 0 1 0-665.598003 0Z" fill="#D3EFDE" /><path d="M883.19735 1024h-639.99808A141.055577 141.055577 0 0 1 102.399693 883.200422v-742.397772A141.055577 141.055577 0 0 1 243.19927 0.003072h516.350451a89.087733 89.087733 0 0 1 63.231811 25.599923l189.695431 189.695431A38.399885 38.399885 0 0 1 1023.996928 243.202342v639.99808a141.055577 141.055577 0 0 1-140.799578 140.799578zM243.19927 76.802842A63.999808 63.999808 0 0 0 179.199462 140.80265v742.397772A63.999808 63.999808 0 0 0 243.19927 947.20023h639.99808a63.999808 63.999808 0 0 0 63.999808-63.999808V259.074295l-179.199462-179.199463a12.799962 12.799962 0 0 0-8.447975-3.07199z" fill="#434260" /><path d="M431.358706 558.593396h-78.591764L332.799002 623.105203h-35.583894l75.007775-226.047322h41.215877l75.007775 226.047322h-38.143886z m-8.703974-27.903916l-8.959973-30.463909c-7.679977-25.599923-14.335957-49.663851-21.503936-75.263774-6.399981 25.599923-13.567959 51.199846-20.991937 75.263774l-9.215972 30.463909zM641.278076 623.105203l-51.199846-91.135727h-36.60789v91.135727h-35.583894v-226.047322h73.983778c46.59186 0 81.663755 16.63995 81.663755 65.279804a62.975811 62.975811 0 0 1-47.359858 64.767806l55.295835 95.743712z m-87.807736-119.807641H588.798234c32.767902 0 51.199846-13.567959 51.199846-40.703878s-17.919946-36.863889-51.199846-36.863889h-35.327894zM692.989921 588.801306l25.599923-18.175946a39.93588 39.93588 0 0 0 36.60789 25.599923c22.783932 0 34.047898-12.287963 34.047898-45.311864v-153.599539h35.583894v156.927529c0 40.447879-19.711941 72.959781-65.791803 72.959781a69.375792 69.375792 0 0 1-66.047802-38.399884z" fill="#434260" /></svg>