<?xml version="1.0" standalone="no"?><!DOCTYPE svg PUBLIC "-//W3C//DTD SVG 1.1//EN" "http://www.w3.org/Graphics/SVG/1.1/DTD/svg11.dtd"><svg class="icon" width="200px" height="200.00px" viewBox="0 0 1024 1024" version="1.1" xmlns="http://www.w3.org/2000/svg"><path d="M332.799002 686.081014m-332.799002 0a332.799002 332.799002 0 1 0 665.598003 0 332.799002 332.799002 0 1 0-665.598003 0Z" fill="#DFDFF2" /><path d="M883.19735 1024h-639.99808A141.055577 141.055577 0 0 1 102.399693 883.200422v-742.397772A141.055577 141.055577 0 0 1 243.19927 0.003072h516.350451a89.087733 89.087733 0 0 1 63.231811 25.599923l189.695431 189.695431A38.399885 38.399885 0 0 1 1023.996928 243.202342v639.99808a141.055577 141.055577 0 0 1-140.799578 140.799578zM243.19927 76.802842A63.999808 63.999808 0 0 0 179.199462 140.80265v742.397772A63.999808 63.999808 0 0 0 243.19927 947.20023h639.99808a63.999808 63.999808 0 0 0 63.999808-63.999808V259.074295l-179.199462-179.199463a12.799962 12.799962 0 0 0-8.447975-3.07199z" fill="#434260" /><path d="M420.862737 560.64139h-78.591764l-19.455941 64.511807H286.71914l75.007775-226.047322h41.215876l75.007775 226.047322h-38.143885z m-8.703973-27.903916l-8.959974-30.463909c-7.679977-25.599923-14.335957-49.663851-21.503935-75.263774-6.399981 25.599923-13.567959 51.199846-20.991937 75.263774l-9.215972 30.463909zM471.806585 399.105875h37.887886l33.535899 116.991649c7.679977 25.599923 12.543962 47.871856 20.479939 73.983778h1.535995c7.679977-25.599923 13.31196-48.127856 20.479939-73.983778l33.535899-116.991649h36.095892l-70.655788 226.047322H542.718372zM669.181992 512.001536c0-73.727779 44.799866-118.015646 102.399693-118.015646a87.039739 87.039739 0 0 1 64.255807 28.671914l-19.455941 22.783932a60.15982 60.15982 0 0 0-44.287867-20.22394c-38.911883 0-66.047802 32.511902-66.047802 85.759743s25.599923 86.52774 65.023805 86.52774a65.791803 65.791803 0 0 0 51.199846-24.063927l18.943943 22.527932a89.087733 89.087733 0 0 1-70.399788 32.511903c-58.111826 0.767998-101.631695-41.727875-101.631696-116.479651z" fill="#434260" /></svg>