<?xml version="1.0" standalone="no"?><!DOCTYPE svg PUBLIC "-//W3C//DTD SVG 1.1//EN" "http://www.w3.org/Graphics/SVG/1.1/DTD/svg11.dtd"><svg class="icon" width="200px" height="200.00px" viewBox="0 0 1024 1024" version="1.1" xmlns="http://www.w3.org/2000/svg"><path d="M332.799002 686.081014m-332.799002 0a332.799002 332.799002 0 1 0 665.598003 0 332.799002 332.799002 0 1 0-665.598003 0Z" fill="#CCE4F2" /><path d="M883.19735 1024h-639.99808A141.055577 141.055577 0 0 1 102.399693 883.200422v-742.397772A141.055577 141.055577 0 0 1 243.19927 0.003072h516.350451a89.087733 89.087733 0 0 1 63.231811 25.599923l189.695431 189.695431A38.399885 38.399885 0 0 1 1023.996928 243.202342v639.99808a141.055577 141.055577 0 0 1-140.799578 140.799578zM243.19927 76.802842A63.999808 63.999808 0 0 0 179.199462 140.80265v742.397772A63.999808 63.999808 0 0 0 243.19927 947.20023h639.99808a63.999808 63.999808 0 0 0 63.999808-63.999808V259.074295l-179.199462-179.199463a12.799962 12.799962 0 0 0-8.447975-3.07199z" fill="#434260" /><path d="M428.030716 560.64139h-78.591764l-19.455942 64.511807h-36.095892l75.007775-226.047322H409.598771l75.007775 226.047322h-37.631887z m-8.703974-27.903916L409.598771 502.273565c-7.679977-25.599923-14.335957-49.663851-21.503935-75.263774-6.399981 25.599923-13.567959 51.199846-20.991937 75.263774L358.398925 532.737474zM478.974563 399.105875h37.887886l33.5359 116.991649c7.679977 25.599923 12.543962 47.871856 20.479938 73.983778h1.535996c7.679977-25.599923 13.31196-48.127856 20.479938-73.983778l33.5359-116.991649h36.351891l-70.655788 226.047322h-42.239874zM672.509982 595.969284l20.991937-25.599923a87.551737 87.551737 0 0 0 60.15982 25.599923c27.391918 0 42.751872-12.799962 42.751872-31.999904s-15.359954-27.135919-36.351891-36.351891l-31.231906-13.567959a65.023805 65.023805 0 0 1-46.079862-59.135823 67.071799 67.071799 0 0 1 74.239777-62.207813 96.76771 96.76771 0 0 1 68.351795 28.671914l-18.687944 22.783932a71.935784 71.935784 0 0 0-49.663851-20.22394c-23.039931 0-38.143886 11.007967-38.143886 29.183913s18.175945 25.599923 36.607891 34.047897l30.975907 13.311961a62.975811 62.975811 0 0 1 46.079861 62.719811c0 36.351891-29.95191 65.791803-79.615761 65.791803a112.639662 112.639662 0 0 1-80.383759-33.023901z" fill="#434260" /></svg>