<?xml version="1.0" standalone="no"?><!DOCTYPE svg PUBLIC "-//W3C//DTD SVG 1.1//EN" "http://www.w3.org/Graphics/SVG/1.1/DTD/svg11.dtd"><svg class="icon" width="200px" height="200.00px" viewBox="0 0 1024 1024" version="1.1" xmlns="http://www.w3.org/2000/svg"><path d="M332.799002 686.081014m-332.799002 0a332.799002 332.799002 0 1 0 665.598003 0 332.799002 332.799002 0 1 0-665.598003 0Z" fill="#FFDCEE" /><path d="M883.19735 1024h-639.99808A141.055577 141.055577 0 0 1 102.399693 883.200422v-742.397772A141.055577 141.055577 0 0 1 243.19927 0.003072h516.350451a89.087733 89.087733 0 0 1 63.231811 25.599923l189.695431 189.695431A38.399885 38.399885 0 0 1 1023.996928 243.202342v639.99808a141.055577 141.055577 0 0 1-140.799578 140.799578zM243.19927 76.802842A63.999808 63.999808 0 0 0 179.199462 140.80265v742.397772A63.999808 63.999808 0 0 0 243.19927 947.20023h639.99808a63.999808 63.999808 0 0 0 63.999808-63.999808V259.074295l-179.199462-179.199463a12.799962 12.799962 0 0 0-8.447975-3.07199z" fill="#434260" /><path d="M311.807065 399.105875h69.88779c46.335861 0 79.87176 14.847955 79.87176 55.551833a51.199846 51.199846 0 0 1-32.255903 48.895853v1.535996a51.199846 51.199846 0 0 1 44.543866 53.759838c0 44.799866-36.60789 66.303801-86.52774 66.303802h-76.79977z m66.047801 94.207717c34.303897 0 48.895853-12.799962 48.895854-34.047898s-15.871952-32.511902-47.871857-32.511902h-31.487905v66.5598z m6.143982 103.679689c35.327894 0 55.551833-12.543962 55.551833-40.191879s-19.711941-36.60789-55.551833-36.607891h-35.839892v76.79977zM621.054137 560.64139h-78.591764l-19.455942 64.511807H486.398541l75.007775-226.047322h41.215876l75.007775 226.047322H639.99808z m-8.703974-27.903916l-8.959973-30.463909c-7.679977-25.599923-14.335957-49.663851-21.503936-75.263774-6.399981 25.599923-13.567959 51.199846-20.991937 75.263774l-9.215972 30.463909zM732.925801 428.801786H665.598003v-29.695911h168.447495v29.695911H767.997696v196.095411h-35.071895z" fill="#434260" /></svg>