<?xml version="1.0" standalone="no"?><!DOCTYPE svg PUBLIC "-//W3C//DTD SVG 1.1//EN" "http://www.w3.org/Graphics/SVG/1.1/DTD/svg11.dtd"><svg class="icon" width="200px" height="200.00px" viewBox="0 0 1024 1024" version="1.1" xmlns="http://www.w3.org/2000/svg"><path d="M332.799002 686.081014m-332.799002 0a332.799002 332.799002 0 1 0 665.598003 0 332.799002 332.799002 0 1 0-665.598003 0Z" fill="#CCE4F2" /><path d="M268.543194 512.001536c0-73.727779 44.799866-118.015646 102.399693-118.015646A87.039739 87.039739 0 0 1 435.198694 423.425802l-19.455941 22.783931a60.15982 60.15982 0 0 0-44.287867-20.223939c-38.911883 0-66.047802 32.511902-66.047802 85.759743s25.599923 86.52774 65.023805 86.52774a65.791803 65.791803 0 0 0 51.199846-24.063928l18.943943 22.527933a89.087733 89.087733 0 0 1-70.399789 32.511902c-57.855826 0-101.631695-42.495873-101.631695-117.247648zM479.486562 399.105875H537.598387c69.375792 0 109.055673 38.399885 109.055673 112.127663s-39.679881 113.919658-107.263678 113.919659h-59.90382z m56.319831 196.863409c48.383855 0 74.495777-28.671914 74.495776-84.735746s-25.599923-83.19975-74.495776-83.19975h-20.479939v167.935496zM817.405548 625.153197l-51.199847-91.135727H729.597811v91.135727h-35.583893v-226.047322H767.997696c46.59186 0 81.663755 16.63995 81.663755 65.279804a62.975811 62.975811 0 0 1-47.359858 64.767806l55.295834 95.743712z m-87.807737-119.807641h34.047898c32.767902 0 51.199846-13.567959 51.199846-40.959877s-17.919946-36.863889-51.199846-36.86389H729.597811z" fill="#434260" /><path d="M883.19735 1024h-639.99808A141.055577 141.055577 0 0 1 102.399693 883.200422v-742.397772A141.055577 141.055577 0 0 1 243.19927 0.003072h516.350451a89.087733 89.087733 0 0 1 63.231811 25.599923l189.695431 189.695431A38.399885 38.399885 0 0 1 1023.996928 243.202342v639.99808a141.055577 141.055577 0 0 1-140.799578 140.799578zM243.19927 76.802842A63.999808 63.999808 0 0 0 179.199462 140.80265v742.397772A63.999808 63.999808 0 0 0 243.19927 947.20023h639.99808a63.999808 63.999808 0 0 0 63.999808-63.999808V259.074295l-179.199462-179.199463a12.799962 12.799962 0 0 0-8.447975-3.07199z" fill="#434260" /></svg>