<?xml version="1.0" standalone="no"?><!DOCTYPE svg PUBLIC "-//W3C//DTD SVG 1.1//EN" "http://www.w3.org/Graphics/SVG/1.1/DTD/svg11.dtd"><svg class="icon" width="200px" height="200.00px" viewBox="0 0 1024 1024" version="1.1" xmlns="http://www.w3.org/2000/svg"><path d="M332.799002 686.081014m-332.799002 0a332.799002 332.799002 0 1 0 665.598003 0 332.799002 332.799002 0 1 0-665.598003 0Z" fill="#F4EFC9" /><path d="M883.19735 1024h-639.99808A141.055577 141.055577 0 0 1 102.399693 883.200422v-742.397772A141.055577 141.055577 0 0 1 243.19927 0.003072h516.350451a89.087733 89.087733 0 0 1 63.231811 25.599923l189.695431 189.695431A38.399885 38.399885 0 0 1 1023.996928 243.202342v639.99808a141.055577 141.055577 0 0 1-140.799578 140.799578zM243.19927 76.802842A63.999808 63.999808 0 0 0 179.199462 140.80265v742.397772A63.999808 63.999808 0 0 0 243.19927 947.20023h639.99808a63.999808 63.999808 0 0 0 63.999808-63.999808V259.074295l-179.199462-179.199463a12.799962 12.799962 0 0 0-8.447975-3.07199z" fill="#434260" /><path d="M246.52726 512.001536c0-73.727779 44.799866-118.015646 102.399693-118.015646a87.039739 87.039739 0 0 1 64.255807 28.671914l-19.455941 22.783932a60.15982 60.15982 0 0 0-44.287867-20.22394c-38.911883 0-66.047802 32.511902-66.047802 85.759743s25.599923 86.52774 65.023805 86.52774a65.791803 65.791803 0 0 0 51.199846-24.063927l18.943943 22.527932a89.087733 89.087733 0 0 1-70.399788 32.511903c-58.111826 0.767998-101.631695-41.727875-101.631696-116.479651zM457.214628 399.105875h40.959877l41.471876 114.175657c5.119985 15.103955 9.727971 30.463909 15.103955 45.823863h1.535995c5.119985-15.359954 9.471972-30.719908 14.847956-45.823863l40.959877-114.175657h40.703878v226.047322h-33.023901v-111.871665c0-20.223939 2.815992-49.407852 4.607986-69.88779l-18.175946 51.199846-40.447878 108.799674h-22.015934l-39.679881-107.775677-17.919946-51.199846c1.535995 20.479939 4.351987 49.663851 4.351987 69.88779v111.871664h-33.279901zM712.189863 399.105875h58.623825c69.375792 0 109.055673 38.399885 109.055672 112.127663s-39.679881 113.919658-107.263678 113.919659h-60.415819zM767.997696 595.969284c48.383855 0 74.495777-28.671914 74.495777-84.735746s-25.599923-83.19975-74.495777-83.19975h-20.479939v167.935496z" fill="#434260" /></svg>