<?xml version="1.0" standalone="no"?><!DOCTYPE svg PUBLIC "-//W3C//DTD SVG 1.1//EN" "http://www.w3.org/Graphics/SVG/1.1/DTD/svg11.dtd"><svg class="icon" width="200px" height="200.00px" viewBox="0 0 1024 1024" version="1.1" xmlns="http://www.w3.org/2000/svg"><path d="M332.799002 686.081014m-332.799002 0a332.799002 332.799002 0 1 0 665.598003 0 332.799002 332.799002 0 1 0-665.598003 0Z" fill="#D3EFDE" /><path d="M883.19735 1024h-639.99808A141.055577 141.055577 0 0 1 102.399693 883.200422v-742.397772A141.055577 141.055577 0 0 1 243.19927 0.003072h516.350451a89.087733 89.087733 0 0 1 63.231811 25.599923l189.695431 189.695431A38.399885 38.399885 0 0 1 1023.996928 243.202342v639.99808a141.055577 141.055577 0 0 1-140.799578 140.799578zM243.19927 76.802842A63.999808 63.999808 0 0 0 179.199462 140.80265v742.397772A63.999808 63.999808 0 0 0 243.19927 947.20023h639.99808a63.999808 63.999808 0 0 0 63.999808-63.999808V259.074295l-179.199462-179.199463a12.799962 12.799962 0 0 0-8.447975-3.07199z" fill="#434260" /><path d="M272.639182 399.105875h58.623824c69.375792 0 109.055673 38.399885 109.055673 112.127663s-39.679881 113.663659-107.519677 113.663659h-60.15982z m56.319831 196.863409c48.383855 0 74.495777-28.671914 74.495777-84.735746s-25.599923-83.19975-74.495777-83.19975H307.199078v167.935496zM486.398541 399.105875h58.623824c69.375792 0 109.055673 38.399885 109.055673 112.127663S614.398157 624.897197 547.838356 624.897197H486.398541z m56.319831 196.863409c48.383855 0 74.495777-28.671914 74.495776-84.735746s-25.599923-83.19975-74.495776-83.19975h-20.479939v167.935496zM701.949894 399.105875h69.88779c46.335861 0 79.87176 14.847955 79.871761 55.551833a51.199846 51.199846 0 0 1-32.511903 48.639854v1.535995a51.199846 51.199846 0 0 1 44.543867 53.759839c0 44.799866-36.60789 66.303801-86.527741 66.303801h-76.799769zM767.997696 493.313592c34.303897 0 48.895853-12.799962 48.895853-34.047898s-15.871952-32.511902-47.871856-32.511902h-31.487906v66.5598z m5.631983 103.679689c35.327894 0 55.551833-12.543962 55.551833-40.191879s-19.711941-36.60789-55.551833-36.607891h-35.839892v76.79977z" fill="#434260" /></svg>