<?xml version="1.0" standalone="no"?><!DOCTYPE svg PUBLIC "-//W3C//DTD SVG 1.1//EN" "http://www.w3.org/Graphics/SVG/1.1/DTD/svg11.dtd"><svg class="icon" width="200px" height="200.00px" viewBox="0 0 1024 1024" version="1.1" xmlns="http://www.w3.org/2000/svg"><path d="M332.799002 686.081014m-332.799002 0a332.799002 332.799002 0 1 0 665.598003 0 332.799002 332.799002 0 1 0-665.598003 0Z" fill="#D3EFDE" /><path d="M883.19735 1024h-639.99808A141.055577 141.055577 0 0 1 102.399693 883.200422v-742.397772A141.055577 141.055577 0 0 1 243.19927 0.003072h516.350451a89.087733 89.087733 0 0 1 63.231811 25.599923l189.695431 189.695431A38.399885 38.399885 0 0 1 1023.996928 243.202342v639.99808a141.055577 141.055577 0 0 1-140.799578 140.799578zM243.19927 76.802842A63.999808 63.999808 0 0 0 179.199462 140.80265v742.397772A63.999808 63.999808 0 0 0 243.19927 947.20023h639.99808a63.999808 63.999808 0 0 0 63.999808-63.999808V259.074295l-179.199462-179.199463a12.799962 12.799962 0 0 0-8.447975-3.07199z" fill="#434260" /><path d="M200.959397 409.601843H255.999232c63.743809 0 100.0957 35.327894 100.0957 102.399693s-37.631887 103.679689-100.0957 103.679689H200.959397z m51.199847 180.479459c44.543866 0 68.351795-25.599923 68.351794-76.79977s-24.063928-76.79977-68.351794-76.799769h-18.431945v153.599539zM371.198886 512.001536c0-66.8158 36.863889-106.75168 90.11173-106.75168s90.367729 39.93588 90.367729 106.75168-37.119889 107.519677-90.879727 107.519677-89.599731-41.471876-89.599732-107.519677z m146.94356 0c0-48.639854-22.527932-78.335765-56.83183-78.335765s-56.57583 28.927913-56.57583 78.335765 22.271933 79.615761 56.57583 79.615761 56.83183-31.487906 56.83183-79.615761zM568.062296 512.001536c0-67.583797 41.215876-108.031676 93.439719-108.031676a79.87176 79.87176 0 0 1 58.879824 25.599923l-17.663947 20.735938a55.039835 55.039835 0 0 0-40.447879-18.687944c-35.839892 0-60.671818 29.95191-60.671818 78.591764s23.039931 79.359762 59.647821 79.359762a60.415819 60.415819 0 0 0 45.823863-22.015934l17.407948 20.479939a81.919754 81.919754 0 0 1-64.511807 29.95191c-51.711845 1.535995-91.903724-37.375888-91.903724-105.983682zM745.981762 409.601843h37.375888l38.143885 102.399693c4.863985 13.823959 8.959973 27.903916 13.823959 41.983874h1.279996c4.863985-14.079958 8.703974-28.159916 13.567959-41.983874l37.375888-102.399693h37.631887v207.359378H895.997312V512.001536c0-18.687944 2.559992-45.311864 4.351987-64.255807l-16.63995 47.871856L844.797466 595.713285h-20.22394l-36.351891-98.815704-16.383951-47.871856c1.279996 18.943943 3.839988 45.567863 3.839989 64.255807v102.399693h-29.695911z" fill="#434260" /></svg>