<?xml version="1.0" standalone="no"?><!DOCTYPE svg PUBLIC "-//W3C//DTD SVG 1.1//EN" "http://www.w3.org/Graphics/SVG/1.1/DTD/svg11.dtd"><svg class="icon" width="200px" height="200.00px" viewBox="0 0 1024 1024" version="1.1" xmlns="http://www.w3.org/2000/svg"><path d="M332.799002 686.081014m-332.799002 0a332.799002 332.799002 0 1 0 665.598003 0 332.799002 332.799002 0 1 0-665.598003 0Z" fill="#DFDFF2" /><path d="M883.19735 1024h-639.99808A141.055577 141.055577 0 0 1 102.399693 883.200422v-742.397772A141.055577 141.055577 0 0 1 243.19927 0.003072h516.350451a89.087733 89.087733 0 0 1 63.231811 25.599923l189.695431 189.695431A38.399885 38.399885 0 0 1 1023.996928 243.202342v639.99808a141.055577 141.055577 0 0 1-140.799578 140.799578zM243.19927 76.802842A63.999808 63.999808 0 0 0 179.199462 140.80265v742.397772A63.999808 63.999808 0 0 0 243.19927 947.20023h639.99808a63.999808 63.999808 0 0 0 63.999808-63.999808V259.074295l-179.199462-179.199463a12.799962 12.799962 0 0 0-8.447975-3.07199z" fill="#434260" /><path d="M275.199174 399.105875H332.799002c69.375792 0 109.055673 38.399885 109.055672 112.127663s-39.679881 113.919658-107.263678 113.919659h-59.391822z m56.319831 196.863409c48.383855 0 74.495777-28.671914 74.495777-84.735746s-25.599923-83.19975-74.495777-83.19975h-20.479938v167.935496zM477.694567 512.001536c0-72.703782 40.191879-116.479651 98.303705-116.479651s98.559704 43.519869 98.559704 116.479651-40.447879 118.015646-98.559704 118.015646-98.303705-46.079862-98.303705-118.015646z m160.255519 0c0-52.991841-25.599923-85.247744-61.951814-85.247744S514.302457 458.241697 514.302457 512.001536s24.319927 86.78374 61.695815 86.78374S637.950086 563.201382 637.950086 512.001536zM759.037723 429.057785h-66.303801v-29.95191h168.447494v29.695911H793.597619v196.095411h-34.559896z" fill="#434260" /></svg>