<?xml version="1.0" standalone="no"?><!DOCTYPE svg PUBLIC "-//W3C//DTD SVG 1.1//EN" "http://www.w3.org/Graphics/SVG/1.1/DTD/svg11.dtd"><svg class="icon" width="200px" height="200.00px" viewBox="0 0 1024 1024" version="1.1" xmlns="http://www.w3.org/2000/svg"><path d="M332.799002 686.081014m-332.799002 0a332.799002 332.799002 0 1 0 665.598003 0 332.799002 332.799002 0 1 0-665.598003 0Z" fill="#CCE4F2" /><path d="M883.19735 1024h-639.99808A141.055577 141.055577 0 0 1 102.399693 883.200422v-742.397772A141.055577 141.055577 0 0 1 243.19927 0.003072h516.350451a89.087733 89.087733 0 0 1 63.231811 25.599923l189.695431 189.695431A38.399885 38.399885 0 0 1 1023.996928 243.202342v639.99808a141.055577 141.055577 0 0 1-140.799578 140.799578zM243.19927 76.802842A63.999808 63.999808 0 0 0 179.199462 140.80265v742.397772A63.999808 63.999808 0 0 0 243.19927 947.20023h639.99808a63.999808 63.999808 0 0 0 63.999808-63.999808V259.074295l-179.199462-179.199463a12.799962 12.799962 0 0 0-8.447975-3.07199z" fill="#434260" /><path d="M209.91937 409.601843h53.759839c63.743809 0 100.0957 35.327894 100.0957 102.399693s-36.351891 104.447687-98.303705 104.447687H209.91937z m51.199847 180.479459c44.543866 0 68.351795-25.599923 68.351795-76.79977s-24.063928-76.79977-68.351795-76.799769h-18.431945v153.599539zM380.15886 512.001536c0-66.8158 36.863889-106.75168 90.111729-106.75168S560.638318 444.417739 560.638318 512.001536s-37.119889 108.031676-90.367729 108.031676-90.11173-41.983874-90.111729-108.031676z m146.943559 0c0-48.639854-22.527932-78.335765-56.83183-78.335765s-56.57583 28.927913-56.57583 78.335765 22.271933 79.615761 56.57583 79.615761 56.83183-31.487906 56.83183-79.615761zM622.846131 435.201766H563.19831v-25.599923h153.59954v25.599923h-61.439816v179.199463h-32.511903zM737.021789 409.601843h37.375888l38.143885 102.399693c4.863985 13.823959 8.959973 27.903916 13.823959 41.983874h1.279996c4.863985-14.079958 8.703974-28.159916 13.567959-41.983874l37.375888-102.399693h37.887887v207.359378h-30.463909V512.001536c0-18.687944 2.559992-45.311864 4.351987-64.255807l-16.63995 47.871856-36.095892 98.815704h-20.223939l-36.351891-98.815704-16.383951-47.871856c1.279996 18.943943 3.839988 45.567863 3.839988 64.255807v102.399693h-31.487905z" fill="#434260" /></svg>