<?xml version="1.0" standalone="no"?><!DOCTYPE svg PUBLIC "-//W3C//DTD SVG 1.1//EN" "http://www.w3.org/Graphics/SVG/1.1/DTD/svg11.dtd"><svg class="icon" width="200px" height="200.00px" viewBox="0 0 1024 1024" version="1.1" xmlns="http://www.w3.org/2000/svg"><path d="M332.799002 686.081014m-332.799002 0a332.799002 332.799002 0 1 0 665.598003 0 332.799002 332.799002 0 1 0-665.598003 0Z" fill="#FFDCEE" /><path d="M883.19735 1024h-639.99808A141.055577 141.055577 0 0 1 102.399693 883.200422v-742.397772A141.055577 141.055577 0 0 1 243.19927 0.003072h516.350451a89.087733 89.087733 0 0 1 63.231811 25.599923l189.695431 189.695431A38.399885 38.399885 0 0 1 1023.996928 243.202342v639.99808a141.055577 141.055577 0 0 1-140.799578 140.799578zM243.19927 76.802842A63.999808 63.999808 0 0 0 179.199462 140.80265v742.397772A63.999808 63.999808 0 0 0 243.19927 947.20023h639.99808a63.999808 63.999808 0 0 0 63.999808-63.999808V259.074295l-179.199462-179.199463a12.799962 12.799962 0 0 0-8.447975-3.07199z" fill="#434260" /><path d="M214.271357 409.601843h53.759839c63.743809 0 100.0957 35.327894 100.0957 102.399693s-35.327894 103.679689-98.559705 103.679689H214.271357z m51.199847 180.479459c44.543866 0 68.351795-25.599923 68.351795-76.79977s-24.063928-76.79977-68.351795-76.799769h-18.687944v153.599539zM399.614801 512.001536c0-66.8158 36.863889-106.75168 90.11173-106.75168s90.367729 39.93588 90.367729 106.75168-37.119889 108.031676-90.367729 108.031676-90.11173-41.983874-90.11173-108.031676z m146.943559 0c0-48.639854-22.527932-78.335765-56.831829-78.335765s-56.57583 28.927913-56.57583 78.335765 22.271933 79.615761 56.57583 79.615761 57.087829-31.487906 57.087829-79.615761zM657.662027 435.201766h-60.927817v-25.599923h153.599539v25.599923H691.197926v179.199463h-33.535899zM817.661547 508.673546L761.853714 409.601843h36.351891l25.599924 48.383855c5.119985 9.471972 9.471972 18.943943 15.871952 31.231906h1.535995c5.375984-12.287963 9.215972-21.759935 14.079958-31.231906l25.599923-48.383855h34.303897l-55.807832 102.399693 59.647821 105.215684h-38.143886l-27.391918-51.199846-17.151948-33.791899c-5.887982 12.799962-11.007967 23.29593-16.127952 33.791899l-25.599923 51.199846h-36.351891z" fill="#434260" /></svg>