<?xml version="1.0" standalone="no"?><!DOCTYPE svg PUBLIC "-//W3C//DTD SVG 1.1//EN" "http://www.w3.org/Graphics/SVG/1.1/DTD/svg11.dtd"><svg class="icon" width="200px" height="200.00px" viewBox="0 0 1024 1024" version="1.1" xmlns="http://www.w3.org/2000/svg"><path d="M332.799002 686.081014m-332.799002 0a332.799002 332.799002 0 1 0 665.598003 0 332.799002 332.799002 0 1 0-665.598003 0Z" fill="#DFDFF2" /><path d="M883.19735 1024h-639.99808A141.055577 141.055577 0 0 1 102.399693 883.200422v-742.397772A141.055577 141.055577 0 0 1 243.19927 0.003072h516.350451a89.087733 89.087733 0 0 1 63.231811 25.599923l189.695431 189.695431A38.399885 38.399885 0 0 1 1023.996928 243.202342v639.99808a141.055577 141.055577 0 0 1-140.799578 140.799578zM243.19927 76.802842A63.999808 63.999808 0 0 0 179.199462 140.80265v742.397772A63.999808 63.999808 0 0 0 243.19927 947.20023h639.99808a63.999808 63.999808 0 0 0 63.999808-63.999808V259.074295l-179.199462-179.199463a12.799962 12.799962 0 0 0-8.447975-3.07199z" fill="#434260" /><path d="M257.535227 272.898253H307.199078c57.855826 0 90.879727 31.999904 90.879728 93.43972S364.030908 460.80169 307.199078 460.80169h-51.199846z m46.84786 164.095508c40.447879 0 62.207813-23.807929 62.207813-70.655788s-21.759935-69.375792-62.207813-69.375792h-17.151949v140.03158zM408.318775 272.898253h31.487906l27.903916 97.535708c6.399981 21.503935 10.495969 39.93588 17.151948 61.695815 6.399981-21.759935 11.007967-40.191879 17.151949-61.695815l27.903916-97.535708h30.20791L502.526492 460.80169h-35.071894zM585.726243 272.898253h48.895853c57.855826 0 90.879727 31.999904 90.879727 93.43972S691.197926 460.80169 636.158092 460.80169h-51.199847z m46.847859 164.095508c40.447879 0 62.207813-23.807929 62.207814-70.655788s-21.759935-69.375792-62.207814-69.375792H614.398157v140.03158zM848.637454 407.29785H783.35765L767.997696 460.80169h-30.975907l62.463813-188.415435h34.303897L895.997312 460.80169h-31.487906z m-6.911979-23.29593l-7.423978-25.599923c-6.399981-20.479939-12.031964-41.471876-17.919946-62.719812-5.375984 21.503935-11.263966 42.239873-17.407948 62.719812l-7.679977 25.599923zM211.455366 665.601075h67.583797v21.759935H211.455366zM314.623056 667.137071v-107.519678h29.695911v109.567671c0 42.495873 16.895949 56.319831 40.447879 56.319831s41.215876-13.823959 41.215876-56.319831v-109.567671h28.671914v107.519678c0 61.439816-28.159916 84.223747-69.88779 84.223747s-70.14379-23.039931-70.14379-84.223747zM503.29449 559.617393h48.895853c57.855826 0 90.879727 31.999904 90.879728 93.43972s-33.023901 94.975715-89.343732 94.975715h-51.199847z m46.84786 164.095508c40.447879 0 62.207813-23.807929 62.207813-70.655788s-21.759935-69.375792-62.207813-69.375792h-17.151949v140.03158zM682.237953 559.617393h29.695911v188.415435h-29.695911zM751.101747 653.057113c0-60.671818 33.535899-97.023709 81.919754-97.023709s82.175753 36.351891 82.175753 97.023709-33.791899 98.303705-82.175753 98.303705-81.919754-37.887886-81.919754-98.303705z m133.631599 0c0-44.287867-20.479939-71.167786-51.199847-71.167787s-51.199846 25.599923-51.199846 71.167787 20.223939 72.447783 51.199846 72.447782 50.943847-28.415915 50.943848-72.447782z" fill="#434260" /></svg>