<?xml version="1.0" standalone="no"?><!DOCTYPE svg PUBLIC "-//W3C//DTD SVG 1.1//EN" "http://www.w3.org/Graphics/SVG/1.1/DTD/svg11.dtd"><svg class="icon" width="200px" height="200.00px" viewBox="0 0 1024 1024" version="1.1" xmlns="http://www.w3.org/2000/svg"><path d="M332.799002 686.081014m-332.799002 0a332.799002 332.799002 0 1 0 665.598003 0 332.799002 332.799002 0 1 0-665.598003 0Z" fill="#F4EFC9" /><path d="M883.19735 1024h-639.99808A141.055577 141.055577 0 0 1 102.399693 883.200422v-742.397772A141.055577 141.055577 0 0 1 243.19927 0.003072h516.350451a89.087733 89.087733 0 0 1 63.231811 25.599923l189.695431 189.695431A38.399885 38.399885 0 0 1 1023.996928 243.202342v639.99808a141.055577 141.055577 0 0 1-140.799578 140.799578zM243.19927 76.802842A63.999808 63.999808 0 0 0 179.199462 140.80265v742.397772A63.999808 63.999808 0 0 0 243.19927 947.20023h639.99808a63.999808 63.999808 0 0 0 63.999808-63.999808V259.074295l-179.199462-179.199463a12.799962 12.799962 0 0 0-8.447975-3.07199z" fill="#434260" /><path d="M241.151277 399.105875h58.623824c69.375792 0 109.055673 38.399885 109.055673 112.127663s-39.679881 113.919658-107.263679 113.919659H241.151277z m56.319831 196.863409c48.383855 0 74.495777-28.671914 74.495776-84.735746s-25.599923-83.19975-74.495776-83.19975h-20.479939v167.935496zM430.846707 399.105875h36.86389l21.247936 117.503647 12.031964 72.191784c4.863985-24.319927 10.239969-48.383855 15.359954-72.447783l29.183912-117.503648h31.231907l29.439911 117.503648c5.119985 23.551929 10.239969 47.871856 15.359954 72.447783h1.535996c3.583989-25.599923 7.679977-48.895853 11.263966-72.447783l21.503935-117.503648H691.197926l-44.543866 226.047322h-43.775869l-30.463908-125.695623c-4.095988-17.919946-7.423978-34.815896-10.495969-51.199846h-1.279996c-3.071991 17.151949-6.65598 34.047898-10.495968 51.199846l-29.695911 125.695623h-43.007871zM714.493857 512.001536c0-73.727779 45.567863-118.015646 105.215684-118.015646a90.11173 90.11173 0 0 1 67.327798 28.671914l-19.455942 22.783932a61.183816 61.183816 0 0 0-46.59186-20.22394c-41.983874 0-70.14379 32.511902-70.14379 85.759743s25.599923 86.52774 71.423786 86.52774a56.063832 56.063832 0 0 0 35.583893-11.007966v-52.479843h-44.543866v-29.183913h76.79977v98.047706a102.399693 102.399693 0 0 1-71.423786 25.599924c-60.415819 0.767998-104.191687-41.727875-104.191687-116.479651z" fill="#434260" /></svg>