<?xml version="1.0" standalone="no"?><!DOCTYPE svg PUBLIC "-//W3C//DTD SVG 1.1//EN" "http://www.w3.org/Graphics/SVG/1.1/DTD/svg11.dtd"><svg class="icon" width="200px" height="200.00px" viewBox="0 0 1024 1024" version="1.1" xmlns="http://www.w3.org/2000/svg"><path d="M332.799002 686.081014m-332.799002 0a332.799002 332.799002 0 1 0 665.598003 0 332.799002 332.799002 0 1 0-665.598003 0Z" fill="#DFDFF2" /><path d="M883.19735 1024h-639.99808A141.055577 141.055577 0 0 1 102.399693 883.200422v-742.397772A141.055577 141.055577 0 0 1 243.19927 0.003072h516.350451a89.087733 89.087733 0 0 1 63.231811 25.599923l189.695431 189.695431A38.399885 38.399885 0 0 1 1023.996928 243.202342v639.99808a141.055577 141.055577 0 0 1-140.799578 140.799578zM243.19927 76.802842A63.999808 63.999808 0 0 0 179.199462 140.80265v742.397772A63.999808 63.999808 0 0 0 243.19927 947.20023h639.99808a63.999808 63.999808 0 0 0 63.999808-63.999808V259.074295l-179.199462-179.199463a12.799962 12.799962 0 0 0-8.447975-3.07199z" fill="#434260" /><path d="M289.279132 398.849875h133.631599v29.951911H325.119025v62.975811h82.943751v29.95191H325.119025v72.959781h102.399692v30.207909h-138.239585zM473.598579 398.849875h36.60789l75.007775 132.863602 23.55193 47.871856h1.535995c-1.791995-23.29593-4.607986-51.199846-4.607986-75.263774v-105.471684H639.99808v226.303322h-37.119889l-75.007775-133.3756-23.551929-47.359858h-1.535995c1.791995 23.29593 4.607986 49.407852 4.607986 73.983778v106.49568H473.598579zM668.669994 398.849875h37.887886l33.5359 117.247649c7.679977 25.599923 12.799962 47.871856 20.479938 73.983778h1.535996c7.935976-25.599923 13.31196-48.127856 20.479938-73.983778l33.5359-117.247649h36.351891l-70.655788 226.303322h-42.239874z" fill="#434260" /></svg>