<?xml version="1.0" standalone="no"?><!DOCTYPE svg PUBLIC "-//W3C//DTD SVG 1.1//EN" "http://www.w3.org/Graphics/SVG/1.1/DTD/svg11.dtd"><svg class="icon" width="200px" height="200.00px" viewBox="0 0 1024 1024" version="1.1" xmlns="http://www.w3.org/2000/svg"><path d="M332.799002 686.081014m-332.799002 0a332.799002 332.799002 0 1 0 665.598003 0 332.799002 332.799002 0 1 0-665.598003 0Z" fill="#FFDCEE" /><path d="M883.19735 1024h-639.99808A141.055577 141.055577 0 0 1 102.399693 883.200422v-742.397772A141.055577 141.055577 0 0 1 243.19927 0.003072h516.350451a89.087733 89.087733 0 0 1 63.231811 25.599923l189.695431 189.695431A38.399885 38.399885 0 0 1 1023.996928 243.202342v639.99808a141.055577 141.055577 0 0 1-140.799578 140.799578zM243.19927 76.802842A63.999808 63.999808 0 0 0 179.199462 140.80265v742.397772A63.999808 63.999808 0 0 0 243.19927 947.20023h639.99808a63.999808 63.999808 0 0 0 63.999808-63.999808V259.074295l-179.199462-179.199463a12.799962 12.799962 0 0 0-8.447975-3.07199z" fill="#434260" /><path d="M311.039067 399.105875h133.631599v29.695911h-98.047706v62.975811h82.943751v30.207909h-82.943751v72.959781h102.399693v30.20791h-137.983586zM535.294394 508.417547l-60.671818-109.311672h39.679881l27.391918 52.735841c5.631983 10.495969 10.495969 20.479939 17.151948 34.047898h1.535996c5.887982-13.567959 10.239969-23.551929 15.359954-34.047898l25.599923-52.735841H639.99808l-60.671818 111.103666 65.023805 114.943656h-39.93588l-29.695911-56.063832-18.687944-36.86389c-6.399981 13.823959-12.031964 25.599923-17.407948 36.86389l-28.927913 56.063832h-39.167883zM678.397965 399.105875h133.631599v29.695911h-98.047706v62.975811h82.943751v30.207909h-82.943751v72.959781h102.399693v30.20791H678.397965z" fill="#434260" /></svg>