<?xml version="1.0" standalone="no"?><!DOCTYPE svg PUBLIC "-//W3C//DTD SVG 1.1//EN" "http://www.w3.org/Graphics/SVG/1.1/DTD/svg11.dtd"><svg class="icon" width="200px" height="200.00px" viewBox="0 0 1024 1024" version="1.1" xmlns="http://www.w3.org/2000/svg"><path d="M748 183.5V0H96v1024h836V183.5z" fill="#383838" /><path d="M932 184H748V0" fill="#6D6D6C" /><path d="M432.7 412l-20-20c-2.9-2.9-7.1-2.9-10 0L291.5 503.3c-1.4 1.4-2.1 3.6-2.1 5s0.7 3.6 2.1 5l111.3 111.3c2.9 2.9 7.1 2.9 10 0l20-20c2.9-2.9 2.9-7.1 0-10L347.1 509l85.6-85.6c2.9-3.6 2.9-8.6 0-11.4z m304.6 91.3L626.7 392c-2.9-2.9-7.1-2.9-10 0l-20 20c-2.9 2.9-2.9 7.1 0 10l85.6 85.6-85.6 85.6c-2.9 2.9-2.9 7.1 0 10l20 20c2.9 2.9 7.1 2.9 10 0L738 511.9c1.4-1.4 2.1-3.6 2.1-5-0.6-0.7-1.3-2.2-2.8-3.6z m-169-156.9c-11.4-3.6-23.5 2.9-27.1 13.6l-92.7 284.6c-3.6 11.4 2.9 23.5 13.6 27.1 10.7 3.6 23.5-2.9 27.1-13.6l92.7-285.4c3.5-10.6-2.2-22.8-13.6-26.3z" fill="#FFFFFF" /></svg>