<?xml version="1.0" standalone="no"?><!DOCTYPE svg PUBLIC "-//W3C//DTD SVG 1.1//EN" "http://www.w3.org/Graphics/SVG/1.1/DTD/svg11.dtd"><svg class="icon" width="200px" height="200.00px" viewBox="0 0 1024 1024" version="1.1" xmlns="http://www.w3.org/2000/svg"><path d="M748 183.5V0H96v1024h836V183.5z" fill="#F74B4B" /><path d="M932 184H748V0" fill="#FF8A8A" /><path d="M678.4 556.9v-35.7h-35.7V277h-6.5v244.2h-35.7v35.7h-37.9l-48.2-139.4H472l-47.9 139.4H272v6.5h150l-29 84.3h44.1l19.2-54.9h74.3l19.2 54.9h44.1l-29.1-84.3h35.6v35.7h35.7V759h6.5V599.1h35.7v-35.7H754v-6.5h-75.6z m-213.3-0.9l26-84 28.7 84h-54.7zM607 527.7h29.2v29.2H607v-29.2z m0 64.9v-29.2h29.2v29.2H607z m64.9 0h-29.2v-29.2h29.2v29.2z m0-35.7h-29.2v-29.2h29.2v29.2z" fill="#FFFFFF" /></svg>