<?xml version="1.0" standalone="no"?><!DOCTYPE svg PUBLIC "-//W3C//DTD SVG 1.1//EN" "http://www.w3.org/Graphics/SVG/1.1/DTD/svg11.dtd"><svg class="icon" width="200px" height="200.00px" viewBox="0 0 1024 1024" version="1.1" xmlns="http://www.w3.org/2000/svg"><path d="M748 183.5V0H96v1024h836V183.5z" fill="#8CBEBF" /><path d="M932 184H748V0" fill="#B8DDDD" /><path d="M491.2 510.5c0-12.3 10-22.3 22.3-22.3s22.3 10 22.3 22.3-10 22.3-22.3 22.3-22.3-10-22.3-22.3z m22.3-58c-32 0-57.9 25.9-57.9 57.9s25.9 57.9 57.9 57.9 57.9-25.9 57.9-57.9c0-31.9-25.9-57.9-57.9-57.9z m-209.5 58C304 626.2 397.8 720 513.5 720S723 626.2 723 510.5 629.2 301 513.5 301 304 394.8 304 510.5z m209.5-93.6c51.7 0 93.6 41.9 93.6 93.6s-41.9 93.6-93.6 93.6-93.6-41.9-93.6-93.6 41.9-93.6 93.6-93.6z" fill="#FFFFFF" /></svg>