<?xml version="1.0" standalone="no"?><!DOCTYPE svg PUBLIC "-//W3C//DTD SVG 1.1//EN" "http://www.w3.org/Graphics/SVG/1.1/DTD/svg11.dtd"><svg class="icon" width="200px" height="200.00px" viewBox="0 0 1024 1024" version="1.1" xmlns="http://www.w3.org/2000/svg"><path d="M332.799002 686.081014m-332.799002 0a332.799002 332.799002 0 1 0 665.598003 0 332.799002 332.799002 0 1 0-665.598003 0Z" fill="#D3EFDE" /><path d="M883.19735 1024h-639.99808A141.055577 141.055577 0 0 1 102.399693 883.200422v-742.397772A141.055577 141.055577 0 0 1 243.19927 0.003072h516.350451a89.087733 89.087733 0 0 1 63.231811 25.599923l189.695431 189.695431A38.399885 38.399885 0 0 1 1023.996928 243.202342v639.99808a141.055577 141.055577 0 0 1-140.799578 140.799578zM243.19927 76.802842A63.999808 63.999808 0 0 0 179.199462 140.80265v742.397772A63.999808 63.999808 0 0 0 243.19927 947.20023h639.99808a63.999808 63.999808 0 0 0 63.999808-63.999808V259.074295l-179.199462-179.199463a12.799962 12.799962 0 0 0-8.447975-3.07199z" fill="#434260" /><path d="M279.295162 399.105875h133.887598v29.695911H314.879055v69.119792h83.45575v29.695911H314.879055v97.279708h-35.583893zM437.502687 512.001536c0-72.703782 40.191879-116.479651 98.303706-116.479651s98.559704 43.519869 98.559704 116.479651-40.447879 118.015646-98.559704 118.015646-98.303705-46.079862-98.303706-118.015646z m160.25552 0c0-53.24784-25.599923-85.247744-61.951814-85.247744S474.110578 458.241697 474.110578 512.001536s24.319927 86.78374 61.695815 86.78374S597.758207 563.201382 597.758207 512.001536zM681.469956 399.105875H716.79785l76.799769 132.607602 23.55193 47.871856H819.197542c-1.791995-23.29593-4.607986-51.199846-4.607986-75.263774v-105.215684h33.791899v226.047322h-37.631887l-75.007775-133.3756-23.55193-47.359858h-1.535995c1.791995 23.29593 4.607986 49.407852 4.607986 73.983778v106.49568h-33.791898z" fill="#434260" /></svg>