<?xml version="1.0" standalone="no"?><!DOCTYPE svg PUBLIC "-//W3C//DTD SVG 1.1//EN" "http://www.w3.org/Graphics/SVG/1.1/DTD/svg11.dtd"><svg class="icon" width="200px" height="200.00px" viewBox="0 0 1024 1024" version="1.1" xmlns="http://www.w3.org/2000/svg"><path d="M332.799002 686.081014m-332.799002 0a332.799002 332.799002 0 1 0 665.598003 0 332.799002 332.799002 0 1 0-665.598003 0Z" fill="#CCE4F2" /><path d="M883.19735 1024h-639.99808A141.055577 141.055577 0 0 1 102.399693 883.200422v-742.397772A141.055577 141.055577 0 0 1 243.19927 0.003072h516.350451a89.087733 89.087733 0 0 1 63.231811 25.599923l189.695431 189.695431A38.399885 38.399885 0 0 1 1023.996928 243.202342v639.99808a141.055577 141.055577 0 0 1-140.799578 140.799578zM243.19927 76.802842A63.999808 63.999808 0 0 0 179.199462 140.80265v742.397772A63.999808 63.999808 0 0 0 243.19927 947.20023h639.99808a63.999808 63.999808 0 0 0 63.999808-63.999808V259.074295l-179.199462-179.199463a12.799962 12.799962 0 0 0-8.447975-3.07199z" fill="#434260" /><path d="M216.57535 409.601843h122.879632v25.599923H249.087253v63.999808h76.799769v27.391918h-76.799769v89.343732H216.57535zM358.398925 512.001536c0-66.8158 36.863889-106.75168 90.111729-106.75168s90.367729 39.93588 90.367729 106.75168-37.119889 108.031676-90.367729 108.031676S358.398925 578.049338 358.398925 512.001536z m146.943559 0c0-48.639854-22.527932-78.335765-56.83183-78.335765s-56.063832 28.927913-56.063831 78.335765 22.271933 79.615761 56.57583 79.615761 57.087829-31.487906 57.087829-79.615761zM569.85429 409.601843h33.5359l68.607794 121.599635 21.759935 44.031868h1.279996c-1.791995-21.503935-4.351987-46.59186-4.351987-69.119792V409.601843h31.231906v207.359378h-33.535899l-68.863794-123.39163-21.759934-43.26387h-1.279996c1.791995 21.503935 4.351987 45.311864 4.351987 67.839797v97.791706h-30.975908zM816.125552 435.201766H755.197734v-25.599923h153.59954v25.599923h-59.903821v179.199463h-32.767901z" fill="#434260" /></svg>