<?xml version="1.0" standalone="no"?><!DOCTYPE svg PUBLIC "-//W3C//DTD SVG 1.1//EN" "http://www.w3.org/Graphics/SVG/1.1/DTD/svg11.dtd"><svg class="icon" width="200px" height="200.00px" viewBox="0 0 1024 1024" version="1.1" xmlns="http://www.w3.org/2000/svg"><path d="M332.799002 686.081014m-332.799002 0a332.799002 332.799002 0 1 0 665.598003 0 332.799002 332.799002 0 1 0-665.598003 0Z" fill="#DFDFF2" /><path d="M883.19735 1024h-639.99808A141.055577 141.055577 0 0 1 102.399693 883.200422v-742.397772A141.055577 141.055577 0 0 1 243.19927 0.003072h516.350451a89.087733 89.087733 0 0 1 63.231811 25.599923l189.695431 189.695431A38.399885 38.399885 0 0 1 1023.996928 243.202342v639.99808a141.055577 141.055577 0 0 1-140.799578 140.799578zM243.19927 76.802842A63.999808 63.999808 0 0 0 179.199462 140.80265v742.397772A63.999808 63.999808 0 0 0 243.19927 947.20023h639.99808a63.999808 63.999808 0 0 0 63.999808-63.999808V259.074295l-179.199462-179.199463a12.799962 12.799962 0 0 0-8.447975-3.07199z" fill="#434260" /><path d="M287.999136 399.105875h133.887598v29.695911h-98.303705v69.119792h83.45575v29.695911h-83.45575v97.279708h-35.583893zM446.206661 512.001536c0-72.703782 40.191879-116.479651 98.303705-116.479651s98.559704 43.519869 98.559705 116.479651-40.447879 118.015646-98.559705 118.015646-98.303705-46.079862-98.303705-118.015646z m160.25552 0c0-53.24784-25.599923-85.247744-61.951815-85.247744S482.814552 458.241697 482.814552 512.001536s24.319927 86.78374 61.695814 86.78374S606.462181 563.201382 606.462181 512.001536zM813.565559 625.153197l-51.199846-91.135727h-36.60789v91.135727H691.197926v-226.047322h73.983778c46.59186 0 81.663755 16.63995 81.663755 65.279804a62.975811 62.975811 0 0 1-47.359857 64.767806l55.295834 95.743712z m-87.807736-119.807641h34.047898c32.767902 0 51.199846-13.567959 51.199846-40.703878s-17.919946-36.863889-51.199846-36.863889h-34.047898z" fill="#434260" /></svg>