<?xml version="1.0" standalone="no"?><!DOCTYPE svg PUBLIC "-//W3C//DTD SVG 1.1//EN" "http://www.w3.org/Graphics/SVG/1.1/DTD/svg11.dtd"><svg class="icon" width="200px" height="200.00px" viewBox="0 0 1024 1024" version="1.1" xmlns="http://www.w3.org/2000/svg"><path d="M332.799002 686.081014m-332.799002 0a332.799002 332.799002 0 1 0 665.598003 0 332.799002 332.799002 0 1 0-665.598003 0Z" fill="#F4EFC9" /><path d="M883.19735 1024h-639.99808A141.055577 141.055577 0 0 1 102.399693 883.200422v-742.397772A141.055577 141.055577 0 0 1 243.19927 0.003072h516.350451a89.087733 89.087733 0 0 1 63.231811 25.599923l189.695431 189.695431A38.399885 38.399885 0 0 1 1023.996928 243.202342v639.99808a141.055577 141.055577 0 0 1-140.799578 140.799578zM243.19927 76.802842A63.999808 63.999808 0 0 0 179.199462 140.80265v742.397772A63.999808 63.999808 0 0 0 243.19927 947.20023h639.99808a63.999808 63.999808 0 0 0 63.999808-63.999808V259.074295l-179.199462-179.199463a12.799962 12.799962 0 0 0-8.447975-3.07199z" fill="#434260" /><path d="M297.727107 598.017278l17.151948-22.783932a72.959781 72.959781 0 0 0 53.50384 25.599924A37.887886 37.887886 0 0 0 411.390766 563.201382c0-25.599923-15.871952-41.471876-66.8158-41.471875v-25.599923c44.543866 0 59.135823-16.895949 59.135823-39.679881a31.487906 31.487906 0 0 0-34.815896-32.767902 66.047802 66.047802 0 0 0-45.055865 21.503935l-18.431944-22.015934a95.231714 95.231714 0 0 1 64.767805-27.391917c40.447879 0 69.119793 20.991937 69.119793 58.367825a54.527836 54.527836 0 0 1-38.911883 53.24784v1.535995A57.087829 57.087829 0 0 1 446.974659 563.201382c0 40.959877-34.047898 64.767806-76.79977 64.767806a93.695719 93.695719 0 0 1-72.447782-29.95191zM481.790555 512.001536c0-73.727779 45.567863-118.015646 105.215684-118.015646a90.11173 90.11173 0 0 1 67.327798 28.671914l-19.455942 22.783932a61.183816 61.183816 0 0 0-46.079861-19.455942c-41.983874 0-69.88779 32.511902-69.887791 85.759743s25.599923 86.52774 71.423786 86.52774a56.063832 56.063832 0 0 0 35.583893-11.007967v-53.24784h-45.311864v-29.183913h76.79977v98.047706a102.399693 102.399693 0 0 1-71.423786 25.599924c-60.415819 0.767998-104.191687-41.727875-104.191687-116.479651zM692.989921 604.673258c66.5598-58.879823 101.119697-102.399693 101.119697-140.03158a36.863889 36.863889 0 0 0-38.399885-41.471876 61.183816 61.183816 0 0 0-44.543866 25.599924l-19.967941-20.22394a88.575734 88.575734 0 0 1 68.863794-33.791898 63.999808 63.999808 0 0 1 68.095796 67.839796c0 43.519869-34.815896 88.831734-82.687752 134.399597 11.775965 0 25.599923-2.047994 36.863889-2.047994h56.57583v30.20791h-145.919562z" fill="#434260" /></svg>