<?xml version="1.0" standalone="no"?><!DOCTYPE svg PUBLIC "-//W3C//DTD SVG 1.1//EN" "http://www.w3.org/Graphics/SVG/1.1/DTD/svg11.dtd"><svg class="icon" width="200px" height="200.00px" viewBox="0 0 1024 1024" version="1.1" xmlns="http://www.w3.org/2000/svg"><path d="M332.799002 686.081014m-332.799002 0a332.799002 332.799002 0 1 0 665.598003 0 332.799002 332.799002 0 1 0-665.598003 0Z" fill="#DFDFF2" /><path d="M883.19735 1024h-639.99808A141.055577 141.055577 0 0 1 102.399693 883.200422v-742.397772A141.055577 141.055577 0 0 1 243.19927 0.003072h516.350451a89.087733 89.087733 0 0 1 63.231811 25.599923l189.695431 189.695431A38.399885 38.399885 0 0 1 1023.996928 243.202342v639.99808a141.055577 141.055577 0 0 1-140.799578 140.799578zM243.19927 76.802842A63.999808 63.999808 0 0 0 179.199462 140.80265v742.397772A63.999808 63.999808 0 0 0 243.19927 947.20023h639.99808a63.999808 63.999808 0 0 0 63.999808-63.999808V259.074295l-179.199462-179.199463a12.799962 12.799962 0 0 0-8.447975-3.07199z" fill="#434260" /><path d="M281.599155 598.017278l17.151949-22.783932a72.959781 72.959781 0 0 0 53.503839 25.599924A37.887886 37.887886 0 0 0 396.286811 563.201382c0-25.599923-15.871952-41.471876-66.815799-41.471875v-25.599923c44.543866 0 59.135823-16.895949 59.135822-39.679881a31.487906 31.487906 0 0 0-34.815895-32.767902 66.047802 66.047802 0 0 0-45.055865 21.503935l-18.431945-22.015934a95.231714 95.231714 0 0 1 64.767806-27.391917c40.447879 0 69.119793 20.991937 69.119792 58.367825A54.527836 54.527836 0 0 1 383.998848 506.369553v1.535995A57.087829 57.087829 0 0 1 431.870704 563.201382c0 40.959877-34.047898 64.767806-76.799769 64.767806A93.695719 93.695719 0 0 1 281.599155 598.017278zM466.6866 512.001536c0-73.727779 45.567863-118.015646 105.215684-118.015646A90.11173 90.11173 0 0 1 639.99808 423.425802l-19.455942 22.783931a61.183816 61.183816 0 0 0-46.59186-20.223939c-41.983874 0-69.88779 32.511902-69.88779 85.759743s25.599923 86.52774 71.423786 86.52774a56.063832 56.063832 0 0 0 35.583893-11.007967v-53.24784h-45.567864v-29.183913h76.79977v98.047706a102.399693 102.399693 0 0 1-71.423786 25.599924c-60.415819 0.767998-104.191687-41.727875-104.191687-116.479651zM694.269917 399.105875h68.351795c51.199846 0 86.271741 17.151949 86.271741 68.095795s-35.839892 72.191783-84.991745 72.191784h-34.047898v85.759743h-35.583893zM760.573718 512.001536c36.351891 0 53.503839-13.823959 53.50384-43.519869s-18.687944-39.679881-54.527837-39.679881h-29.695911V512.001536z" fill="#434260" /></svg>