<?xml version="1.0" standalone="no"?><!DOCTYPE svg PUBLIC "-//W3C//DTD SVG 1.1//EN" "http://www.w3.org/Graphics/SVG/1.1/DTD/svg11.dtd"><svg class="icon" width="200px" height="200.00px" viewBox="0 0 1024 1024" version="1.1" xmlns="http://www.w3.org/2000/svg"><path d="M332.799002 686.081014m-332.799002 0a332.799002 332.799002 0 1 0 665.598003 0 332.799002 332.799002 0 1 0-665.598003 0Z" fill="#FFDCEE" /><path d="M883.19735 1024h-639.99808A141.055577 141.055577 0 0 1 102.399693 883.200422v-742.397772A141.055577 141.055577 0 0 1 243.19927 0.003072h516.350451a89.087733 89.087733 0 0 1 63.231811 25.599923l189.695431 189.695431A38.399885 38.399885 0 0 1 1023.996928 243.202342v639.99808a141.055577 141.055577 0 0 1-140.799578 140.799578zM243.19927 76.802842A63.999808 63.999808 0 0 0 179.199462 140.80265v742.397772A63.999808 63.999808 0 0 0 243.19927 947.20023h639.99808a63.999808 63.999808 0 0 0 63.999808-63.999808V259.074295l-179.199462-179.199463a12.799962 12.799962 0 0 0-8.447975-3.07199z" fill="#434260" /><path d="M198.655404 399.105875h35.583893v92.159723h96.76771v-92.159723h35.583893v226.047322h-35.583893v-102.399693H234.239297v102.399693H198.655404zM451.582645 428.801786H383.998848v-29.695911h168.447495v29.695911H486.398541v196.095411h-34.815896zM577.534267 399.105875h40.959878L659.710021 512.001536c5.119985 15.103955 9.727971 30.463909 15.103955 45.823863h1.535995c5.119985-15.359954 9.471972-30.719908 14.847955-45.823863l40.959878-114.175657h40.959877v226.047321h-33.279901V512.001536c0-20.223939 2.815992-49.407852 4.607987-69.88779l-18.175946 51.199846-39.423882 107.775677h-22.015933l-39.679881-107.775677-17.919947-51.199846c1.535995 20.479939 4.351987 49.663851 4.351987 69.88779v111.871664h-34.047898zM796.66961 399.105875h35.583893v195.839412h95.487714v30.20791h-131.071607z" fill="#434260" /></svg>