<?xml version="1.0" standalone="no"?><!DOCTYPE svg PUBLIC "-//W3C//DTD SVG 1.1//EN" "http://www.w3.org/Graphics/SVG/1.1/DTD/svg11.dtd"><svg t="1594398223510" class="icon" viewBox="0 0 1024 1024" version="1.1" xmlns="http://www.w3.org/2000/svg" p-id="12436" xmlns:xlink="http://www.w3.org/1999/xlink" width="200" height="200"><defs><style type="text/css"></style></defs><path d="M608.662 707.66a144.852 144.852 0 0 1 15.024-36.245l-26.942-26.942 52.529-52.529 26.94 26.94a144.806 144.806 0 0 1 36.247-15.024V564.8h74.287v39.072a144.826 144.826 0 0 1 37.092 15.535l27.463-27.463 52.53 52.529-27.836 27.835a144.835 144.835 0 0 1 14.508 35.352H929.6v74.287h-39.096a144.852 144.852 0 0 1-15.007 36.221l28.334 28.334-52.529 52.53-28.322-28.32a144.809 144.809 0 0 1-36.233 15.028v39.06H712.46v-39.048a144.792 144.792 0 0 1-35.38-14.527l-27.807 27.806-52.529-52.529 27.449-27.448a144.869 144.869 0 0 1-15.53-37.104H569.6v-74.29h39.062z m271.992-158.3a238.908 238.908 0 0 0-55.015-25.852V86.857H362.367a82.98 82.98 0 0 1 4.87 28.099v53.52c0 45.816-37.073 82.956-82.872 82.956h-54.293a82.716 82.716 0 0 1-27.866-4.812v690.523h397.07C640.772 971.413 693.98 992 752 992c37.046 0 72.132-8.393 103.462-23.383C840.534 983.089 820.184 992 797.766 992h-567.68c-45.78 0-82.886-37.19-82.886-82.889V217.933L333.133 32h464.623c45.782 0 82.896 37.19 82.896 82.889V549.36z m-126.861-37.353L752 512a241.203 241.203 0 0 0-46.848 4.57H289.275c-15.156 0-27.446-12.274-27.47-27.428a27.394 27.394 0 0 1 27.47-27.427H738.58c15.154 0 27.447 12.271 27.468 27.427a27.394 27.394 0 0 1-12.254 22.865z m-186.588 86.847a240.084 240.084 0 0 0-34.224 54.864H289.275c-15.156 0-27.446-12.274-27.47-27.428a27.394 27.394 0 0 1 27.47-27.436h277.93z m-54.68 137.148A243.588 243.588 0 0 0 512 752c0 13.229 1.07 26.208 3.13 38.856H289.275c-15.156 0-27.446-12.271-27.47-27.427a27.394 27.394 0 0 1 27.47-27.427h223.248z m-250.72-384a27.394 27.394 0 0 1 27.47-27.428H738.58c15.154 0 27.447 12.274 27.468 27.428a27.394 27.394 0 0 1-27.468 27.43H289.275c-15.156 0-27.446-12.274-27.47-27.43z m487.8 484.233c51.283 0 92.858-41.575 92.858-92.858 0-51.288-41.575-92.861-92.858-92.861-51.286 0-92.861 41.575-92.861 92.86 0 51.284 41.575 92.86 92.86 92.86z" fill="#2C2C2C" p-id="12437"></path></svg>