<?xml version="1.0" standalone="no"?><!DOCTYPE svg PUBLIC "-//W3C//DTD SVG 1.1//EN" "http://www.w3.org/Graphics/SVG/1.1/DTD/svg11.dtd"><svg class="icon" width="200px" height="200.00px" viewBox="0 0 1024 1024" version="1.1" xmlns="http://www.w3.org/2000/svg"><path d="M332.799002 686.081014m-332.799002 0a332.799002 332.799002 0 1 0 665.598003 0 332.799002 332.799002 0 1 0-665.598003 0Z" fill="#F4EFC9" /><path d="M215.551353 591.617297l25.599924-18.175945a39.93588 39.93588 0 0 0 36.60789 25.599923c22.783932 0 34.047898-12.287963 34.047898-45.311864v-153.599539h35.583893v156.927529c0 40.447879-19.711941 72.959781-65.791803 72.959781a69.375792 69.375792 0 0 1-66.047802-38.399885zM391.934824 399.105875H460.798618c51.199846 0 86.271741 17.151949 86.271741 68.095795S511.998464 539.393454 460.798618 539.393454h-33.279901v85.759743h-35.583893zM458.238625 512.001536c36.351891 0 53.503839-13.823959 53.50384-43.519869s-18.687944-39.679881-54.527837-39.679881H427.518717V512.001536zM578.814264 399.105875h133.631599v29.695911H614.398157v62.975811h82.943751v30.207909H614.398157v72.959781h102.399693v30.20791h-137.983586zM734.973795 512.001536c0-73.727779 45.567863-118.015646 105.215684-118.015646a90.11173 90.11173 0 0 1 67.327798 28.671914l-19.455941 22.783932a61.183816 61.183816 0 0 0-46.59186-20.22394c-41.983874 0-69.88779 32.511902-69.887791 85.759743s25.599923 86.52774 71.423786 86.52774a56.063832 56.063832 0 0 0 35.583893-11.007966v-52.479843h-44.799865v-29.183913h76.799769v98.047706a102.399693 102.399693 0 0 1-71.423785 25.599924c-60.415819 0.767998-104.191687-41.727875-104.191688-116.479651z" fill="#434260" /><path d="M883.19735 1024h-639.99808A141.055577 141.055577 0 0 1 102.399693 883.200422v-742.397772A141.055577 141.055577 0 0 1 243.19927 0.003072h516.350451a89.087733 89.087733 0 0 1 63.231811 25.599923l189.695431 189.695431A38.399885 38.399885 0 0 1 1023.996928 243.202342v639.99808a141.055577 141.055577 0 0 1-140.799578 140.799578zM243.19927 76.802842A63.999808 63.999808 0 0 0 179.199462 140.80265v742.397772A63.999808 63.999808 0 0 0 243.19927 947.20023h639.99808a63.999808 63.999808 0 0 0 63.999808-63.999808V259.074295l-179.199462-179.199463a12.799962 12.799962 0 0 0-8.447975-3.07199z" fill="#434260" /></svg>