<?xml version="1.0" standalone="no"?><!DOCTYPE svg PUBLIC "-//W3C//DTD SVG 1.1//EN" "http://www.w3.org/Graphics/SVG/1.1/DTD/svg11.dtd"><svg class="icon" width="200px" height="200.00px" viewBox="0 0 1024 1024" version="1.1" xmlns="http://www.w3.org/2000/svg"><path d="M332.799002 686.081014m-332.799002 0a332.799002 332.799002 0 1 0 665.598003 0 332.799002 332.799002 0 1 0-665.598003 0Z" fill="#FFDCEE" /><path d="M883.19735 1024h-639.99808A141.055577 141.055577 0 0 1 102.399693 883.200422v-742.397772A141.055577 141.055577 0 0 1 243.19927 0.003072h516.350451a89.087733 89.087733 0 0 1 63.231811 25.599923l189.695431 189.695431A38.399885 38.399885 0 0 1 1023.996928 243.202342v639.99808a141.055577 141.055577 0 0 1-140.799578 140.799578zM243.19927 76.802842A63.999808 63.999808 0 0 0 179.199462 140.80265v742.397772A63.999808 63.999808 0 0 0 243.19927 947.20023h639.99808a63.999808 63.999808 0 0 0 63.999808-63.999808V259.074295l-179.199462-179.199463a12.799962 12.799962 0 0 0-8.447975-3.07199z" fill="#434260" /><path d="M276.991169 591.617297l25.599923-18.175945a39.93588 39.93588 0 0 0 36.60789 25.599923c22.783932 0 34.047898-12.287963 34.047898-45.567863v-153.59954h35.583894v156.92753c0 40.447879-19.711941 72.959781-65.791803 72.959781a69.375792 69.375792 0 0 1-66.047802-38.143886zM466.430601 399.105875h68.607794c51.199846 0 86.271741 17.151949 86.271741 68.095795s-35.839892 72.191783-84.991745 72.191784h-34.303897v85.759743h-35.583893zM532.734402 512.001536c36.351891 0 53.503839-13.823959 53.503839-43.519869s-18.687944-39.679881-54.527836-39.679881h-29.695911V512.001536zM653.054041 512.001536c0-73.727779 45.567863-118.015646 105.215684-118.015646a90.11173 90.11173 0 0 1 67.327798 28.671914l-19.455941 22.783932a60.927817 60.927817 0 0 0-46.591861-20.22394c-41.983874 0-69.88779 32.511902-69.88779 85.759743s25.599923 86.52774 71.423786 86.52774a56.063832 56.063832 0 0 0 35.583893-11.007966v-52.479843h-44.799866v-29.183913h76.79977v98.047706a102.399693 102.399693 0 0 1-71.423786 25.599924c-60.415819 0.767998-104.191687-41.727875-104.191687-116.479651z" fill="#434260" /></svg>