<?xml version="1.0" standalone="no"?><!DOCTYPE svg PUBLIC "-//W3C//DTD SVG 1.1//EN" "http://www.w3.org/Graphics/SVG/1.1/DTD/svg11.dtd"><svg class="icon" width="200px" height="200.00px" viewBox="0 0 1024 1024" version="1.1" xmlns="http://www.w3.org/2000/svg"><path d="M332.799002 686.081014m-332.799002 0a332.799002 332.799002 0 1 0 665.598003 0 332.799002 332.799002 0 1 0-665.598003 0Z" fill="#CCE4F2" /><path d="M883.19735 1024h-639.99808A141.055577 141.055577 0 0 1 102.399693 883.200422v-742.397772A141.055577 141.055577 0 0 1 243.19927 0.003072h516.350451a89.087733 89.087733 0 0 1 63.231811 25.599923l189.695431 189.695431A38.399885 38.399885 0 0 1 1023.996928 243.202342v639.99808a141.055577 141.055577 0 0 1-140.799578 140.799578zM243.19927 76.802842A63.999808 63.999808 0 0 0 179.199462 140.80265v742.397772A63.999808 63.999808 0 0 0 243.19927 947.20023h639.99808a63.999808 63.999808 0 0 0 63.999808-63.999808V259.074295l-179.199462-179.199463a12.799962 12.799962 0 0 0-8.447975-3.07199z" fill="#434260" /><path d="M303.103091 399.105875h35.583893v106.751679l86.015742-106.751679h39.679881L395.006815 486.401613l81.663755 138.751584h-39.423882l-63.999808-110.591669-34.815895 42.495873v68.095796h-35.327894zM486.398541 595.969284l20.991937-25.599923a87.551737 87.551737 0 0 0 60.159819 25.599923c27.391918 0 42.751872-12.799962 42.751872-31.999904s-15.359954-27.135919-36.351891-36.351891l-31.231906-13.567959a65.023805 65.023805 0 0 1-46.079862-59.135823 67.071799 67.071799 0 0 1 74.239777-62.207813 96.76771 96.76771 0 0 1 69.119793 30.719908l-18.687944 22.783931a71.935784 71.935784 0 0 0-49.663851-20.223939c-23.039931 0-38.143886 11.007967-38.143886 29.183912s18.175945 25.599923 36.607891 34.047898l30.975907 13.31196A62.975811 62.975811 0 0 1 646.398061 563.201382c0 36.351891-29.95191 65.791803-79.615761 65.791803A112.639662 112.639662 0 0 1 486.398541 595.969284zM689.149933 399.105875h68.351794c51.199846 0 86.271741 17.151949 86.271742 68.095795s-35.839892 72.191783-84.991745 72.191784h-34.047898v85.759743h-35.583893zM755.453734 512.001536c36.351891 0 53.503839-13.823959 53.503839-43.519869s-18.687944-39.679881-54.527836-39.679881h-29.695911V512.001536z" fill="#434260" /></svg>