<?xml version="1.0" standalone="no"?><!DOCTYPE svg PUBLIC "-//W3C//DTD SVG 1.1//EN" "http://www.w3.org/Graphics/SVG/1.1/DTD/svg11.dtd"><svg t="1594836065396" class="icon" viewBox="0 0 1024 1024" version="1.1" xmlns="http://www.w3.org/2000/svg" p-id="1581" xmlns:xlink="http://www.w3.org/1999/xlink" width="200" height="200"><defs><style type="text/css"></style></defs><path d="M591.725311 973.686081 414.388393 697.765891 18.855988 584.853261c-10.028401-2.830465-17.3389-11.287067-18.630313-21.47715-1.299599-10.152221 3.665483-20.10285 12.667507-25.328875l919.031297-532.173458c9.253758-5.338588 20.983917-4.563946 29.435403 2.010797 8.458649 6.597255 11.901051 17.633612 8.707312 27.76332L749.619411 735.335554c-4.239558 13.515828-32.228005 32.637328-66.818825 22.908756-32.745798-9.209756-41.128723-48.879244-36.839023-62.421678l161.180959-488.22348L235.696618 538.654057l246.64647 69.707618c6.107091 1.732457 11.348466 5.615904 14.765285 10.914584l194.823174 302.386982c7.728008 12.001335 9.634428 47.977711-23.523763 66.198701C630.544431 1008.66985 596.710859 981.420229 591.725311 973.686081z" p-id="1582"></path></svg>