<?xml version="1.0" standalone="no"?><!DOCTYPE svg PUBLIC "-//W3C//DTD SVG 1.1//EN" "http://www.w3.org/Graphics/SVG/1.1/DTD/svg11.dtd"><svg t="1594399407223" class="icon" viewBox="0 0 1024 1024" version="1.1" xmlns="http://www.w3.org/2000/svg" p-id="18199" xmlns:xlink="http://www.w3.org/1999/xlink" width="200" height="200"><defs><style type="text/css"></style></defs><path d="M407.616 685.12c-24.64 25.024-23.872 65.344 1.728 89.344L538.688 896 448 896 383.68 896 256 896c-105.984 0-192-86.016-192-192L64 320c0-105.984 86.016-192 192-192l512 0c105.984 0 192 86.016 192 192l0 344.064C922.688 597.376 845.312 576 767.872 576L768 384c0-23.488-28.48-35.136-44.992-18.432L407.616 685.12z" p-id="18200" fill="#515151"></path><path d="M940.48 992C915.136 842.496 896 790.848 704 790.848l0 86.976c0 6.784-0.832 12.992-6.144 15.616-1.92 0.768-2.496 1.344-4.224 1.344-3.648 0-6.784-1.792-9.472-5.056l-168.256-158.08c-5.504-6.592-5.376-17.344 0.128-23.936l168.64-158.848c3.968-4.672 8-6.272 13.248-3.648S704 554.112 704 560.96l0 92.352C896 653.312 998.912 760.192 940.48 992z" p-id="18201" fill="#515151"></path></svg>