<?xml version="1.0" standalone="no"?><!DOCTYPE svg PUBLIC "-//W3C//DTD SVG 1.1//EN" "http://www.w3.org/Graphics/SVG/1.1/DTD/svg11.dtd"><svg class="icon" width="200px" height="200.00px" viewBox="0 0 1024 1024" version="1.1" xmlns="http://www.w3.org/2000/svg"><path d="M332.799002 686.081014m-332.799002 0a332.799002 332.799002 0 1 0 665.598003 0 332.799002 332.799002 0 1 0-665.598003 0Z" fill="#CCE4F2" /><path d="M883.19735 1024h-639.99808A141.055577 141.055577 0 0 1 102.399693 883.200422v-742.397772A141.055577 141.055577 0 0 1 243.19927 0.003072h516.350451a89.087733 89.087733 0 0 1 63.231811 25.599923l189.695431 189.695431A38.399885 38.399885 0 0 1 1023.996928 243.202342v639.99808a141.055577 141.055577 0 0 1-140.799578 140.799578zM243.19927 76.802842A63.999808 63.999808 0 0 0 179.199462 140.80265v742.397772A63.999808 63.999808 0 0 0 243.19927 947.20023h639.99808a63.999808 63.999808 0 0 0 63.999808-63.999808V259.074295l-179.199462-179.199463a12.799962 12.799962 0 0 0-8.447975-3.07199z" fill="#434260" /><path d="M200.447399 427.26579H230.399309L262.399213 512.001536c3.839988 11.263966 7.423978 22.783932 11.263966 34.303897 3.839988-11.519965 7.167978-23.039931 11.007967-34.303897l30.719908-85.759743h30.975907v169.727491h-25.599923V512.001536c0-15.103955 2.047994-37.119889 3.32799-52.479843l-13.56796 39.167883L281.599155 580.353331h-16.63995L235.519293 499.457574 222.207333 460.80169c0 15.359954 3.32799 37.375888 3.32799 52.479842v83.967748h-25.087924zM368.638894 427.26579h25.599923v69.119793h72.703782v-69.119793h25.599923v169.727491h-25.599923v-76.79977h-71.423786v76.79977h-25.599923zM566.014302 449.537723h-49.663851v-22.271933h126.463621v22.271933h-51.199847v147.199559h-25.599923zM665.598003 427.26579h30.719908L726.269821 512.001536c3.839988 11.263966 7.423978 22.783932 11.263966 34.303897 3.839988-11.519965 7.167978-23.039931 11.007967-34.303897l30.719908-85.759743h30.975907v169.727491h-25.599923V512.001536c0-15.103955 2.047994-37.119889 3.32799-52.479843l-13.567959 39.167883-29.439912 80.895757h-16.63995l-29.695911-80.895757L686.077942 460.80169c0 15.359954 3.32799 37.375888 3.32799 52.479842v83.967748H665.598003zM832.509502 427.26579h25.599924v146.943559h71.679785v22.527933h-97.279709z" fill="#434260" /></svg>