<?xml version="1.0" standalone="no"?><!DOCTYPE svg PUBLIC "-//W3C//DTD SVG 1.1//EN" "http://www.w3.org/Graphics/SVG/1.1/DTD/svg11.dtd"><svg class="icon" width="200px" height="200.00px" viewBox="0 0 1024 1024" version="1.1" xmlns="http://www.w3.org/2000/svg"><path d="M332.799002 686.081014m-332.799002 0a332.799002 332.799002 0 1 0 665.598003 0 332.799002 332.799002 0 1 0-665.598003 0Z" fill="#CCE4F2" /><path d="M883.19735 1024h-639.99808A141.055577 141.055577 0 0 1 102.399693 883.200422v-742.397772A141.055577 141.055577 0 0 1 243.19927 0.003072h516.350451a89.087733 89.087733 0 0 1 63.231811 25.599923l189.695431 189.695431A38.399885 38.399885 0 0 1 1023.996928 243.202342v639.99808a141.055577 141.055577 0 0 1-140.799578 140.799578zM243.19927 76.802842A63.999808 63.999808 0 0 0 179.199462 140.80265v742.397772A63.999808 63.999808 0 0 0 243.19927 947.20023h639.99808a63.999808 63.999808 0 0 0 63.999808-63.999808V259.074295l-179.199462-179.199463a12.799962 12.799962 0 0 0-8.447975-3.07199z" fill="#434260" /><path d="M251.391246 399.105875h40.959877L332.799002 513.281532c5.119985 15.103955 9.727971 30.463909 15.103954 45.823863h1.535996c5.119985-15.359954 9.471972-30.719908 14.847955-45.823863l40.959877-114.175657h41.215877v226.047322h-32.511903v-111.871665c0-20.223939 2.815992-49.407852 4.607986-70.143789l-18.175945 51.199846-39.423882 107.775677h-22.015934l-39.679881-107.775677-17.919946-51.199846c1.535995 20.479939 4.351987 49.663851 4.351987 70.143789v111.871665H251.391246zM483.838548 512.001536c0-72.703782 40.191879-116.479651 98.303706-116.479651s98.559704 43.519869 98.559704 116.479651-40.703878 117.247648-98.559704 117.247648S483.838548 583.93732 483.838548 512.001536z m160.25552 0c0-53.24784-25.599923-85.247744-61.951814-85.247744S520.446439 458.241697 520.446439 512.001536s24.319927 86.78374 61.695815 86.78374S644.094068 563.201382 644.094068 512.001536zM716.79785 399.105875h58.623824c69.375792 0 109.055673 38.399885 109.055673 112.127663s-39.679881 113.919658-106.495681 113.919659H716.79785z m56.319831 196.863409c48.383855 0 74.495777-28.671914 74.495776-84.735746s-25.599923-83.19975-74.495776-83.19975h-20.479939v167.935496z" fill="#434260" /></svg>