<?xml version="1.0" standalone="no"?><!DOCTYPE svg PUBLIC "-//W3C//DTD SVG 1.1//EN" "http://www.w3.org/Graphics/SVG/1.1/DTD/svg11.dtd"><svg class="icon" width="200px" height="200.00px" viewBox="0 0 1024 1024" version="1.1" xmlns="http://www.w3.org/2000/svg"><path d="M332.799002 686.081014m-332.799002 0a332.799002 332.799002 0 1 0 665.598003 0 332.799002 332.799002 0 1 0-665.598003 0Z" fill="#FFDCEE" /><path d="M883.19735 1024h-639.99808A141.055577 141.055577 0 0 1 102.399693 883.200422v-742.397772A141.055577 141.055577 0 0 1 243.19927 0.003072h516.350451a89.087733 89.087733 0 0 1 63.231811 25.599923l189.695431 189.695431A38.399885 38.399885 0 0 1 1023.996928 243.202342v639.99808a141.055577 141.055577 0 0 1-140.799578 140.799578zM243.19927 76.802842A63.999808 63.999808 0 0 0 179.199462 140.80265v742.397772A63.999808 63.999808 0 0 0 243.19927 947.20023h639.99808a63.999808 63.999808 0 0 0 63.999808-63.999808V259.074295l-179.199462-179.199463a12.799962 12.799962 0 0 0-8.447975-3.07199z" fill="#434260" /><path d="M247.551257 399.105875h40.959877l41.471876 114.175657c5.119985 15.103955 9.727971 30.463909 15.103955 45.823863h1.535995c5.119985-15.359954 9.471972-30.719908 14.847956-45.823863l40.959877-114.175657h41.215876v226.047322H409.598771v-111.871665c0-20.223939 2.815992-49.407852 4.607986-70.143789l-18.175945 51.199846-40.19188 109.055673H332.799002l-39.679881-107.775677-17.919947-51.199846c1.535995 20.479939 4.351987 49.663851 4.351987 70.143789v111.871665H247.551257zM490.238529 512.001536c0-72.703782 40.191879-116.479651 98.303705-116.479651s98.559704 43.519869 98.559705 116.479651-40.703878 117.247648-98.303705 117.247648-98.559704-45.311864-98.559705-117.247648z m160.25552 0c0-53.24784-25.599923-85.247744-61.951815-85.247744S526.846419 458.241697 526.846419 512.001536s24.319927 86.78374 61.695815 86.78374S650.494049 563.201382 650.494049 512.001536zM700.413899 399.105875h37.887886l33.535899 116.991649c7.679977 25.599923 12.543962 47.871856 20.479939 73.983778H793.597619c7.679977-25.599923 13.31196-48.127856 20.479939-73.983778l33.535899-116.991649h36.351891l-70.655788 226.047322h-41.983874z" fill="#434260" /></svg>