<?xml version="1.0" standalone="no"?><!DOCTYPE svg PUBLIC "-//W3C//DTD SVG 1.1//EN" "http://www.w3.org/Graphics/SVG/1.1/DTD/svg11.dtd"><svg class="icon" width="200px" height="200.00px" viewBox="0 0 1024 1024" version="1.1" xmlns="http://www.w3.org/2000/svg"><path d="M332.799002 686.081014m-332.799002 0a332.799002 332.799002 0 1 0 665.598003 0 332.799002 332.799002 0 1 0-665.598003 0Z" fill="#D3EFDE" /><path d="M883.19735 1024h-639.99808A141.055577 141.055577 0 0 1 102.399693 883.200422v-742.397772A141.055577 141.055577 0 0 1 243.19927 0.003072h516.350451a89.087733 89.087733 0 0 1 63.231811 25.599923l189.695431 189.695431A38.399885 38.399885 0 0 1 1023.996928 243.202342v639.99808a141.055577 141.055577 0 0 1-140.799578 140.799578zM243.19927 76.802842A63.999808 63.999808 0 0 0 179.199462 140.80265v742.397772A63.999808 63.999808 0 0 0 243.19927 947.20023h639.99808a63.999808 63.999808 0 0 0 63.999808-63.999808V259.074295l-179.199462-179.199463a12.799962 12.799962 0 0 0-8.447975-3.07199z" fill="#434260" /><path d="M278.527164 399.105875h40.959878L360.958917 512.001536c5.119985 15.103955 9.727971 30.463909 15.103955 45.823863h1.535995c5.119985-15.359954 9.471972-30.719908 14.847956-45.823863l40.959877-114.175657h41.215876v226.047321h-33.535899V512.001536c0-20.223939 2.815992-49.407852 4.607986-69.88779l-18.175946 51.199846-39.423881 107.775677h-22.015934l-40.959877-105.727683-17.919947-51.199846c1.535995 20.479939 4.351987 49.663851 4.351987 69.88779v111.871664h-33.023901zM533.502399 399.105875h68.351795c51.199846 0 86.271741 17.151949 86.271742 68.095795s-35.839892 72.191783-84.991745 72.191784h-34.047898v85.759743h-35.583894zM599.806201 512.001536c36.351891 0 53.503839-13.823959 53.503839-43.519869s-18.687944-39.679881-54.527836-39.679881h-29.695911V512.001536zM868.349395 563.201382h-28.927913v60.927818H806.397581V563.201382h-97.791707v-23.551929l89.855731-141.567575h40.703878V537.601459h28.927913z m-61.951814-25.599923v-59.90382c0-12.287963 0-31.231906 1.791994-43.51987-5.631983 11.263966-11.775965 23.039931-18.175945 34.815896L744.189767 537.601459z" fill="#434260" /></svg>