<?xml version="1.0" standalone="no"?><!DOCTYPE svg PUBLIC "-//W3C//DTD SVG 1.1//EN" "http://www.w3.org/Graphics/SVG/1.1/DTD/svg11.dtd"><svg class="icon" width="200px" height="200.00px" viewBox="0 0 1024 1024" version="1.1" xmlns="http://www.w3.org/2000/svg"><path d="M332.799002 686.081014m-332.799002 0a332.799002 332.799002 0 1 0 665.598003 0 332.799002 332.799002 0 1 0-665.598003 0Z" fill="#DFDFF2" /><path d="M883.19735 1024h-639.99808A141.055577 141.055577 0 0 1 102.399693 883.200422v-742.397772A141.055577 141.055577 0 0 1 243.19927 0.003072h516.350451a89.087733 89.087733 0 0 1 63.231811 25.599923l189.695431 189.695431A38.399885 38.399885 0 0 1 1023.996928 243.202342v639.99808a141.055577 141.055577 0 0 1-140.799578 140.799578zM243.19927 76.802842A63.999808 63.999808 0 0 0 179.199462 140.80265v742.397772A63.999808 63.999808 0 0 0 243.19927 947.20023h639.99808a63.999808 63.999808 0 0 0 63.999808-63.999808V259.074295l-179.199462-179.199463a12.799962 12.799962 0 0 0-8.447975-3.07199z" fill="#434260" /><path d="M208.383375 322.306105h40.959877l41.471876 114.175658c5.119985 15.103955 9.727971 30.463909 15.103954 45.823862H307.199078c5.119985-15.359954 9.471972-30.719908 14.847956-45.823862l40.959877-114.175658h41.215876v226.047322h-33.2799v-111.871664c0-20.223939 2.815992-49.407852 4.607986-69.887791l-18.175945 51.199847-39.423882 107.775676h-22.015934L255.999232 418.817816l-17.919946-51.199847c1.535995 20.479939 4.351987 49.663851 4.351987 69.88779v111.871665H208.383375zM427.518717 322.306105h68.351795c51.199846 0 86.271741 17.151949 86.271742 68.095796s-35.839892 72.191783-84.991745 72.191783h-34.047898v85.759743H427.518717zM493.822519 435.201766c36.351891 0 53.503839-13.823959 53.503839-43.519869s-18.687944-39.679881-54.527836-39.679881h-29.695911V435.201766zM600.830198 322.306105h133.631599v29.695911h-98.047706v62.975811h82.943751v30.207909h-82.943751v72.959782h102.399693v30.207909h-137.983586zM742.397773 435.201766c0-73.727779 45.567863-118.015646 105.215684-118.015646a90.11173 90.11173 0 0 1 67.327798 28.671914l-19.455941 22.783932a61.183816 61.183816 0 0 0-46.591861-20.223939c-41.983874 0-69.88779 32.511902-69.88779 85.759742s25.599923 86.52774 71.423786 86.527741a56.063832 56.063832 0 0 0 35.583893-11.007967v-52.479843h-45.055865v-29.183912h76.79977v98.047706a102.399693 102.399693 0 0 1-71.423786 25.599923C785.917642 552.449415 742.397773 509.953542 742.397773 435.201766zM810.493569 769.280764h41.215876v-131.071607H819.197542v-18.687944a114.943655 114.943655 0 0 0 40.959878-14.335957h22.271933v164.095508h36.863889V793.600691h-107.519677z" fill="#434260" /></svg>