<?xml version="1.0" standalone="no"?><!DOCTYPE svg PUBLIC "-//W3C//DTD SVG 1.1//EN" "http://www.w3.org/Graphics/SVG/1.1/DTD/svg11.dtd"><svg class="icon" width="200px" height="200.00px" viewBox="0 0 1024 1024" version="1.1" xmlns="http://www.w3.org/2000/svg"><path d="M332.799002 686.081014m-332.799002 0a332.799002 332.799002 0 1 0 665.598003 0 332.799002 332.799002 0 1 0-665.598003 0Z" fill="#DFDFF2" /><path d="M883.19735 1024h-639.99808A141.055577 141.055577 0 0 1 102.399693 883.200422v-742.397772A141.055577 141.055577 0 0 1 243.19927 0.003072h516.350451a89.087733 89.087733 0 0 1 63.231811 25.599923l189.695431 189.695431A38.399885 38.399885 0 0 1 1023.996928 243.202342v639.99808a141.055577 141.055577 0 0 1-140.799578 140.799578zM243.19927 76.802842A63.999808 63.999808 0 0 0 179.199462 140.80265v742.397772A63.999808 63.999808 0 0 0 243.19927 947.20023h639.99808a63.999808 63.999808 0 0 0 63.999808-63.999808V259.074295l-179.199462-179.199463a12.799962 12.799962 0 0 0-8.447975-3.07199z" fill="#434260" /><path d="M255.999232 399.105875h40.959877l41.471876 114.175657c5.119985 15.103955 9.727971 30.463909 15.103954 45.823863h1.535996c5.119985-15.359954 9.471972-30.719908 14.847955-45.823863l40.959877-114.175657h41.215877v226.047322h-32.511903v-111.871665c0-20.223939 2.815992-49.407852 4.607986-69.88779l-18.175945 51.199846-39.423882 107.775677h-22.015934l-39.679881-107.775677-17.919946-51.199846c1.535995 20.479939 4.351987 49.663851 4.351987 69.88779v111.871665H255.999232zM511.998464 399.105875h68.351795c51.199846 0 86.271741 17.151949 86.271741 68.095795s-35.839892 72.191783-84.991745 72.191784h-34.047898v85.759743H511.998464zM578.302265 512.001536c36.351891 0 53.503839-13.823959 53.50384-43.519869s-18.687944-39.679881-54.527837-39.679881h-29.695911V512.001536zM698.621904 512.001536c0-73.727779 45.567863-118.015646 105.215684-118.015646a90.11173 90.11173 0 0 1 66.559801 29.439912l-19.455942 22.783931a61.183816 61.183816 0 0 0-46.59186-20.223939c-41.983874 0-70.14379 32.511902-70.14379 85.759743s25.599923 86.52774 71.423786 86.52774a56.063832 56.063832 0 0 0 35.583893-11.007967v-53.24784h-43.775868v-29.183913h76.799769v98.047706a102.399693 102.399693 0 0 1-71.423785 25.599924c-60.415819 0.767998-104.191687-41.727875-104.191688-116.479651z" fill="#434260" /></svg>