<?xml version="1.0" standalone="no"?><!DOCTYPE svg PUBLIC "-//W3C//DTD SVG 1.1//EN" "http://www.w3.org/Graphics/SVG/1.1/DTD/svg11.dtd"><svg class="icon" width="200px" height="200.00px" viewBox="0 0 1024 1024" version="1.1" xmlns="http://www.w3.org/2000/svg"><path d="M332.799002 686.081014m-332.799002 0a332.799002 332.799002 0 1 0 665.598003 0 332.799002 332.799002 0 1 0-665.598003 0Z" fill="#F4EFC9" /><path d="M883.19735 1024h-639.99808A141.055577 141.055577 0 0 1 102.399693 883.200422v-742.397772A141.055577 141.055577 0 0 1 243.19927 0.003072h516.350451a89.087733 89.087733 0 0 1 63.231811 25.599923l189.695431 189.695431A38.399885 38.399885 0 0 1 1023.996928 243.202342v639.99808a141.055577 141.055577 0 0 1-140.799578 140.799578zM243.19927 76.802842A63.999808 63.999808 0 0 0 179.199462 140.80265v742.397772A63.999808 63.999808 0 0 0 243.19927 947.20023h639.99808a63.999808 63.999808 0 0 0 63.999808-63.999808V259.074295l-179.199462-179.199463a12.799962 12.799962 0 0 0-8.447975-3.07199z" fill="#434260" /><path d="M272.383183 296.706182h40.959877l41.471876 114.175657c5.119985 15.103955 9.727971 30.463909 15.103954 45.823863h1.535996c5.119985-15.359954 9.471972-30.719908 14.847955-45.823863l40.959877-114.175657h41.215877v226.047322H435.198694v-111.871665c0-20.223939 2.815992-49.407852 4.607987-69.88779l-18.175946 51.199846-39.423882 107.775677H358.398925l-39.679881-107.775677-17.919946-51.199846c1.535995 20.479939 4.351987 49.663851 4.351987 69.88779v111.871665h-32.767902zM527.358418 296.706182h68.351795c51.199846 0 86.271741 17.151949 86.271741 68.095796s-35.839892 72.191783-84.991745 72.191783H563.19831v85.759743h-35.839892zM593.662219 409.601843c36.351891 0 53.503839-13.823959 53.50384-43.519869s-18.687944-39.679881-54.527837-39.679881H563.19831V409.601843zM704.765886 495.617585l17.151948-22.783932a72.959781 72.959781 0 0 0 53.50384 25.599924A37.887886 37.887886 0 0 0 819.197542 460.80169c0-25.599923-15.871952-41.471876-66.815799-41.471876v-25.599923c44.543866 0 59.135823-16.895949 59.135822-39.679881a31.487906 31.487906 0 0 0-34.815895-32.767902 66.047802 66.047802 0 0 0-45.055865 21.503936l-18.431945-22.015934a95.231714 95.231714 0 0 1 64.767806-27.391918c40.447879 0 69.119793 20.991937 69.119793 58.367825a54.527836 54.527836 0 0 1-38.911884 53.24784v1.535995A57.087829 57.087829 0 0 1 854.013438 460.80169c0 40.959877-34.047898 64.767806-76.79977 64.767805a93.695719 93.695719 0 0 1-72.447782-29.95191zM530.942407 582.401325h39.93588c29.439912 0 51.199846 9.98397 51.199847 39.93588S600.318199 665.601075 571.646285 665.601075h-19.96794v51.199847h-20.735938z m38.655884 65.279804c21.247936 0 31.231906-8.191975 31.231907-25.599923s-11.007967-23.039931-31.999904-23.039931h-17.151949v48.639854zM708.605874 714.496929l-29.95191-53.247841h-21.247936v53.247841h-20.735938v-132.095604h43.26387c27.135919 0 47.615857 9.727971 47.615857 38.143885a36.60789 36.60789 0 0 1-27.647917 37.887887l32.255904 56.063832z m-51.199846-69.887791h19.96794c19.199942 0 29.695911-7.935976 29.695911-23.807928s-10.495969-21.503935-29.695911-21.503936h-19.96794zM739.069783 647.937128c0-42.495873 23.551929-67.839796 57.343828-67.839796s57.599827 25.599923 57.599827 67.839796S830.461509 716.800922 796.413611 716.800922s-57.343828-25.599923-57.343828-68.863794z m93.695719 0c0-30.975907-14.335957-49.91985-36.351891-49.91985s-36.095892 18.943943-36.095892 49.91985 14.079958 51.199846 36.095892 51.199847 36.351891-20.223939 36.351891-51.199847z" fill="#434260" /></svg>