<?xml version="1.0" standalone="no"?><!DOCTYPE svg PUBLIC "-//W3C//DTD SVG 1.1//EN" "http://www.w3.org/Graphics/SVG/1.1/DTD/svg11.dtd"><svg class="icon" width="200px" height="200.00px" viewBox="0 0 1024 1024" version="1.1" xmlns="http://www.w3.org/2000/svg"><path d="M332.799002 686.081014m-332.799002 0a332.799002 332.799002 0 1 0 665.598003 0 332.799002 332.799002 0 1 0-665.598003 0Z" fill="#F4EFC9" /><path d="M883.19735 1024h-639.99808A141.055577 141.055577 0 0 1 102.399693 883.200422v-742.397772A141.055577 141.055577 0 0 1 243.19927 0.003072h516.350451a89.087733 89.087733 0 0 1 63.231811 25.599923l189.695431 189.695431A38.399885 38.399885 0 0 1 1023.996928 243.202342v639.99808a141.055577 141.055577 0 0 1-140.799578 140.799578zM243.19927 76.802842A63.999808 63.999808 0 0 0 179.199462 140.80265v742.397772A63.999808 63.999808 0 0 0 243.19927 947.20023h639.99808a63.999808 63.999808 0 0 0 63.999808-63.999808V259.074295l-179.199462-179.199463a12.799962 12.799962 0 0 0-8.447975-3.07199z" fill="#434260" /><path d="M258.303225 397.057881h40.959877L340.478979 512.001536c5.119985 15.103955 9.727971 30.463909 15.103954 45.823863h1.535996c5.119985-15.359954 9.471972-30.719908 14.847955-45.823863l40.959877-114.175657h41.215877v226.047321h-33.5359V512.001536c0-20.223939 2.815992-49.407852 4.607986-70.14379l-18.175945 51.199847-39.423882 107.775677h-22.015934l-39.679881-107.775677-17.919946-51.199847c1.535995 20.479939 4.351987 49.663851 4.351987 70.14379v111.871664h-34.047898zM511.998464 526.081494v-127.999616h35.583893v131.327606c0 51.199846 20.223939 67.583797 48.383855 67.583797s49.407852-16.63995 49.407852-67.583797v-132.351603h34.303897v127.999616c0 73.727779-33.791899 101.119697-83.711749 101.119696S511.998464 599.553273 511.998464 526.081494zM774.909675 506.369553l-60.671818-109.311672h39.679881l27.391918 52.735842c5.631983 10.495969 10.495969 20.479939 17.151949 34.047897h1.535995c5.887982-13.567959 10.239969-23.551929 15.359954-34.047897l25.599923-52.735842h37.375888L819.197542 508.161548l65.023805 114.943655H844.797466l-30.719908-56.319831-18.687944-36.86389c-6.399981 13.823959-12.031964 25.599923-17.407948 36.86389l-28.927913 56.063831h-38.911883z" fill="#434260" /></svg>