<?xml version="1.0" standalone="no"?><!DOCTYPE svg PUBLIC "-//W3C//DTD SVG 1.1//EN" "http://www.w3.org/Graphics/SVG/1.1/DTD/svg11.dtd"><svg class="icon" width="200px" height="200.00px" viewBox="0 0 1024 1024" version="1.1" xmlns="http://www.w3.org/2000/svg"><path d="M332.799002 686.081014m-332.799002 0a332.799002 332.799002 0 1 0 665.598003 0 332.799002 332.799002 0 1 0-665.598003 0Z" fill="#D3EFDE" /><path d="M883.19735 1024h-639.99808A141.055577 141.055577 0 0 1 102.399693 883.200422v-742.397772A141.055577 141.055577 0 0 1 243.19927 0.003072h516.350451a89.087733 89.087733 0 0 1 63.231811 25.599923l189.695431 189.695431A38.399885 38.399885 0 0 1 1023.996928 243.202342v639.99808a141.055577 141.055577 0 0 1-140.799578 140.799578zM243.19927 76.802842A63.999808 63.999808 0 0 0 179.199462 140.80265v742.397772A63.999808 63.999808 0 0 0 243.19927 947.20023h639.99808a63.999808 63.999808 0 0 0 63.999808-63.999808V259.074295l-179.199462-179.199463a12.799962 12.799962 0 0 0-8.447975-3.07199z" fill="#434260" /><path d="M248.575254 399.105875h36.60789l75.007775 132.607602 23.807929 47.871856c-1.791995-23.29593-4.607986-51.199846-4.607986-75.263774v-105.215684h33.791898v226.047322h-35.327894l-75.007775-133.3756-23.551929-47.359858h-1.535995c1.791995 23.29593 4.607986 49.407852 4.607986 73.983778v106.49568H248.575254zM578.302265 560.64139h-78.591764l-19.455942 64.511807h-36.095891l75.007775-226.047322h41.215876l75.007775 226.047322h-37.887887z m-8.703974-27.903916l-8.959973-30.463909c-7.679977-25.599923-14.335957-49.663851-21.503935-75.263774-6.399981 25.599923-13.567959 51.199846-20.991937 75.263774l-9.215973 30.463909zM629.502111 399.105875h37.887887l33.535899 116.991649c7.679977 25.599923 12.543962 47.871856 20.479939 73.983778h1.535995c7.679977-25.599923 13.31196-48.127856 20.479939-73.983778l33.535899-116.991649h36.351891L742.397773 624.897197h-41.983874zM842.237473 399.105875h35.583894v226.047322H842.237473z" fill="#434260" /></svg>