<?xml version="1.0" standalone="no"?><!DOCTYPE svg PUBLIC "-//W3C//DTD SVG 1.1//EN" "http://www.w3.org/Graphics/SVG/1.1/DTD/svg11.dtd"><svg class="icon" width="200px" height="200.00px" viewBox="0 0 1024 1024" version="1.1" xmlns="http://www.w3.org/2000/svg"><path d="M332.799002 686.081014m-332.799002 0a332.799002 332.799002 0 1 0 665.598003 0 332.799002 332.799002 0 1 0-665.598003 0Z" fill="#CCE4F2" /><path d="M883.19735 1024h-639.99808A141.055577 141.055577 0 0 1 102.399693 883.200422v-742.397772A141.055577 141.055577 0 0 1 243.19927 0.003072h516.350451a89.087733 89.087733 0 0 1 63.231811 25.599923l189.695431 189.695431A38.399885 38.399885 0 0 1 1023.996928 243.202342v639.99808a141.055577 141.055577 0 0 1-140.799578 140.799578zM243.19927 76.802842A63.999808 63.999808 0 0 0 179.199462 140.80265v742.397772A63.999808 63.999808 0 0 0 243.19927 947.20023h639.99808a63.999808 63.999808 0 0 0 63.999808-63.999808V259.074295l-179.199462-179.199463a12.799962 12.799962 0 0 0-8.447975-3.07199z" fill="#434260" /><path d="M251.647245 512.001536c0-72.703782 40.191879-116.479651 98.303705-116.479651s98.559704 43.519869 98.559704 116.479651-40.447879 118.015646-98.559704 118.015646-98.303705-46.079862-98.303705-118.015646z m160.255519 0c0-53.24784-25.599923-85.247744-61.951814-85.247744S288.255135 458.241697 288.255135 512.001536s24.319927 86.78374 61.695815 86.78374S411.902764 563.201382 411.902764 512.001536zM483.32655 512.001536c0-73.727779 45.567863-118.015646 105.215684-118.015646a90.11173 90.11173 0 0 1 67.327798 28.671914l-19.455941 22.783932a61.183816 61.183816 0 0 0-47.615857-19.455942c-41.983874 0-69.88779 32.511902-69.887791 85.759743s25.599923 86.52774 71.423786 86.52774a56.063832 56.063832 0 0 0 35.583893-11.007967v-53.24784h-43.775868v-29.183913h76.799769v98.047706a102.399693 102.399693 0 0 1-71.423786 25.599924c-60.15982 0.767998-104.191687-41.727875-104.191687-116.479651zM698.621904 512.001536c0-73.727779 45.567863-118.015646 105.215684-118.015646a90.11173 90.11173 0 0 1 66.559801 29.439912l-19.455942 22.783931a61.183816 61.183816 0 0 0-46.59186-20.223939c-41.983874 0-69.88779 32.511902-69.88779 85.759743s25.599923 86.52774 71.423785 86.52774a56.063832 56.063832 0 0 0 35.583894-11.007967v-53.24784h-43.775869v-29.183913h76.79977v98.047706a102.399693 102.399693 0 0 1-71.423786 25.599924c-60.671818 0.767998-104.447687-41.727875-104.447687-116.479651z" fill="#434260" /></svg>