<?xml version="1.0" standalone="no"?><!DOCTYPE svg PUBLIC "-//W3C//DTD SVG 1.1//EN" "http://www.w3.org/Graphics/SVG/1.1/DTD/svg11.dtd"><svg class="icon" width="200px" height="200.00px" viewBox="0 0 1024 1024" version="1.1" xmlns="http://www.w3.org/2000/svg"><path d="M332.799002 686.081014m-332.799002 0a332.799002 332.799002 0 1 0 665.598003 0 332.799002 332.799002 0 1 0-665.598003 0Z" fill="#DFDFF2" /><path d="M883.19735 1024h-639.99808A141.055577 141.055577 0 0 1 102.399693 883.200422v-742.397772A141.055577 141.055577 0 0 1 243.19927 0.003072h516.350451a89.087733 89.087733 0 0 1 63.231811 25.599923l189.695431 189.695431A38.399885 38.399885 0 0 1 1023.996928 243.202342v639.99808a141.055577 141.055577 0 0 1-140.799578 140.799578zM243.19927 76.802842A63.999808 63.999808 0 0 0 179.199462 140.80265v742.397772A63.999808 63.999808 0 0 0 243.19927 947.20023h639.99808a63.999808 63.999808 0 0 0 63.999808-63.999808V259.074295l-179.199462-179.199463a12.799962 12.799962 0 0 0-8.447975-3.07199z" fill="#434260" /><path d="M310.01507 399.105875h68.351795c51.199846 0 86.271741 17.151949 86.271741 68.095795s-35.839892 72.191783-84.991745 72.191784H345.598963v85.759743h-35.583893zM376.318871 512.001536c36.351891 0 53.503839-13.823959 53.50384-43.519869s-18.687944-39.679881-54.527837-39.679881H345.598963V512.001536zM595.966212 560.64139h-78.591764l-19.455942 64.511807H460.798618l76.799769-226.047322h41.215877l75.007775 226.047322H614.398157z m-8.703974-27.903916l-8.959973-30.463909c-7.679977-25.599923-14.335957-49.663851-21.503935-75.263774-6.399981 25.599923-13.567959 51.199846-20.991937 75.263774l-9.215973 30.463909zM665.598003 595.969284l20.991937-25.599923a87.551737 87.551737 0 0 0 60.15982 25.599923c27.391918 0 42.751872-12.799962 42.751871-31.999904s-15.359954-27.135919-36.35189-36.351891l-31.231907-13.567959a65.023805 65.023805 0 0 1-46.079862-59.135823 67.071799 67.071799 0 0 1 74.239778-62.207813 96.76771 96.76771 0 0 1 69.119792 30.719908l-18.687944 22.783931a72.191783 72.191783 0 0 0-49.663851-20.223939c-23.039931 0-38.143886 11.007967-38.143885 29.183912s18.175945 25.599923 36.60789 34.047898l30.975907 13.31196A63.23181 63.23181 0 0 1 826.62152 563.201382c0 36.351891-29.95191 65.791803-79.615761 65.791803A112.639662 112.639662 0 0 1 665.598003 595.969284z" fill="#434260" /></svg>