<?xml version="1.0" standalone="no"?><!DOCTYPE svg PUBLIC "-//W3C//DTD SVG 1.1//EN" "http://www.w3.org/Graphics/SVG/1.1/DTD/svg11.dtd"><svg class="icon" width="200px" height="200.00px" viewBox="0 0 1024 1024" version="1.1" xmlns="http://www.w3.org/2000/svg"><path d="M332.799002 686.081014m-332.799002 0a332.799002 332.799002 0 1 0 665.598003 0 332.799002 332.799002 0 1 0-665.598003 0Z" fill="#D3EFDE" /><path d="M883.19735 1024h-639.99808A141.055577 141.055577 0 0 1 102.399693 883.200422v-742.397772A141.055577 141.055577 0 0 1 243.19927 0.003072h516.350451a89.087733 89.087733 0 0 1 63.231811 25.599923l189.695431 189.695431A38.399885 38.399885 0 0 1 1023.996928 243.202342v639.99808a141.055577 141.055577 0 0 1-140.799578 140.799578zM243.19927 76.802842A63.999808 63.999808 0 0 0 179.199462 140.80265v742.397772A63.999808 63.999808 0 0 0 243.19927 947.20023h639.99808a63.999808 63.999808 0 0 0 63.999808-63.999808V259.074295l-179.199462-179.199463a12.799962 12.799962 0 0 0-8.447975-3.07199z" fill="#434260" /><path d="M301.567095 399.105875h68.351795c51.199846 0 86.271741 17.151949 86.271741 68.095795s-35.839892 72.191783-84.991745 72.191784h-34.047897v85.759743h-35.583894zM367.870896 512.001536c36.351891 0 53.503839-13.823959 53.50384-43.519869s-18.687944-39.679881-54.527837-39.679881h-29.69591V512.001536zM487.934536 512.001536c0-73.727779 44.799866-118.015646 102.399693-118.015646a87.039739 87.039739 0 0 1 64.255807 28.671914l-19.455941 22.783932a60.15982 60.15982 0 0 0-44.287868-20.22394c-38.911883 0-66.047802 32.511902-66.047801 85.759743s25.599923 86.52774 65.023805 86.52774a65.791803 65.791803 0 0 0 51.199846-24.063927l18.943943 22.527932a89.087733 89.087733 0 0 1-71.167786 33.2799c-57.343828 0-100.863697-42.495873-100.863698-117.247648zM736.76579 508.417547l-60.927818-109.311672H716.79785l25.599923 52.735841c5.631983 10.495969 10.495969 20.479939 17.151948 34.047898h1.535996c5.887982-13.567959 10.239969-23.551929 15.359954-34.047898l25.599923-52.735841h37.375888l-60.671818 111.103666L844.797466 625.153197h-38.911884l-29.695911-56.063832-18.687944-36.86389c-6.399981 13.823959-12.031964 25.599923-17.407947 36.86389l-28.927913 56.063832h-39.167883z" fill="#434260" /></svg>