<?xml version="1.0" standalone="no"?><!DOCTYPE svg PUBLIC "-//W3C//DTD SVG 1.1//EN" "http://www.w3.org/Graphics/SVG/1.1/DTD/svg11.dtd"><svg class="icon" width="200px" height="200.00px" viewBox="0 0 1024 1024" version="1.1" xmlns="http://www.w3.org/2000/svg"><path d="M332.799002 686.081014m-332.799002 0a332.799002 332.799002 0 1 0 665.598003 0 332.799002 332.799002 0 1 0-665.598003 0Z" fill="#D3EFDE" /><path d="M269.311192 399.105875h68.351795c51.199846 0 86.271741 17.151949 86.271741 68.095795s-35.839892 72.191783-84.991745 72.191784h-34.047898v85.759743h-35.583893zM335.614993 512.001536c36.351891 0 53.503839-13.823959 53.50384-43.519869s-18.687944-39.679881-54.527837-39.679881h-29.695911V512.001536zM467.966596 399.105875h36.60789l75.007775 132.607602 23.55193 47.871856h1.535995c-1.791995-23.29593-4.607986-51.199846-4.607986-75.263774v-105.215684h33.791898v226.047322h-36.60789l-75.007775-133.3756-23.551929-47.359858h-1.535995c1.791995 23.29593 4.607986 49.407852 4.607986 73.983778v106.49568h-33.791899zM681.213956 512.001536c0-73.727779 45.567863-118.015646 105.215685-118.015646a90.11173 90.11173 0 0 1 67.327798 28.671914l-19.455942 22.783932a60.927817 60.927817 0 0 0-46.59186-20.22394C745.725763 425.985794 716.79785 458.497697 716.79785 512.001536s25.599923 86.52774 71.423785 86.52774a56.063832 56.063832 0 0 0 35.583894-11.007967v-53.503839h-43.775869v-29.183913h76.79977v98.047706a102.399693 102.399693 0 0 1-71.423786 25.599924c-60.415819 0.767998-104.191687-41.727875-104.191688-116.479651z" fill="#434260" /><path d="M883.19735 1024h-639.99808A141.055577 141.055577 0 0 1 102.399693 883.200422v-742.397772A141.055577 141.055577 0 0 1 243.19927 0.003072h516.350451a89.087733 89.087733 0 0 1 63.231811 25.599923l189.695431 189.695431A38.399885 38.399885 0 0 1 1023.996928 243.202342v639.99808a141.055577 141.055577 0 0 1-140.799578 140.799578zM243.19927 76.802842A63.999808 63.999808 0 0 0 179.199462 140.80265v742.397772A63.999808 63.999808 0 0 0 243.19927 947.20023h639.99808a63.999808 63.999808 0 0 0 63.999808-63.999808V259.074295l-179.199462-179.199463a12.799962 12.799962 0 0 0-8.447975-3.07199z" fill="#434260" /></svg>