<?xml version="1.0" standalone="no"?><!DOCTYPE svg PUBLIC "-//W3C//DTD SVG 1.1//EN" "http://www.w3.org/Graphics/SVG/1.1/DTD/svg11.dtd"><svg class="icon" width="200px" height="200.00px" viewBox="0 0 1024 1024" version="1.1" xmlns="http://www.w3.org/2000/svg"><path d="M332.799002 686.081014m-332.799002 0a332.799002 332.799002 0 1 0 665.598003 0 332.799002 332.799002 0 1 0-665.598003 0Z" fill="#CCE4F2" /><path d="M883.19735 1024h-639.99808A141.055577 141.055577 0 0 1 102.399693 883.200422v-742.397772A141.055577 141.055577 0 0 1 243.19927 0.003072h516.350451a89.087733 89.087733 0 0 1 63.231811 25.599923l189.695431 189.695431A38.399885 38.399885 0 0 1 1023.996928 243.202342v639.99808a141.055577 141.055577 0 0 1-140.799578 140.799578zM243.19927 76.802842A63.999808 63.999808 0 0 0 179.199462 140.80265v742.397772A63.999808 63.999808 0 0 0 243.19927 947.20023h639.99808a63.999808 63.999808 0 0 0 63.999808-63.999808V259.074295l-179.199462-179.199463a12.799962 12.799962 0 0 0-8.447975-3.07199z" fill="#434260" /><path d="M293.887118 399.105875h68.351795c51.199846 0 86.271741 17.151949 86.271741 68.095795s-35.839892 72.191783-84.991745 72.191784h-33.791898v85.759743h-35.839893zM360.190919 512.001536c36.351891 0 53.503839-13.823959 53.50384-43.519869s-18.687944-40.959877-55.295834-40.959878h-28.671914V512.001536zM492.798522 399.105875h68.351795c51.199846 0 86.271741 17.151949 86.271741 68.095795s-35.839892 72.191783-84.991745 72.191784h-34.047898v85.759743h-35.583893zM559.102323 512.001536c36.351891 0 53.503839-13.823959 53.503839-43.519869s-18.687944-39.679881-54.527836-39.679881h-29.695911V512.001536zM730.10981 428.801786h-66.303801v-29.695911h168.447494v29.695911h-66.5598v196.095411h-35.583893z" fill="#434260" /></svg>