<?xml version="1.0" standalone="no"?><!DOCTYPE svg PUBLIC "-//W3C//DTD SVG 1.1//EN" "http://www.w3.org/Graphics/SVG/1.1/DTD/svg11.dtd"><svg class="icon" width="200px" height="200.00px" viewBox="0 0 1024 1024" version="1.1" xmlns="http://www.w3.org/2000/svg"><path d="M332.799002 686.081014m-332.799002 0a332.799002 332.799002 0 1 0 665.598003 0 332.799002 332.799002 0 1 0-665.598003 0Z" fill="#DFDFF2" /><path d="M883.19735 1024h-639.99808A141.055577 141.055577 0 0 1 102.399693 883.200422v-742.397772A141.055577 141.055577 0 0 1 243.19927 0.003072h516.350451a89.087733 89.087733 0 0 1 63.231811 25.599923l189.695431 189.695431A38.399885 38.399885 0 0 1 1023.996928 243.202342v639.99808a141.055577 141.055577 0 0 1-140.799578 140.799578zM243.19927 76.802842A63.999808 63.999808 0 0 0 179.199462 140.80265v742.397772A63.999808 63.999808 0 0 0 243.19927 947.20023h639.99808a63.999808 63.999808 0 0 0 63.999808-63.999808V259.074295l-179.199462-179.199463a12.799962 12.799962 0 0 0-8.447975-3.07199z" fill="#434260" /><path d="M223.743329 409.601843h62.719812c46.079862 0 79.103763 15.871952 79.103762 62.463813S332.799002 537.601459 287.743137 537.601459H255.999232v78.591764H223.743329z m60.927817 102.399693c33.2799 0 48.895853-12.799962 48.895853-39.93588s-17.151949-36.351891-51.199846-36.351891H255.999232v76.799769zM514.046458 615.681225l-47.103859-83.711749h-33.535899v83.711749h-32.511903V409.601843h67.839797c42.751872 0 75.007775 15.103955 75.007775 59.90382a57.599827 57.599827 0 0 1-43.26387 59.391822l51.199846 87.807737z m-80.639758-109.823671h31.231906c30.207909 0 46.59186-12.287963 46.59186-37.375887s-16.383951-33.2799-46.59186-33.279901h-31.231906zM573.950278 512.001536c0-66.8158 36.863889-106.75168 90.11173-106.75168s90.367729 39.93588 90.367729 106.75168-37.631887 107.519677-90.367729 107.519677-90.11173-41.471876-90.11173-107.519677z m146.943559 0c0-48.639854-22.527932-78.335765-56.831829-78.335765s-56.57583 28.927913-56.57583 78.335765 22.271933 79.615761 56.57583 79.615761 56.83183-31.487906 56.831829-79.615761zM787.197638 409.601843h122.623633v25.599923H819.197542v57.855827h76.79977v27.647917h-76.79977V588.801306h92.927722v27.647917h-124.927626z" fill="#434260" /></svg>