<?xml version="1.0" standalone="no"?><!DOCTYPE svg PUBLIC "-//W3C//DTD SVG 1.1//EN" "http://www.w3.org/Graphics/SVG/1.1/DTD/svg11.dtd"><svg class="icon" width="200px" height="200.00px" viewBox="0 0 1024 1024" version="1.1" xmlns="http://www.w3.org/2000/svg"><path d="M332.796922 686.083126m-332.796922 0a332.796922 332.796922 0 1 0 665.593843 0 332.796922 332.796922 0 1 0-665.593843 0Z" fill="#CCE4F2" /><path d="M883.19183 1024h-639.99408A141.054695 141.054695 0 0 1 102.399053 883.201302v-742.393132A141.054695 141.054695 0 0 1 243.19775 0.009472h516.347224a88.319183 88.319183 0 0 1 63.487413 25.599763l189.694245 189.694245A38.399645 38.399645 0 0 1 1023.990528 243.207222v639.99408a141.054695 141.054695 0 0 1-140.798698 140.798698zM243.19775 76.808762A63.999408 63.999408 0 0 0 179.198342 140.80817v742.393132A63.999408 63.999408 0 0 0 243.19775 947.20071h639.99408a63.999408 63.999408 0 0 0 63.999408-63.999408V259.079076l-179.198342-179.198343a13.055879 13.055879 0 0 0-8.447922-3.071971z" fill="#434260" /><path d="M387.324417 399.10978h68.607366c51.199526 0 86.271202 17.151841 86.271202 68.09537s-36.095666 72.191332-85.247212 72.191333h-34.047685v85.503209h-35.583671zM453.627804 512.004736c36.351664 0 53.503505-13.823872 53.503505-43.519597s-18.687827-39.679633-54.783493-39.679633h-29.439728V512.004736zM635.386123 539.396483l-68.09537-140.286703h38.143647l25.599763 59.903446c7.167934 16.639846 13.567874 32.511699 21.247803 49.663541h1.279989c7.167934-17.151841 14.591865-33.023695 21.503801-49.663541l25.599763-59.903446h37.119656l-68.09537 140.286703v85.503209h-34.303682z" fill="#434260" /></svg>