<?xml version="1.0" standalone="no"?><!DOCTYPE svg PUBLIC "-//W3C//DTD SVG 1.1//EN" "http://www.w3.org/Graphics/SVG/1.1/DTD/svg11.dtd"><svg class="icon" width="200px" height="200.00px" viewBox="0 0 1024 1024" version="1.1" xmlns="http://www.w3.org/2000/svg"><path d="M332.799002 686.081014m-332.799002 0a332.799002 332.799002 0 1 0 665.598003 0 332.799002 332.799002 0 1 0-665.598003 0Z" fill="#D3EFDE" /><path d="M883.19735 1024h-639.99808A141.055577 141.055577 0 0 1 102.399693 883.200422v-742.397772A141.055577 141.055577 0 0 1 243.19927 0.003072h516.350451a89.087733 89.087733 0 0 1 63.231811 25.599923l189.695431 189.695431A38.399885 38.399885 0 0 1 1023.996928 243.202342v639.99808a141.055577 141.055577 0 0 1-140.799578 140.799578zM243.19927 76.802842A63.999808 63.999808 0 0 0 179.199462 140.80265v742.397772A63.999808 63.999808 0 0 0 243.19927 947.20023h639.99808a63.999808 63.999808 0 0 0 63.999808-63.999808V259.074295l-179.199462-179.199463a12.799962 12.799962 0 0 0-8.447975-3.07199z" fill="#434260" /><path d="M477.694567 650.497121a89.599731 89.599731 0 0 1-34.815896 5.887982 91.135727 91.135727 0 0 1-87.807736-55.807833c-48.895853-8.191975-81.407756-51.199846-81.407756-116.73565 0-72.703782 40.191879-116.479651 98.303705-116.47965s98.559704 43.519869 98.559704 116.47965c0 63.48781-30.975907 105.983682-76.799769 115.711653a57.855826 57.855826 0 0 0 53.759839 27.647917 82.687752 82.687752 0 0 0 24.063927-3.32799z m-105.727683-76.79977C409.598771 572.673354 435.198694 537.601459 435.198694 483.84162s-25.599923-85.247744-61.951814-85.247744-61.695815 32.255903-61.695815 85.247744 23.039931 88.831734 60.415819 88.831734zM501.758495 568.577366l20.991937-25.599923a87.551737 87.551737 0 0 0 60.159819 25.599923c27.391918 0 42.751872-12.799962 42.751872-31.999904S610.04617 512.001536 588.798234 502.529564l-31.231907-13.567959A65.023805 65.023805 0 0 1 511.998464 429.825783a67.071799 67.071799 0 0 1 74.239777-62.207814 96.76771 96.76771 0 0 1 68.351795 28.671914l-18.687944 22.783932a72.191783 72.191783 0 0 0-49.663851-20.22394c-23.039931 0-38.143886 11.007967-38.143885 29.183913s18.175945 25.599923 36.60789 34.047898l30.975907 13.31196a63.23181 63.23181 0 0 1 46.079862 61.183816c0 36.351891-29.95191 65.791803-79.615761 65.791803a112.639662 112.639662 0 0 1-80.383759-33.791899zM674.045978 371.713957h37.887886l33.5359 116.991649c7.679977 25.599923 12.543962 47.871856 20.479938 73.983778H767.997696c7.679977-25.599923 13.31196-48.127856 20.479939-73.983778l33.535899-116.991649h35.583893l-70.655788 226.047322H744.957765z" fill="#434260" /></svg>