<?xml version="1.0" standalone="no"?><!DOCTYPE svg PUBLIC "-//W3C//DTD SVG 1.1//EN" "http://www.w3.org/Graphics/SVG/1.1/DTD/svg11.dtd"><svg class="icon" width="200px" height="200.00px" viewBox="0 0 1024 1024" version="1.1" xmlns="http://www.w3.org/2000/svg"><path d="M332.799002 686.081014m-332.799002 0a332.799002 332.799002 0 1 0 665.598003 0 332.799002 332.799002 0 1 0-665.598003 0Z" fill="#D3EFDE" /><path d="M883.19735 1024h-639.99808A141.055577 141.055577 0 0 1 102.399693 883.200422v-742.397772A141.055577 141.055577 0 0 1 243.19927 0.003072h516.350451a89.087733 89.087733 0 0 1 63.231811 25.599923l189.695431 189.695431A38.399885 38.399885 0 0 1 1023.996928 243.202342v639.99808a141.055577 141.055577 0 0 1-140.799578 140.799578zM243.19927 76.802842A63.999808 63.999808 0 0 0 179.199462 140.80265v742.397772A63.999808 63.999808 0 0 0 243.19927 947.20023h639.99808a63.999808 63.999808 0 0 0 63.999808-63.999808V259.074295l-179.199462-179.199463a12.799962 12.799962 0 0 0-8.447975-3.07199z" fill="#434260" /><path d="M365.054905 506.113554a67.583797 67.583797 0 0 1-25.599923 4.351987 68.607794 68.607794 0 0 1-66.047802-41.983874c-36.60789-6.143982-61.183816-38.399885-61.183817-87.551738 0-54.527836 30.207909-87.295738 73.727779-87.295738s73.983778 32.767902 73.983778 87.295738c0 47.615857-23.29593 79.615761-58.111825 86.78374a43.519869 43.519869 0 0 0 40.447878 20.735938 62.463813 62.463813 0 0 0 17.919946-2.559993z m-79.359762-58.623824c28.159916 0 46.59186-25.599923 46.59186-66.559801s-18.431945-63.999808-46.59186-63.999808-46.335861 24.319927-46.335861 63.999808 18.431945 66.8158 46.335861 66.8158zM393.982818 393.729891V296.962181h25.599923v98.559704c0 38.143886 15.103955 51.199846 36.351891 51.199847s37.119889-12.543962 37.119889-51.199847V296.962181h25.599923v96.76771c0 55.295834-25.599923 76.79977-62.975811 76.799769s-61.695815-21.503935-61.695815-76.799769zM563.19831 296.962181h25.599924v169.727491h-25.599924zM625.918122 382.209925c0-55.295834 33.535899-88.575734 76.79977-88.575734a65.535803 65.535803 0 0 1 48.127855 21.503936l-14.591956 17.151948a45.055865 45.055865 0 0 0-33.2799-15.103955c-29.183912 0-49.663851 25.599923-49.663851 64.255808s18.943943 65.023805 48.895853 65.023805a49.407852 49.407852 0 0 0 37.631887-17.919947l14.335957 16.89595a67.071799 67.071799 0 0 1-52.735841 25.599923c-42.751872-1.535995-75.519773-33.2799-75.519774-88.831734zM783.869648 296.962181h25.599924v80.12776l64.511806-80.12776h29.695911l-52.479843 65.535804 61.183817 104.191687h-27.647917L836.60549 384.00192l-25.599923 31.743905v51.199846h-25.599923zM343.038971 582.913323h-49.91985v-22.271933h126.46362v22.271933h-51.199846v147.199559h-25.599923zM449.022653 560.64139h25.599923v169.727491h-25.599923zM520.190439 560.64139h30.719908l31.231907 85.759743c3.839988 11.263966 7.423978 22.783932 11.263966 34.303897 3.839988-11.519965 7.167978-23.039931 11.007967-34.303897l30.719908-85.759743h30.975907v169.727491h-25.599924v-83.967748c0-15.103955 2.047994-37.119889 3.32799-52.479843l-13.567959 39.167883-29.439911 80.895757h-16.639951l-29.69591-80.895757-13.311961-39.167883c0 15.359954 3.32799 37.375888 3.32799 52.479843v83.967748h-24.063927zM711.421866 560.64139h100.095699v22.271933h-73.471779v47.359858h62.207813v22.527933h-62.207813v54.783835h76.799769v22.527933h-102.399692z" fill="#434260" /></svg>