<?xml version="1.0" standalone="no"?><!DOCTYPE svg PUBLIC "-//W3C//DTD SVG 1.1//EN" "http://www.w3.org/Graphics/SVG/1.1/DTD/svg11.dtd"><svg class="icon" width="200px" height="200.00px" viewBox="0 0 1024 1024" version="1.1" xmlns="http://www.w3.org/2000/svg"><path d="M332.799002 686.081014m-332.799002 0a332.799002 332.799002 0 1 0 665.598003 0 332.799002 332.799002 0 1 0-665.598003 0Z" fill="#CCE4F2" /><path d="M883.19735 1024h-639.99808A141.055577 141.055577 0 0 1 102.399693 883.200422v-742.397772A141.055577 141.055577 0 0 1 243.19927 0.003072h516.350451a89.087733 89.087733 0 0 1 63.231811 25.599923l189.695431 189.695431A38.399885 38.399885 0 0 1 1023.996928 243.202342v639.99808a141.055577 141.055577 0 0 1-140.799578 140.799578zM243.19927 76.802842A63.999808 63.999808 0 0 0 179.199462 140.80265v742.397772A63.999808 63.999808 0 0 0 243.19927 947.20023h639.99808a63.999808 63.999808 0 0 0 63.999808-63.999808V259.074295l-179.199462-179.199463a12.799962 12.799962 0 0 0-8.447975-3.07199z" fill="#434260" /><path d="M414.718756 624.897197l-51.199847-91.135726h-36.60789v91.135726h-35.583893v-225.791322h73.983778c46.59186 0 81.663755 16.63995 81.663755 65.279804a62.975811 62.975811 0 0 1-47.359858 64.767806l55.295834 95.743712z m-87.807737-119.80764h34.047898c32.767902 0 51.199846-13.567959 51.199847-40.703878s-17.919946-36.863889-51.199847-36.86389h-34.047898zM594.942215 560.64139h-78.591764l-19.455942 64.511807H460.798618l75.007775-226.047322h41.215876l75.007775 226.047322H614.398157z m-8.703974-27.903916l-8.959973-30.463909c-7.679977-25.599923-14.335957-49.663851-21.503935-75.263774-6.399981 25.599923-13.567959 51.199846-20.991937 75.263774l-9.98397 30.20791zM805.117585 624.897197l-51.199847-91.135726H716.79785v91.135726h-35.071895v-225.791322h73.983778c46.59186 0 81.663755 16.63995 81.663755 65.279804a62.975811 62.975811 0 0 1-47.359858 64.767806L844.797466 624.897197zM716.79785 505.345556h34.047897c32.767902 0 51.199846-13.567959 51.199847-40.703878s-17.919946-36.863889-51.199847-36.863889H716.79785z" fill="#434260" /></svg>