<?xml version="1.0" standalone="no"?><!DOCTYPE svg PUBLIC "-//W3C//DTD SVG 1.1//EN" "http://www.w3.org/Graphics/SVG/1.1/DTD/svg11.dtd"><svg class="icon" width="200px" height="200.00px" viewBox="0 0 1024 1024" version="1.1" xmlns="http://www.w3.org/2000/svg"><path d="M332.799002 686.081014m-332.799002 0a332.799002 332.799002 0 1 0 665.598003 0 332.799002 332.799002 0 1 0-665.598003 0Z" fill="#F4EFC9" /><path d="M883.19735 1024h-639.99808A141.055577 141.055577 0 0 1 102.399693 883.200422v-742.397772A141.055577 141.055577 0 0 1 243.19927 0.003072h516.350451a89.087733 89.087733 0 0 1 63.231811 25.599923l189.695431 189.695431A38.399885 38.399885 0 0 1 1023.996928 243.202342v639.99808a141.055577 141.055577 0 0 1-140.799578 140.799578zM243.19927 76.802842A63.999808 63.999808 0 0 0 179.199462 140.80265v742.397772A63.999808 63.999808 0 0 0 243.19927 947.20023h639.99808a63.999808 63.999808 0 0 0 63.999808-63.999808V259.074295l-179.199462-179.199463a12.799962 12.799962 0 0 0-8.447975-3.07199z" fill="#434260" /><path d="M314.879055 456.961701l-38.399884-68.351795H249.087253v68.351795h-25.599923v-169.471491h55.551833c35.071895 0 61.183816 12.543962 61.183816 49.151852A47.103859 47.103859 0 0 1 303.615089 384.00192l41.471876 71.935784z m-65.791802-89.85573h25.599923c25.599923 0 38.143886-10.239969 38.143886-30.719908s-13.31196-27.647917-38.143886-27.647917h-25.599923zM373.24688 287.49021h100.351699v22.271933h-73.727779v47.359858h62.207814v22.527932h-62.207814V435.201766h76.79977v22.527933h-102.399693zM588.798234 409.601843h-58.879824l-14.591956 48.383855h-26.111922l56.319831-169.727491h30.975907l56.319832 169.727491H604.158188z m-6.399981-20.991937l-6.65598-22.783931c-5.631983-18.431945-10.751968-37.375888-16.127952-56.575831-4.863985 19.455942-10.239969 38.143886-15.615953 56.575831l-6.911979 22.783931zM654.846035 287.49021h25.599924V435.201766h71.679785v22.527933h-97.279709zM861.437416 409.601843h-58.879824l-14.591956 48.383855h-27.135918l56.319831-169.727491h30.975907l56.319831 169.727491h-28.671914z m-6.399981-20.991937l-6.65598-22.783931c-5.631983-18.431945-10.751968-37.375888-16.127952-56.575831-4.863985 19.455942-10.239969 38.143886-15.615953 56.575831l-6.911979 22.783931zM234.239297 658.689096h60.927817v19.711941H234.239297zM327.167018 660.73709V563.201382h25.599924v98.559705c0 38.143886 15.103955 51.199846 36.351891 51.199846s37.119889-12.543962 37.119888-51.199846V563.201382h25.599923v96.76771c0 55.295834-25.599923 76.79977-62.975811 76.79977s-61.695815-19.96794-61.695815-76.031772zM496.894509 563.201382h44.031868c51.199846 0 81.919754 28.927913 81.919754 84.223748s-29.695911 85.503743-80.383758 85.503743h-45.567864z m42.239874 147.711557c36.351891 0 56.063832-21.503935 56.063831-63.487809s-19.455942-62.463813-56.063831-62.463813h-15.359954v126.71962zM657.918026 563.201382h25.599923v169.727491h-25.599923zM719.86984 647.937128c0-54.527836 30.207909-87.295738 73.727779-87.295738s73.983778 32.767902 73.983778 87.295738-30.207909 88.575734-73.983778 88.575734-73.727779-33.791899-73.727779-88.575734z m120.319639 0c0-39.93588-18.431945-63.999808-46.59186-63.999808s-46.335861 24.319927-46.335861 63.999808 18.175945 65.279804 46.335861 65.279804 46.59186-25.343924 46.59186-65.279804z" fill="#434260" /></svg>