<?xml version="1.0" standalone="no"?><!DOCTYPE svg PUBLIC "-//W3C//DTD SVG 1.1//EN" "http://www.w3.org/Graphics/SVG/1.1/DTD/svg11.dtd"><svg class="icon" width="200px" height="200.00px" viewBox="0 0 1024 1024" version="1.1" xmlns="http://www.w3.org/2000/svg"><path d="M332.799002 686.081014m-332.799002 0a332.799002 332.799002 0 1 0 665.598003 0 332.799002 332.799002 0 1 0-665.598003 0Z" fill="#DFDFF2" /><path d="M883.19735 1024h-639.99808A141.055577 141.055577 0 0 1 102.399693 883.200422v-742.397772A141.055577 141.055577 0 0 1 243.19927 0.003072h516.350451a89.087733 89.087733 0 0 1 63.231811 25.599923l189.695431 189.695431A38.399885 38.399885 0 0 1 1023.996928 243.202342v639.99808a141.055577 141.055577 0 0 1-140.799578 140.799578zM243.19927 76.802842A63.999808 63.999808 0 0 0 179.199462 140.80265v742.397772A63.999808 63.999808 0 0 0 243.19927 947.20023h639.99808a63.999808 63.999808 0 0 0 63.999808-63.999808V259.074295l-179.199462-179.199463a12.799962 12.799962 0 0 0-8.447975-3.07199z" fill="#434260" /><path d="M325.887022 610.81724L281.599155 530.945479H249.087253v79.871761H217.855346v-197.631408H281.599155c40.959877 0 71.423786 14.591956 71.423786 57.343828a55.039835 55.039835 0 0 1-41.471876 56.575831l48.383855 83.967748z m-76.799769-104.703686h29.95191c28.671914 0 44.287867-11.775965 44.287867-35.839893s-16.127952-32.255903-44.287867-32.255903H249.087253zM391.422826 413.185832h35.839892L463.614609 512.001536c4.607986 13.31196 8.703974 25.599923 13.055961 39.93588h1.279996c4.607986-13.567959 8.191975-25.599923 12.799962-39.93588l35.839892-99.8397H563.19831v197.887406h-29.695911V512.001536c0-17.663947 2.559992-43.26387 4.095988-61.183816l-15.871952 45.823862L486.398541 591.873296h-19.455942l-34.559896-94.207717-15.615953-45.823863c1.279996 17.919946 3.839988 43.519869 3.839988 61.183817v97.791707h-29.183912zM582.910251 413.185832h33.023901l29.183913 102.399693c6.65598 22.527932 11.007967 41.983874 17.919946 64.767806h2.559992c6.65598-22.783932 11.519965-42.239873 17.919946-64.767806l29.183913-102.399693H742.397773l-61.695815 197.887407h-35.839893zM766.461701 413.185832h61.183816c40.447879 0 69.88779 12.799962 69.88779 48.639855A44.031868 44.031868 0 0 1 870.397389 504.577558v1.279996a45.311864 45.311864 0 0 1 38.911883 47.103859c0 39.167882-31.999904 58.111826-76.79977 58.111826h-66.047801z m57.855826 82.431753c30.207909 0 42.751872-11.263966 42.751872-29.95191s-13.823959-28.415915-41.983874-28.415915h-27.391918v58.367825z m4.863985 90.879728c30.975907 0 48.639854-11.007967 48.639855-35.071895s-17.151949-31.999904-48.639855-31.999904h-31.487905v67.327798z" fill="#434260" /></svg>