<?xml version="1.0" standalone="no"?><!DOCTYPE svg PUBLIC "-//W3C//DTD SVG 1.1//EN" "http://www.w3.org/Graphics/SVG/1.1/DTD/svg11.dtd"><svg class="icon" width="200px" height="200.00px" viewBox="0 0 1024 1024" version="1.1" xmlns="http://www.w3.org/2000/svg"><path d="M332.799002 686.081014m-332.799002 0a332.799002 332.799002 0 1 0 665.598003 0 332.799002 332.799002 0 1 0-665.598003 0Z" fill="#FFDCEE" /><path d="M883.19735 1024h-639.99808A141.055577 141.055577 0 0 1 102.399693 883.200422v-742.397772A141.055577 141.055577 0 0 1 243.19927 0.003072h516.350451a89.087733 89.087733 0 0 1 63.231811 25.599923l189.695431 189.695431A38.399885 38.399885 0 0 1 1023.996928 243.202342v639.99808a141.055577 141.055577 0 0 1-140.799578 140.799578zM243.19927 76.802842A63.999808 63.999808 0 0 0 179.199462 140.80265v742.397772A63.999808 63.999808 0 0 0 243.19927 947.20023h639.99808a63.999808 63.999808 0 0 0 63.999808-63.999808V259.074295l-179.199462-179.199463a12.799962 12.799962 0 0 0-8.447975-3.07199z" fill="#434260" /><path d="M383.998848 398.849875h73.983778c46.59186 0 81.663755 16.895949 81.663755 65.791803a62.975811 62.975811 0 0 1-47.359858 64.767806l55.295834 95.743713h-39.167882l-51.199847-91.135727h-36.60789v91.135727H383.998848z m69.631791 106.495681c32.767902 0 51.199846-13.567959 51.199847-40.703878s-17.919946-36.863889-51.199847-36.863889h-33.023901v76.799769zM586.494241 398.849875h68.351794c51.199846 0 86.271741 17.407948 86.271742 68.351795s-35.839892 72.191783-84.991745 72.191784H622.078134v85.759743h-35.583893zM652.798042 512.001536c36.351891 0 53.503839-13.823959 53.503839-43.519869s-18.687944-39.679881-54.527836-39.679881H622.078134V512.001536z" fill="#434260" /></svg>