<?xml version="1.0" standalone="no"?><!DOCTYPE svg PUBLIC "-//W3C//DTD SVG 1.1//EN" "http://www.w3.org/Graphics/SVG/1.1/DTD/svg11.dtd"><svg class="icon" width="200px" height="200.00px" viewBox="0 0 1024 1024" version="1.1" xmlns="http://www.w3.org/2000/svg"><path d="M332.799002 686.081014m-332.799002 0a332.799002 332.799002 0 1 0 665.598003 0 332.799002 332.799002 0 1 0-665.598003 0Z" fill="#FFDCEE" /><path d="M883.19735 1024h-639.99808A141.055577 141.055577 0 0 1 102.399693 883.200422v-742.397772A141.055577 141.055577 0 0 1 243.19927 0.003072h516.350451a89.087733 89.087733 0 0 1 63.231811 25.599923l189.695431 189.695431A38.399885 38.399885 0 0 1 1023.996928 243.202342v639.99808a141.055577 141.055577 0 0 1-140.799578 140.799578zM243.19927 76.802842A63.999808 63.999808 0 0 0 179.199462 140.80265v742.397772A63.999808 63.999808 0 0 0 243.19927 947.20023h639.99808a63.999808 63.999808 0 0 0 63.999808-63.999808V259.074295l-179.199462-179.199463a12.799962 12.799962 0 0 0-8.447975-3.07199z" fill="#434260" /><path d="M308.735074 595.969284l20.991937-25.599923a87.551737 87.551737 0 0 0 60.159819 25.599923c27.391918 0 42.751872-12.799962 42.751872-31.999904s-15.359954-27.135919-36.351891-36.351891l-31.231906-13.567959a65.023805 65.023805 0 0 1-46.079862-59.135823 67.071799 67.071799 0 0 1 74.239777-62.207813 96.76771 96.76771 0 0 1 67.583798 30.719908l-18.687944 22.783931a71.935784 71.935784 0 0 0-49.663851-20.223939c-23.039931 0-38.143886 11.007967-38.143886 29.183912s18.175945 25.599923 36.60789 34.047898l30.975907 13.31196A62.975811 62.975811 0 0 1 468.734594 563.201382c0 36.351891-29.95191 65.791803-79.615761 65.791803a112.639662 112.639662 0 0 1-80.383759-33.023901zM647.422058 563.201382h-28.927913v60.927818h-33.023901V563.201382h-97.535708v-23.551929l89.855731-141.567575h40.703878V537.601459h28.927913z m-61.951814-25.599923v-59.90382c0-12.287963 0-31.231906 1.791994-43.51987-5.631983 11.263966-11.775965 23.039931-18.175945 34.815896L523.518429 537.601459zM670.973987 569.089365a69.119793 69.119793 0 0 1 40.447879-60.671818v-1.535996a63.999808 63.999808 0 0 1-30.463909-52.735841 58.879823 58.879823 0 0 1 64.511807-58.367825 58.367825 58.367825 0 0 1 63.999808 59.90382 70.14379 70.14379 0 0 1-29.695911 53.24784v1.535996a66.303801 66.303801 0 0 1 38.143885 59.90382c0 33.535899-29.439912 59.391822-72.959781 59.391822s-73.983778-25.855922-73.983778-60.671818z m113.40766 0c0-27.647917-25.599923-38.143886-55.551833-51.199847a57.599827 57.599827 0 0 0-25.599924 47.359858 39.679881 39.679881 0 0 0 43.007871 38.143886 35.071895 35.071895 0 0 0 37.887887-34.303897z m-4.607986-111.359666a33.535899 33.535899 0 0 0-34.815896-36.60789 30.975907 30.975907 0 0 0-32.255903 32.767901c0 25.599923 21.503935 35.839892 46.59186 45.823863a57.343828 57.343828 0 0 0 20.223939-42.239873z" fill="#434260" /></svg>