<?xml version="1.0" standalone="no"?><!DOCTYPE svg PUBLIC "-//W3C//DTD SVG 1.1//EN" "http://www.w3.org/Graphics/SVG/1.1/DTD/svg11.dtd"><svg class="icon" width="200px" height="200.00px" viewBox="0 0 1024 1024" version="1.1" xmlns="http://www.w3.org/2000/svg"><path d="M332.799002 686.081014m-332.799002 0a332.799002 332.799002 0 1 0 665.598003 0 332.799002 332.799002 0 1 0-665.598003 0Z" fill="#FFDCEE" /><path d="M883.19735 1024h-639.99808A141.055577 141.055577 0 0 1 102.399693 883.200422v-742.397772A141.055577 141.055577 0 0 1 243.19927 0.003072h516.350451a89.087733 89.087733 0 0 1 63.231811 25.599923l189.695431 189.695431A38.399885 38.399885 0 0 1 1023.996928 243.202342v639.99808a141.055577 141.055577 0 0 1-140.799578 140.799578zM243.19927 76.802842A63.999808 63.999808 0 0 0 179.199462 140.80265v742.397772A63.999808 63.999808 0 0 0 243.19927 947.20023h639.99808a63.999808 63.999808 0 0 0 63.999808-63.999808V259.074295l-179.199462-179.199463a12.799962 12.799962 0 0 0-8.447975-3.07199z" fill="#434260" /><path d="M202.751392 595.969284l20.991937-25.599923a87.551737 87.551737 0 0 0 60.159819 25.599923c27.391918 0 42.751872-12.799962 42.751872-31.999904s-15.359954-27.135919-36.351891-36.351891l-31.231906-13.567959a65.023805 65.023805 0 0 1-46.079862-59.135823 67.071799 67.071799 0 0 1 74.239777-62.207813 96.76771 96.76771 0 0 1 68.351795 28.671914l-18.687944 22.783932a71.935784 71.935784 0 0 0-49.663851-20.22394c-23.039931 0-38.143886 11.007967-38.143885 29.183913s18.175945 25.599923 36.60789 34.047897l30.975907 13.311961a62.975811 62.975811 0 0 1 46.079862 62.719811c0 36.351891-29.95191 65.791803-79.615761 65.791803a112.639662 112.639662 0 0 1-80.383759-33.023901zM507.390478 560.64139h-78.591764L409.598771 625.153197h-36.351891l75.007775-226.047322h41.215877L563.19831 625.153197h-36.863889z m-8.703974-27.903916l-8.959973-30.463909c-7.679977-25.599923-14.335957-49.663851-21.503936-75.263774-6.399981 25.599923-13.567959 51.199846-20.991937 75.263774l-9.215972 30.463909zM563.19831 512.001536c0-73.727779 44.799866-118.015646 102.399693-118.015646a87.039739 87.039739 0 0 1 64.255807 28.671914l-19.455941 22.783932a60.15982 60.15982 0 0 0-44.799866-19.455942c-38.911883 0-66.047802 32.511902-66.047802 85.759743s25.599923 86.52774 65.023805 86.52774a65.791803 65.791803 0 0 0 51.199847-24.063928l18.943943 22.527933a89.087733 89.087733 0 0 1-70.399789 32.511902C606.71818 629.249184 563.19831 586.753312 563.19831 512.001536zM755.965732 399.105875h58.623824c69.375792 0 109.055673 38.399885 109.055673 112.127663s-39.679881 113.919658-107.263678 113.919659h-60.415819z m56.319831 196.863409c48.383855 0 74.495777-28.671914 74.495777-84.735746s-25.599923-83.19975-74.495777-83.19975h-20.479938v167.935496z" fill="#434260" /></svg>