<?xml version="1.0" standalone="no"?><!DOCTYPE svg PUBLIC "-//W3C//DTD SVG 1.1//EN" "http://www.w3.org/Graphics/SVG/1.1/DTD/svg11.dtd"><svg class="icon" width="200px" height="200.00px" viewBox="0 0 1024 1024" version="1.1" xmlns="http://www.w3.org/2000/svg"><path d="M332.799002 686.081014m-332.799002 0a332.799002 332.799002 0 1 0 665.598003 0 332.799002 332.799002 0 1 0-665.598003 0Z" fill="#CCE4F2" /><path d="M883.19735 1024h-639.99808A141.055577 141.055577 0 0 1 102.399693 883.200422v-742.397772A141.055577 141.055577 0 0 1 243.19927 0.003072h516.350451a89.087733 89.087733 0 0 1 63.231811 25.599923l189.695431 189.695431A38.399885 38.399885 0 0 1 1023.996928 243.202342v639.99808a141.055577 141.055577 0 0 1-140.799578 140.799578zM243.19927 76.802842A63.999808 63.999808 0 0 0 179.199462 140.80265v742.397772A63.999808 63.999808 0 0 0 243.19927 947.20023h639.99808a63.999808 63.999808 0 0 0 63.999808-63.999808V259.074295l-179.199462-179.199463a12.799962 12.799962 0 0 0-8.447975-3.07199z" fill="#434260" /><path d="M201.983394 595.969284l20.991937-25.599923a87.551737 87.551737 0 0 0 60.15982 25.599923c27.391918 0 42.751872-12.799962 42.751871-31.999904s-15.359954-27.135919-36.351891-36.351891l-31.231906-13.567959a65.023805 65.023805 0 0 1-46.079862-59.135823 67.071799 67.071799 0 0 1 74.239778-62.207813 96.76771 96.76771 0 0 1 68.351795 28.671914l-18.687944 22.783932a72.191783 72.191783 0 0 0-49.663851-20.22394c-23.039931 0-38.143886 11.007967-38.143886 29.183913s18.175945 25.599923 36.60789 34.047897l30.975907 13.311961a63.23181 63.23181 0 0 1 46.079862 62.719811c0 36.351891-29.95191 65.791803-79.615761 65.791803a112.639662 112.639662 0 0 1-80.383759-33.023901zM374.270877 399.105875h37.887887l33.535899 116.991649c7.679977 25.599923 12.543962 47.871856 20.479938 73.983778h1.535996c7.679977-25.599923 13.31196-48.127856 20.479938-73.983778l33.5359-116.991649h36.351891L486.398541 625.153197h-41.215877zM566.5263 512.001536c0-73.727779 44.799866-118.015646 102.399693-118.015646a87.039739 87.039739 0 0 1 64.255807 28.671914l-19.455941 22.783932a60.15982 60.15982 0 0 0-44.287867-20.22394c-38.911883 0-66.047802 32.511902-66.047802 85.759743s25.599923 86.52774 65.023805 86.52774a65.791803 65.791803 0 0 0 51.199846-24.063927l18.943943 22.527932a89.087733 89.087733 0 0 1-72.959781 33.2799c-55.551833 0-99.071703-42.495873-99.071703-117.247648zM756.73373 399.105875h58.623824c69.375792 0 109.055673 38.399885 109.055673 112.127663s-39.679881 113.919658-107.263678 113.919659h-60.415819z m56.319831 196.863409c48.383855 0 74.495777-28.671914 74.495776-84.735746s-25.599923-83.19975-74.495776-83.19975H793.597619v167.935496z" fill="#434260" /></svg>