<?xml version="1.0" standalone="no"?><!DOCTYPE svg PUBLIC "-//W3C//DTD SVG 1.1//EN" "http://www.w3.org/Graphics/SVG/1.1/DTD/svg11.dtd"><svg class="icon" width="200px" height="200.00px" viewBox="0 0 1024 1024" version="1.1" xmlns="http://www.w3.org/2000/svg"><path d="M332.799002 686.081014m-332.799002 0a332.799002 332.799002 0 1 0 665.598003 0 332.799002 332.799002 0 1 0-665.598003 0Z" fill="#DFDFF2" /><path d="M883.19735 1024h-639.99808A141.055577 141.055577 0 0 1 102.399693 883.200422v-742.397772A141.055577 141.055577 0 0 1 243.19927 0.003072h516.350451a89.087733 89.087733 0 0 1 63.231811 25.599923l189.695431 189.695431A38.399885 38.399885 0 0 1 1023.996928 243.202342v639.99808a141.055577 141.055577 0 0 1-140.799578 140.799578zM243.19927 76.802842A63.999808 63.999808 0 0 0 179.199462 140.80265v742.397772A63.999808 63.999808 0 0 0 243.19927 947.20023h639.99808a63.999808 63.999808 0 0 0 63.999808-63.999808V259.074295l-179.199462-179.199463a12.799962 12.799962 0 0 0-8.447975-3.07199z" fill="#434260" /><path d="M257.535227 595.969284l20.991937-25.599923a87.551737 87.551737 0 0 0 60.15982 25.599923c27.391918 0 42.751872-12.799962 42.751872-31.999904s-15.359954-27.135919-36.351891-36.351891l-31.231907-13.567959a65.023805 65.023805 0 0 1-46.079861-59.135823 67.071799 67.071799 0 0 1 74.239777-62.207813 96.76771 96.76771 0 0 1 67.583797 30.719908l-18.687944 22.783931a72.191783 72.191783 0 0 0-49.663851-20.223939c-23.039931 0-38.143886 11.007967-38.143885 29.183912s18.175945 25.599923 36.60789 34.047898l30.975907 13.31196A63.23181 63.23181 0 0 1 417.534747 563.201382c0 36.351891-29.95191 65.791803-79.615761 65.791803a112.639662 112.639662 0 0 1-80.383759-33.023901zM437.246688 399.105875h36.86389l21.247936 117.503647 12.031964 72.191784c4.863985-24.319927 10.239969-48.383855 15.359954-72.447783l29.183912-117.503648h31.231907L614.398157 516.865521c5.119985 23.551929 10.239969 47.871856 15.359954 72.447783h1.535995c3.583989-25.599923 7.679977-48.895853 11.263966-72.447783l21.503936-117.503647h34.047898l-44.543867 226.047322H609.278172l-30.463908-125.695623c-4.095988-17.919946-7.423978-34.815896-10.495969-51.199847h-1.535995c-3.071991 17.151949-6.65598 34.047898-10.495969 51.199847l-29.695911 125.695623h-43.007871zM734.973795 399.105875h133.887598v29.695911H770.557688v69.119792h83.45575v29.695911H770.557688v97.279708h-35.583893z" fill="#434260" /></svg>