<?xml version="1.0" standalone="no"?><!DOCTYPE svg PUBLIC "-//W3C//DTD SVG 1.1//EN" "http://www.w3.org/Graphics/SVG/1.1/DTD/svg11.dtd"><svg class="icon" width="200px" height="200.00px" viewBox="0 0 1024 1024" version="1.1" xmlns="http://www.w3.org/2000/svg"><path d="M332.799002 686.081014m-332.799002 0a332.799002 332.799002 0 1 0 665.598003 0 332.799002 332.799002 0 1 0-665.598003 0Z" fill="#CCE4F2" /><path d="M883.19735 1024h-639.99808A141.055577 141.055577 0 0 1 102.399693 883.200422v-742.397772A141.055577 141.055577 0 0 1 243.19927 0.003072h516.350451a89.087733 89.087733 0 0 1 63.231811 25.599923l189.695431 189.695431A38.399885 38.399885 0 0 1 1023.996928 243.202342v639.99808a141.055577 141.055577 0 0 1-140.799578 140.799578zM243.19927 76.802842A63.999808 63.999808 0 0 0 179.199462 140.80265v742.397772A63.999808 63.999808 0 0 0 243.19927 947.20023h639.99808a63.999808 63.999808 0 0 0 63.999808-63.999808V259.074295l-179.199462-179.199463a12.799962 12.799962 0 0 0-8.447975-3.07199z" fill="#434260" /><path d="M310.527068 595.969284l20.991937-25.599923a87.551737 87.551737 0 0 0 60.15982 25.599923c27.391918 0 42.751872-12.799962 42.751872-31.999904s-15.359954-27.135919-36.351891-36.351891l-31.231907-13.567959a65.023805 65.023805 0 0 1-46.079861-59.135823 67.071799 67.071799 0 0 1 74.239777-62.207813 96.76771 96.76771 0 0 1 68.351795 28.671914l-18.687944 22.783932a72.191783 72.191783 0 0 0-49.663851-20.22394c-23.039931 0-38.143886 11.007967-38.143886 29.183913s18.175945 25.599923 36.607891 34.047897l30.975907 13.311961A63.23181 63.23181 0 0 1 470.270589 563.201382c0 36.351891-29.95191 65.791803-79.615761 65.791803a112.639662 112.639662 0 0 1-80.12776-33.023901zM545.022365 539.393454l-67.839797-140.287579h38.143886l25.599923 59.90382c7.167978 16.895949 13.567959 32.511902 21.247936 49.663851 7.423978-17.151949 14.847955-32.767902 21.503936-49.663851l25.599923-59.90382h37.119889l-68.095796 140.287579v85.759743h-33.2799zM656.126032 595.969284l20.991937-25.599923a87.551737 87.551737 0 0 0 60.159819 25.599923c27.391918 0 42.751872-12.799962 42.751872-31.999904s-15.359954-27.135919-36.351891-36.351891l-31.231906-13.567959A65.023805 65.023805 0 0 1 665.598003 457.2177a67.071799 67.071799 0 0 1 74.239777-62.207813 96.76771 96.76771 0 0 1 68.351795 28.671914l-18.687944 22.783932a72.191783 72.191783 0 0 0-49.663851-20.22394c-23.039931 0-38.143886 11.007967-38.143885 29.183913s18.175945 25.599923 36.60789 34.047898l30.975907 13.31196A63.23181 63.23181 0 0 1 815.869552 563.201382c0 36.351891-29.95191 65.791803-79.615761 65.791803a112.639662 112.639662 0 0 1-80.127759-33.023901z" fill="#434260" /></svg>