<?xml version="1.0" standalone="no"?><!DOCTYPE svg PUBLIC "-//W3C//DTD SVG 1.1//EN" "http://www.w3.org/Graphics/SVG/1.1/DTD/svg11.dtd"><svg class="icon" width="200px" height="200.00px" viewBox="0 0 1024 1024" version="1.1" xmlns="http://www.w3.org/2000/svg"><path d="M332.799002 686.081014m-332.799002 0a332.799002 332.799002 0 1 0 665.598003 0 332.799002 332.799002 0 1 0-665.598003 0Z" fill="#FFDCEE" /><path d="M342.526972 429.057785h-66.303801v-29.95191h168.447495v29.695911h-66.5598v196.095411h-35.583894zM463.102611 512.001536c0-73.727779 45.567863-118.015646 105.215684-118.015646a90.11173 90.11173 0 0 1 67.327798 28.671914l-19.455942 22.783932a61.183816 61.183816 0 0 0-46.59186-20.22394c-41.983874 0-70.14379 32.511902-70.143789 85.759743s25.599923 86.52774 71.423785 86.52774a56.063832 56.063832 0 0 0 35.583894-11.007966v-52.479843H563.19831v-29.183913h76.79977v98.047706a102.399693 102.399693 0 0 1-71.423786 25.599924c-61.695815 0.767998-105.471684-41.727875-105.471683-116.479651zM793.597619 560.64139h-78.847763l-19.455942 64.511807h-36.095892l75.007775-226.047322h41.215877l75.007775 226.047322h-38.143886z m-8.703974-27.903916l-8.959973-30.463909c-7.679977-25.599923-14.335957-49.663851-21.503935-75.263774-6.399981 25.599923-13.567959 51.199846-20.991937 75.263774l-9.215973 30.463909z" fill="#434260" /><path d="M883.19735 1024h-639.99808A141.055577 141.055577 0 0 1 102.399693 883.200422v-742.397772A141.055577 141.055577 0 0 1 243.19927 0.003072h516.350451a89.087733 89.087733 0 0 1 63.231811 25.599923l189.695431 189.695431A38.399885 38.399885 0 0 1 1023.996928 243.202342v639.99808a141.055577 141.055577 0 0 1-140.799578 140.799578zM243.19927 76.802842A63.999808 63.999808 0 0 0 179.199462 140.80265v742.397772A63.999808 63.999808 0 0 0 243.19927 947.20023h639.99808a63.999808 63.999808 0 0 0 63.999808-63.999808V259.074295l-179.199462-179.199463a12.799962 12.799962 0 0 0-8.447975-3.07199z" fill="#434260" /></svg>