<?xml version="1.0" standalone="no"?><!DOCTYPE svg PUBLIC "-//W3C//DTD SVG 1.1//EN" "http://www.w3.org/Graphics/SVG/1.1/DTD/svg11.dtd"><svg class="icon" width="200px" height="200.00px" viewBox="0 0 1024 1024" version="1.1" xmlns="http://www.w3.org/2000/svg"><path d="M332.799002 686.081014m-332.799002 0a332.799002 332.799002 0 1 0 665.598003 0 332.799002 332.799002 0 1 0-665.598003 0Z" fill="#D3EFDE" /><path d="M883.19735 1024h-639.99808A141.055577 141.055577 0 0 1 102.399693 883.200422v-742.397772A141.055577 141.055577 0 0 1 243.19927 0.003072h516.350451a89.087733 89.087733 0 0 1 63.231811 25.599923l189.695431 189.695431A38.399885 38.399885 0 0 1 1023.996928 243.202342v639.99808a141.055577 141.055577 0 0 1-140.799578 140.799578zM243.19927 76.802842A63.999808 63.999808 0 0 0 179.199462 140.80265v742.397772A63.999808 63.999808 0 0 0 243.19927 947.20023h639.99808a63.999808 63.999808 0 0 0 63.999808-63.999808V259.074295l-179.199462-179.199463a12.799962 12.799962 0 0 0-8.447975-3.07199z" fill="#434260" /><path d="M277.503167 528.129488v-127.999616h35.583894v131.327606c0 51.199846 20.223939 67.583797 48.383855 67.583797s49.407852-16.63995 49.407851-67.583797v-132.351603h34.559897v127.999616c0 73.727779-33.791899 101.119697-83.711749 101.119696s-84.223747-26.367921-84.223748-100.095699zM504.062488 399.105875h133.887598v29.695911h-98.303705v69.119792h83.45575v29.695911h-83.45575v97.279708h-35.583893zM662.270013 512.001536c0-72.703782 40.191879-116.479651 98.303705-116.479651s98.559704 43.519869 98.559705 116.479651-39.93588 117.247648-98.559705 117.247648-98.303705-45.311864-98.303705-117.247648z m160.255519 0c0-53.24784-25.599923-85.247744-61.951814-85.247744S698.877903 458.241697 698.877903 512.001536s24.319927 86.78374 61.695815 86.78374S822.525532 563.201382 822.525532 512.001536z" fill="#434260" /></svg>