<?xml version="1.0" standalone="no"?><!DOCTYPE svg PUBLIC "-//W3C//DTD SVG 1.1//EN" "http://www.w3.org/Graphics/SVG/1.1/DTD/svg11.dtd"><svg class="icon" width="200px" height="200.00px" viewBox="0 0 1024 1024" version="1.1" xmlns="http://www.w3.org/2000/svg"><path d="M332.799002 686.081014m-332.799002 0a332.799002 332.799002 0 1 0 665.598003 0 332.799002 332.799002 0 1 0-665.598003 0Z" fill="#CCE4F2" /><path d="M883.19735 1024h-639.99808A141.055577 141.055577 0 0 1 102.399693 883.200422v-742.397772A141.055577 141.055577 0 0 1 243.19927 0.003072h516.350451a89.087733 89.087733 0 0 1 63.231811 25.599923l189.695431 189.695431A38.399885 38.399885 0 0 1 1023.996928 243.202342v639.99808a141.055577 141.055577 0 0 1-140.799578 140.799578zM243.19927 76.802842A63.999808 63.999808 0 0 0 179.199462 140.80265v742.397772A63.999808 63.999808 0 0 0 243.19927 947.20023h639.99808a63.999808 63.999808 0 0 0 63.999808-63.999808V259.074295l-179.199462-179.199463a12.799962 12.799962 0 0 0-8.447975-3.07199z" fill="#434260" /><path d="M275.711173 371.713957h37.887886l33.5359 116.991649c7.679977 25.599923 12.543962 47.871856 20.479938 73.983778h1.535996c7.679977-25.599923 13.31196-48.127856 20.479938-73.983778l33.535899-116.991649h36.351891l-70.655788 226.047322h-42.239873zM676.861969 650.497121a89.85573 89.85573 0 0 1-34.815895 5.887982 91.135727 91.135727 0 0 1-87.807737-55.807833c-48.895853-8.191975-81.407756-51.199846-81.407755-116.73565 0-72.703782 40.191879-116.479651 98.303705-116.47965s98.559704 43.519869 98.559704 116.47965c0 63.48781-30.975907 105.983682-76.79977 115.711653a57.855826 57.855826 0 0 0 53.759839 27.647917 82.687752 82.687752 0 0 0 24.063928-3.32799z m-105.727682-76.79977c37.375888 0 61.951814-34.047898 61.951814-88.831734s-25.599923-85.247744-61.951814-85.247744-61.695815 31.231906-61.695815 84.223747 24.319927 88.831734 61.695815 88.831734zM716.79785 371.713957h133.887598v29.695911h-98.303705v69.119792h83.455749v29.695911h-83.455749v97.279708H716.79785z" fill="#434260" /></svg>