<?xml version="1.0" standalone="no"?><!DOCTYPE svg PUBLIC "-//W3C//DTD SVG 1.1//EN" "http://www.w3.org/Graphics/SVG/1.1/DTD/svg11.dtd"><svg class="icon" width="200px" height="200.00px" viewBox="0 0 1024 1024" version="1.1" xmlns="http://www.w3.org/2000/svg"><path d="M332.799002 686.081014m-332.799002 0a332.799002 332.799002 0 1 0 665.598003 0 332.799002 332.799002 0 1 0-665.598003 0Z" fill="#CCE4F2" /><path d="M883.19735 1024h-639.99808A141.055577 141.055577 0 0 1 102.399693 883.200422v-742.397772A141.055577 141.055577 0 0 1 243.19927 0.003072h516.350451a89.087733 89.087733 0 0 1 63.231811 25.599923l189.695431 189.695431A38.399885 38.399885 0 0 1 1023.996928 243.202342v639.99808a141.055577 141.055577 0 0 1-140.799578 140.799578zM243.19927 76.802842A63.999808 63.999808 0 0 0 179.199462 140.80265v742.397772A63.999808 63.999808 0 0 0 243.19927 947.20023h639.99808a63.999808 63.999808 0 0 0 63.999808-63.999808V259.074295l-179.199462-179.199463a12.799962 12.799962 0 0 0-8.447975-3.07199z" fill="#434260" /><path d="M244.735266 399.105875H281.599155l21.247936 117.503647 12.031964 72.191784c4.863985-24.319927 10.239969-48.383855 15.359954-72.447783l29.183913-117.503648h31.231906l29.439912 117.503648c5.119985 23.551929 10.239969 47.871856 15.359954 72.447783h1.535995c3.583989-25.599923 7.679977-48.895853 11.263966-72.447783l21.503936-117.503648h34.047898L460.798618 624.897197h-44.031868l-30.463909-125.695623c-4.095988-17.919946-7.423978-34.815896-10.495968-51.199846h-1.535996c-3.071991 17.151949-6.65598 34.047898-10.495968 51.199846l-29.695911 125.695623h-42.751872zM646.910059 560.64139H568.318295l-19.455942 64.511807H511.998464l76.79977-226.047322h41.215876l75.007775 226.047322H665.598003z m-8.703974-27.903916l-8.959973-30.463909c-7.679977-25.599923-14.335957-49.663851-21.503935-75.263774-6.399981 25.599923-13.567959 51.199846-20.991937 75.263774l-9.215973 30.463909zM697.853906 399.105875h37.887887L767.997696 516.097524c7.679977 25.599923 12.543962 47.871856 20.479939 73.983778h1.535995c7.679977-25.599923 13.31196-48.127856 20.479939-73.983778L844.797466 399.105875h36.351891l-70.655788 226.047322H767.997696z" fill="#434260" /></svg>