<?xml version="1.0" standalone="no"?><!DOCTYPE svg PUBLIC "-//W3C//DTD SVG 1.1//EN" "http://www.w3.org/Graphics/SVG/1.1/DTD/svg11.dtd"><svg class="icon" width="200px" height="200.00px" viewBox="0 0 1024 1024" version="1.1" xmlns="http://www.w3.org/2000/svg"><path d="M332.799002 686.081014m-332.799002 0a332.799002 332.799002 0 1 0 665.598003 0 332.799002 332.799002 0 1 0-665.598003 0Z" fill="#FFDCEE" /><path d="M883.19735 1024h-639.99808A141.055577 141.055577 0 0 1 102.399693 883.200422v-742.397772A141.055577 141.055577 0 0 1 243.19927 0.003072h516.350451a89.087733 89.087733 0 0 1 63.231811 25.599923l189.695431 189.695431A38.399885 38.399885 0 0 1 1023.996928 243.202342v639.99808a141.055577 141.055577 0 0 1-140.799578 140.799578zM243.19927 76.802842A63.999808 63.999808 0 0 0 179.199462 140.80265v742.397772A63.999808 63.999808 0 0 0 243.19927 947.20023h639.99808a63.999808 63.999808 0 0 0 63.999808-63.999808V259.074295l-179.199462-179.199463a12.799962 12.799962 0 0 0-8.447975-3.07199z" fill="#434260" /><path d="M209.663371 417.793819h30.719908l17.663947 98.047705 9.98397 60.415819c4.095988-20.223939 8.447975-40.447879 12.799962-60.415819L307.199078 417.793819h25.599924l25.599923 98.047705c4.351987 19.711941 8.447975 39.93588 12.799961 60.415819 3.071991-20.479939 6.399981-40.703878 9.471972-60.415819l17.919946-98.047705h28.415915l-37.119889 188.415434h-37.119888l-25.599924-104.703686c-3.32799-14.847955-6.143982-28.927913-8.703973-43.26387-2.559992 14.335957-5.631983 28.415915-8.703974 43.26387l-25.599923 104.703686H248.319255zM452.094644 417.793819H563.19831v25.599923h-81.407755v51.199846h69.119792v25.599923h-69.119792v60.927818h84.479746v25.599923h-114.175657zM591.870224 417.793819h58.367825c38.655884 0 66.5598 12.287963 66.559801 46.335861a41.727875 41.727875 0 0 1-25.599924 40.703877v1.279997a43.26387 43.26387 0 0 1 37.119889 44.799865c0 37.375888-30.463909 55.295834-72.191783 55.295834h-64.255808z m55.039835 78.591764c28.671914 0 40.703878-10.751968 40.703878-28.415915s-13.31196-27.135919-39.93588-27.135919h-25.599923v55.551834z m4.607986 86.52774c29.439912 0 46.335861-10.495969 46.335861-33.535899s-16.383951-30.463909-46.335861-30.463909h-29.95191v63.999808zM748.797754 417.793819h34.047897L817.405548 512.001536c4.351987 12.543962 8.191975 25.599923 12.543962 38.143886 4.351987-12.799962 7.935976-25.599923 12.287963-38.143886l34.047898-95.231714h34.303897v188.415434h-26.62392V512.001536c0-16.895949 2.303993-41.215876 3.839989-58.367825l-15.103955 43.51987L838.909483 588.801306h-18.431944l-33.023901-89.855731-14.847956-43.519869c0 17.151949 3.583989 41.471876 3.583989 58.367825v93.18372h-25.599923z" fill="#434260" /></svg>