<?xml version="1.0" standalone="no"?><!DOCTYPE svg PUBLIC "-//W3C//DTD SVG 1.1//EN" "http://www.w3.org/Graphics/SVG/1.1/DTD/svg11.dtd"><svg class="icon" width="200px" height="200.00px" viewBox="0 0 1024 1024" version="1.1" xmlns="http://www.w3.org/2000/svg"><path d="M332.799002 686.081014m-332.799002 0a332.799002 332.799002 0 1 0 665.598003 0 332.799002 332.799002 0 1 0-665.598003 0Z" fill="#F4EFC9" /><path d="M883.19735 1024h-639.99808A141.055577 141.055577 0 0 1 102.399693 883.200422v-742.397772A141.055577 141.055577 0 0 1 243.19927 0.003072h516.350451a89.087733 89.087733 0 0 1 63.231811 25.599923l189.695431 189.695431A38.399885 38.399885 0 0 1 1023.996928 243.202342v639.99808a141.055577 141.055577 0 0 1-140.799578 140.799578zM243.19927 76.802842A63.999808 63.999808 0 0 0 179.199462 140.80265v742.397772A63.999808 63.999808 0 0 0 243.19927 947.20023h639.99808a63.999808 63.999808 0 0 0 63.999808-63.999808V259.074295l-179.199462-179.199463a12.799962 12.799962 0 0 0-8.447975-3.07199z" fill="#434260" /><path d="M294.655116 399.105875H332.799002l21.247936 117.503647 10.751968 72.191784c4.863985-24.319927 10.239969-48.383855 15.359954-72.447783L409.598771 399.105875h31.231907l29.439911 117.503647c5.119985 23.551929 10.239969 47.871856 15.359954 72.447783h1.535996c3.583989-25.599923 7.679977-48.895853 11.263966-72.447783l21.503935-117.503647h34.047898l-44.543866 226.047322h-42.751872L435.198694 499.457574c-4.095988-17.919946-7.423978-34.815896-10.495968-51.199847h-1.535996c-3.071991 17.151949-6.65598 34.047898-10.495968 51.199847L383.998848 624.897197h-43.007871zM592.382223 399.105875h35.583893v106.751679l86.015742-106.751679h39.679881L684.541946 486.401613l81.663755 138.751584h-39.679881l-63.743808-110.591669-34.815896 42.495873v68.095796h-35.583893zM796.157612 399.105875h35.583893v226.047322H796.157612z" fill="#434260" /></svg>