<?xml version="1.0" standalone="no"?><!DOCTYPE svg PUBLIC "-//W3C//DTD SVG 1.1//EN" "http://www.w3.org/Graphics/SVG/1.1/DTD/svg11.dtd"><svg class="icon" width="200px" height="200.00px" viewBox="0 0 1024 1024" version="1.1" xmlns="http://www.w3.org/2000/svg"><path d="M332.799002 686.081014m-332.799002 0a332.799002 332.799002 0 1 0 665.598003 0 332.799002 332.799002 0 1 0-665.598003 0Z" fill="#DFDFF2" /><path d="M883.19735 1024h-639.99808A141.055577 141.055577 0 0 1 102.399693 883.200422v-742.397772A141.055577 141.055577 0 0 1 243.19927 0.003072h516.350451a89.087733 89.087733 0 0 1 63.231811 25.599923l189.695431 189.695431A38.399885 38.399885 0 0 1 1023.996928 243.202342v639.99808a141.055577 141.055577 0 0 1-140.799578 140.799578zM243.19927 76.802842A63.999808 63.999808 0 0 0 179.199462 140.80265v742.397772A63.999808 63.999808 0 0 0 243.19927 947.20023h639.99808a63.999808 63.999808 0 0 0 63.999808-63.999808V259.074295l-179.199462-179.199463a12.799962 12.799962 0 0 0-8.447975-3.07199z" fill="#434260" /><path d="M215.295354 399.105875h36.86389l21.247936 117.503647 12.031964 72.191784c4.863985-24.319927 10.239969-48.383855 15.359954-72.447783l29.183912-117.503648h31.231906l29.439912 117.503648c5.119985 23.551929 10.239969 47.871856 15.359954 72.447783H409.598771c3.583989-25.599923 7.679977-48.895853 11.263966-72.447783l21.503936-117.503648h34.047898l-44.543867 226.047322h-44.543866l-30.463909-125.695623c-4.095988-17.919946-7.423978-34.815896-10.495968-51.199846h-1.535995c-3.071991 17.151949-6.65598 34.047898-10.495969 51.199846l-29.695911 125.695623h-42.751872zM507.902476 399.105875h40.959877L590.334229 512.001536c5.119985 15.103955 9.727971 30.463909 15.103955 45.823863h1.535995c5.119985-15.359954 9.471972-30.719908 14.847956-45.823863l40.959877-114.175657h41.215876v226.047321h-33.535899V512.001536c0-20.223939 2.815992-49.407852 4.607986-69.88779l-18.175946 51.199846-39.423881 107.775677h-22.015934l-39.679881-107.775677-17.919947-51.199846c1.535995 20.479939 4.351987 49.663851 4.351987 69.88779v111.871664h-34.303897zM727.293818 399.105875h37.887886l33.5359 116.991649c7.679977 25.599923 12.543962 47.871856 20.479938 73.983778h1.535996c7.679977-25.599923 13.31196-48.127856 20.479938-73.983778l33.5359-116.991649h36.351891l-70.655788 226.047322h-42.239874z" fill="#434260" /></svg>