<?xml version="1.0" standalone="no"?><!DOCTYPE svg PUBLIC "-//W3C//DTD SVG 1.1//EN" "http://www.w3.org/Graphics/SVG/1.1/DTD/svg11.dtd"><svg class="icon" width="200px" height="200.00px" viewBox="0 0 1024 1024" version="1.1" xmlns="http://www.w3.org/2000/svg"><path d="M332.799002 686.081014m-332.799002 0a332.799002 332.799002 0 1 0 665.598003 0 332.799002 332.799002 0 1 0-665.598003 0Z" fill="#D3EFDE" /><path d="M883.19735 1024h-639.99808A141.055577 141.055577 0 0 1 102.399693 883.200422v-742.397772A141.055577 141.055577 0 0 1 243.19927 0.003072h516.350451a89.087733 89.087733 0 0 1 63.231811 25.599923l189.695431 189.695431A38.399885 38.399885 0 0 1 1023.996928 243.202342v639.99808a141.055577 141.055577 0 0 1-140.799578 140.799578zM243.19927 76.802842A63.999808 63.999808 0 0 0 179.199462 140.80265v742.397772A63.999808 63.999808 0 0 0 243.19927 947.20023h639.99808a63.999808 63.999808 0 0 0 63.999808-63.999808V259.074295l-179.199462-179.199463a12.799962 12.799962 0 0 0-8.447975-3.07199z" fill="#434260" /><path d="M209.663371 436.737762h25.599923l14.079958 78.335765L255.999232 563.201382c3.32799-16.127952 6.65598-32.255903 10.239969-48.383854l19.455942-78.335765H307.199078l19.711941 78.335765c3.583989 15.871952 6.65598 31.999904 10.23997 48.383854 2.559992-16.383951 5.119985-32.511902 7.679977-48.383854l14.335956-78.335765H383.998848l-29.695911 150.527548h-30.207909l-20.22394-83.711749c-2.559992-11.775965-4.863985-23.039931-6.911979-34.559896-2.047994 11.519965-4.607986 22.783932-6.911979 34.559896l-19.96794 83.711749H240.383279zM395.262814 436.737762h27.135919l27.647917 76.799769c3.583989 9.98397 6.65598 20.223939 9.98397 30.463909 3.583989-10.239969 6.399981-20.479939 9.727971-30.463909l27.135918-76.799769h27.391918v150.527548h-22.015934V512.001536c0-13.567959 1.791995-33.023901 3.071991-46.59186l-12.031964 34.815895-25.599923 71.935785h-14.847956l-25.599923-71.935785-11.775964-34.815895c0 13.823959 2.815992 33.023901 2.815991 46.59186v74.495777h-21.247936zM539.90238 436.737762h25.599923l22.271934 76.799769c5.119985 17.151949 8.447975 31.999904 13.823958 49.407852 5.119985-17.407948 8.703974-32.255903 13.823959-49.407852l22.271933-76.799769h24.063928L614.398157 587.26531h-28.159916zM676.60597 436.737762h23.807929v61.439815h64.511806v-61.439815h23.807929v150.527548h-23.807929v-68.607794h-64.511806v68.607794h-23.807929zM805.117585 436.737762H844.797466A66.303801 66.303801 0 0 1 916.73325 512.001536c0 48.895853-25.599923 76.79977-71.423786 76.79977h-40.191879z m37.375888 131.327606c32.255903 0 49.663851-18.943943 49.663851-56.57583s-17.407948-55.551833-49.663851-55.551834h-13.823959v111.871665z" fill="#434260" /></svg>