<?xml version="1.0" standalone="no"?><!DOCTYPE svg PUBLIC "-//W3C//DTD SVG 1.1//EN" "http://www.w3.org/Graphics/SVG/1.1/DTD/svg11.dtd"><svg class="icon" width="200px" height="200.00px" viewBox="0 0 1024 1024" version="1.1" xmlns="http://www.w3.org/2000/svg"><path d="M332.799002 686.081014m-332.799002 0a332.799002 332.799002 0 1 0 665.598003 0 332.799002 332.799002 0 1 0-665.598003 0Z" fill="#FFDCEE" /><path d="M883.19735 1024h-639.99808A141.055577 141.055577 0 0 1 102.399693 883.200422v-742.397772A141.055577 141.055577 0 0 1 243.19927 0.003072h516.350451a89.087733 89.087733 0 0 1 63.231811 25.599923l189.695431 189.695431A38.399885 38.399885 0 0 1 1023.996928 243.202342v639.99808a141.055577 141.055577 0 0 1-140.799578 140.799578zM243.19927 76.802842A63.999808 63.999808 0 0 0 179.199462 140.80265v742.397772A63.999808 63.999808 0 0 0 243.19927 947.20023h639.99808a63.999808 63.999808 0 0 0 63.999808-63.999808V259.074295l-179.199462-179.199463a12.799962 12.799962 0 0 0-8.447975-3.07199z" fill="#434260" /><path d="M195.583413 409.601843H230.399309l19.455941 107.775677 11.007967 66.5598c4.607986-22.271933 9.215972-44.543866 14.079958-66.5598l25.599923-107.775677h28.671914L358.398925 516.353523c4.863985 21.759935 9.215972 44.031868 14.079958 66.5598h1.279996c3.32799-22.527932 7.167978-44.799866 10.495968-66.5598l18.943943-106.75168H435.198694l-40.959877 207.359378h-40.703878l-27.903916-115.199654c-3.583989-16.383951-6.65598-31.743905-9.471971-47.615857h-1.535996c-2.815992 15.871952-6.143982 31.231906-9.471971 47.615857l-27.391918 115.199654H238.335285zM445.438664 512.001536c0-66.8158 36.863889-106.75168 90.111729-106.75168s90.367729 39.93588 90.367729 106.75168-37.119889 107.519677-90.367729 107.519677-90.11173-41.471876-90.111729-107.519677z m146.943559 0c0-48.639854-22.527932-78.335765-56.83183-78.335765s-56.57583 28.927913-56.57583 78.335765 22.271933 79.615761 56.57583 79.615761 56.83183-31.487906 56.83183-79.615761zM656.126032 409.601843h122.879631v25.599923h-90.11173v63.999808h76.79977v27.391918h-76.79977v89.343732h-32.767901zM807.933576 409.601843h122.879632v25.599923h-90.367729v63.999808h76.799769v27.391918h-76.799769v89.343732h-32.511903z" fill="#434260" /></svg>