<?xml version="1.0" standalone="no"?><!DOCTYPE svg PUBLIC "-//W3C//DTD SVG 1.1//EN" "http://www.w3.org/Graphics/SVG/1.1/DTD/svg11.dtd"><svg class="icon" width="200px" height="200.00px" viewBox="0 0 1024 1024" version="1.1" xmlns="http://www.w3.org/2000/svg"><path d="M332.799002 686.081014m-332.799002 0a332.799002 332.799002 0 1 0 665.598003 0 332.799002 332.799002 0 1 0-665.598003 0Z" fill="#D3EFDE" /><path d="M883.19735 1024h-639.99808A141.055577 141.055577 0 0 1 102.399693 883.200422v-742.397772A141.055577 141.055577 0 0 1 243.19927 0.003072h516.350451a89.087733 89.087733 0 0 1 63.231811 25.599923l189.695431 189.695431A38.399885 38.399885 0 0 1 1023.996928 243.202342v639.99808a141.055577 141.055577 0 0 1-140.799578 140.799578zM243.19927 76.802842A63.999808 63.999808 0 0 0 179.199462 140.80265v742.397772A63.999808 63.999808 0 0 0 243.19927 947.20023h639.99808a63.999808 63.999808 0 0 0 63.999808-63.999808V259.074295l-179.199462-179.199463a12.799962 12.799962 0 0 0-8.447975-3.07199z" fill="#434260" /><path d="M371.198886 508.417547l-60.671818-109.311672h39.679881l27.391918 52.735841c5.631983 10.495969 10.495969 20.479939 17.151949 34.047898h1.535995c5.887982-13.567959 10.239969-23.551929 15.359954-34.047898l25.599923-52.735841h37.375888l-59.90382 111.103666 65.023805 114.943656H440.318679l-30.719908-56.319832-18.687944-36.863889c-6.399981 13.823959-12.031964 25.599923-17.407948 36.863889l-28.927913 56.063832H307.199078zM517.886446 603.137263h164.607507v21.759934h-164.607507zM728.061816 428.801786h-66.303801v-29.695911h168.447494v29.695911h-66.5598v196.095411h-35.583893z" fill="#434260" /></svg>