<?xml version="1.0" standalone="no"?><!DOCTYPE svg PUBLIC "-//W3C//DTD SVG 1.1//EN" "http://www.w3.org/Graphics/SVG/1.1/DTD/svg11.dtd"><svg class="icon" width="200px" height="200.00px" viewBox="0 0 1024 1024" version="1.1" xmlns="http://www.w3.org/2000/svg"><path d="M332.799002 686.081014m-332.799002 0a332.799002 332.799002 0 1 0 665.598003 0 332.799002 332.799002 0 1 0-665.598003 0Z" fill="#DFDFF2" /><path d="M883.19735 1024h-639.99808A141.055577 141.055577 0 0 1 102.399693 883.200422v-742.397772A141.055577 141.055577 0 0 1 243.19927 0.003072h516.350451a89.087733 89.087733 0 0 1 63.231811 25.599923l189.695431 189.695431A38.399885 38.399885 0 0 1 1023.996928 243.202342v639.99808a141.055577 141.055577 0 0 1-140.799578 140.799578zM243.19927 76.802842A63.999808 63.999808 0 0 0 179.199462 140.80265v742.397772A63.999808 63.999808 0 0 0 243.19927 947.20023h639.99808a63.999808 63.999808 0 0 0 63.999808-63.999808V259.074295l-179.199462-179.199463a12.799962 12.799962 0 0 0-8.447975-3.07199z" fill="#434260" /><path d="M265.471204 508.417547L204.799386 399.105875h39.423881l27.391918 52.735841c5.631983 10.495969 10.495969 20.479939 17.151949 34.047898h1.535995c5.887982-13.567959 10.239969-23.551929 15.359954-34.047898l25.599923-52.735841h37.375888l-60.671818 111.103666 65.023805 114.943656h-38.399885l-29.695911-56.063832-18.687944-36.86389c-6.399981 13.823959-12.031964 25.599923-17.407947 36.86389l-30.20791 56.063832H200.703398zM398.334805 399.105875H435.198694v195.839412h95.487714v30.20791h-132.351603zM545.278364 595.969284l20.991937-25.599923a87.551737 87.551737 0 0 0 60.15982 25.599923c27.391918 0 42.751872-12.799962 42.751871-31.999904s-15.359954-27.135919-36.35189-36.351891l-31.231907-13.567959a65.023805 65.023805 0 0 1-46.079862-59.135823 67.071799 67.071799 0 0 1 74.239778-62.207813 96.76771 96.76771 0 0 1 68.351795 28.671914l-18.687944 22.783932a72.191783 72.191783 0 0 0-49.663851-20.22394c-23.039931 0-38.143886 11.007967-38.143886 29.183913s18.175945 25.599923 36.60789 34.047897l30.975907 13.311961a63.23181 63.23181 0 0 1 46.079862 62.719811c0 36.351891-29.95191 65.791803-79.615761 65.791803a112.639662 112.639662 0 0 1-80.383759-33.023901zM730.10981 399.105875h40.959877l41.471875 114.175657c5.119985 15.103955 9.727971 30.463909 15.103955 45.823863h1.535995c5.119985-15.359954 9.471972-30.719908 14.847956-45.823863l40.959877-114.175657h41.215876v226.047322h-33.791898v-111.871665c0-20.223939 2.815992-49.407852 4.607986-70.143789l-18.175946 51.199846-39.423881 107.775677h-22.015934l-39.679881-107.775677-17.919946-51.199846c1.535995 20.479939 4.351987 49.663851 4.351987 70.143789v111.871665h-34.047898z" fill="#434260" /></svg>