<?xml version="1.0" standalone="no"?><!DOCTYPE svg PUBLIC "-//W3C//DTD SVG 1.1//EN" "http://www.w3.org/Graphics/SVG/1.1/DTD/svg11.dtd"><svg class="icon" width="200px" height="200.00px" viewBox="0 0 1024 1024" version="1.1" xmlns="http://www.w3.org/2000/svg"><path d="M332.799002 686.081014m-332.799002 0a332.799002 332.799002 0 1 0 665.598003 0 332.799002 332.799002 0 1 0-665.598003 0Z" fill="#F4EFC9" /><path d="M883.19735 1024h-639.99808A141.055577 141.055577 0 0 1 102.399693 883.200422v-742.397772A141.055577 141.055577 0 0 1 243.19927 0.003072h516.350451a89.087733 89.087733 0 0 1 63.231811 25.599923l189.695431 189.695431A38.399885 38.399885 0 0 1 1023.996928 243.202342v639.99808a141.055577 141.055577 0 0 1-140.799578 140.799578zM243.19927 76.802842A63.999808 63.999808 0 0 0 179.199462 140.80265v742.397772A63.999808 63.999808 0 0 0 243.19927 947.20023h639.99808a63.999808 63.999808 0 0 0 63.999808-63.999808V259.074295l-179.199462-179.199463a12.799962 12.799962 0 0 0-8.447975-3.07199z" fill="#434260" /><path d="M257.791227 509.441544l-45.823863-82.431753h29.95191l20.479939 39.93588c4.095988 7.935976 7.935976 15.359954 12.799961 25.599923 4.351987-10.239969 7.679977-17.663947 11.519966-25.599923l20.479938-39.93588h28.159916L290.559128 512.001536l48.895854 86.271741h-29.951911l-22.271933-42.239873-14.079957-27.647917c-4.607986 10.495969-8.959973 18.943943-13.055961 27.647917l-21.759935 42.239873H209.151373zM365.054905 427.009791h30.719908L426.75072 512.001536c3.839988 11.263966 7.423978 22.783932 11.263966 34.047898 3.839988-11.263966 7.167978-22.783932 11.007967-34.047898l30.719908-86.015742H511.998464v169.727491h-25.599923V512.001536c0-15.103955 2.047994-37.119889 3.32799-52.479843l-13.567959 39.167883-29.439912 80.895757h-16.63995l-29.695911-80.895757-13.567959-37.887886c0 15.359954 3.32799 37.375888 3.32799 52.479842v83.967748h-24.063928zM556.286331 427.009791h25.599923v169.727491h-25.599923zM627.454118 427.009791h27.391917l56.319832 99.8397 17.663947 36.351891c-1.279996-17.407948-3.583989-38.143886-3.58399-56.57583v-79.359762h25.599923v169.727491H724.477827l-56.319831-100.0957-17.663947-36.095891c1.279996 17.407948 3.32799 37.119889 3.32799 55.551833v79.87176h-25.599924zM796.66961 427.009791h44.031868c51.199846 0 81.919754 28.927913 81.919754 84.223747s-29.695911 85.503743-80.383759 85.503744h-45.567863z m42.239873 147.967556c36.351891 0 56.063832-21.503935 56.063832-63.487809s-19.455942-62.463813-56.063832-62.463813h-15.359954v125.951622z" fill="#434260" /></svg>