<?xml version="1.0" standalone="no"?><!DOCTYPE svg PUBLIC "-//W3C//DTD SVG 1.1//EN" "http://www.w3.org/Graphics/SVG/1.1/DTD/svg11.dtd"><svg class="icon" width="200px" height="200.00px" viewBox="0 0 1024 1024" version="1.1" xmlns="http://www.w3.org/2000/svg"><path d="M332.799002 686.081014m-332.799002 0a332.799002 332.799002 0 1 0 665.598003 0 332.799002 332.799002 0 1 0-665.598003 0Z" fill="#F4EFC9" /><path d="M883.19735 1024h-639.99808A141.055577 141.055577 0 0 1 102.399693 883.200422v-742.397772A141.055577 141.055577 0 0 1 243.19927 0.003072h516.350451a89.087733 89.087733 0 0 1 63.231811 25.599923l189.695431 189.695431A38.399885 38.399885 0 0 1 1023.996928 243.202342v639.99808a141.055577 141.055577 0 0 1-140.799578 140.799578zM243.19927 76.802842A63.999808 63.999808 0 0 0 179.199462 140.80265v742.397772A63.999808 63.999808 0 0 0 243.19927 947.20023h639.99808a63.999808 63.999808 0 0 0 63.999808-63.999808V259.074295l-179.199462-179.199463a12.799962 12.799962 0 0 0-8.447975-3.07199z" fill="#434260" /><path d="M301.567095 508.417547L240.639278 399.105875h39.679881L307.199078 451.841716c5.631983 10.495969 10.495969 20.479939 17.151949 34.047898h1.535995c5.887982-13.567959 10.239969-23.551929 15.359954-34.047898l25.599923-52.735841h37.375888l-60.671818 111.103666L409.598771 624.897197h-38.911883l-29.695911-56.063832-18.687944-36.863889c-6.399981 13.823959-12.031964 25.599923-17.407948 36.863889l-28.927913 56.063832H236.79929zM414.206757 399.105875h37.887887L486.398541 516.097524c7.679977 25.599923 12.543962 47.871856 20.479938 73.983778h1.535996c7.679977-25.599923 13.31196-48.127856 20.479938-73.983778l33.5359-116.991649h36.351891l-71.423786 225.791322H486.398541zM627.198118 399.105875h35.583894v226.047322H627.198118zM721.917834 399.105875h58.879824c69.375792 0 109.055673 38.399885 109.055672 112.127663s-39.679881 113.919658-107.263678 113.919659H721.917834z m56.319831 196.863409c48.383855 0 74.495777-28.671914 74.495777-84.735746s-25.599923-83.19975-74.495777-83.19975h-20.479938v167.935496z" fill="#434260" /></svg>