<?xml version="1.0" standalone="no"?><!DOCTYPE svg PUBLIC "-//W3C//DTD SVG 1.1//EN" "http://www.w3.org/Graphics/SVG/1.1/DTD/svg11.dtd"><svg t="1594949803102" class="icon" viewBox="0 0 1024 1024" version="1.1" xmlns="http://www.w3.org/2000/svg" p-id="2279" xmlns:xlink="http://www.w3.org/1999/xlink" width="200" height="200"><defs><style type="text/css"></style></defs><path d="M963.9424 520.18176c-1.79712 238.32064-192.47616 436.28032-431.04256 445.23008-237.78816 8.92416-443.06944-180.61824-459.01824-416.54272C57.856 311.83872 239.89248 99.6352 475.59168 76.59008c236.05248-23.07584 454.82496 151.424 484.93568 386.6112 2.41664 18.88256 3.26144 37.92896 3.41504 56.98048 0.24064 32.9984 51.45088 33.01888 51.2 0-1.76128-234.1632-168.2176-439.82848-398.32064-486.912C386.94912-13.76256 149.34528 113.76128 59.75552 329.96864-31.03744 549.0944 49.82784 802.9184 244.97152 934.7584c195.78368 132.27008 465.408 98.17088 629.40672-68.16256 90.53696-91.83744 139.79648-218.08128 140.75904-346.41408 0.24064-33.06496-50.95936-33.04448-51.19488 0z" p-id="2280"></path><path d="M239.42144 545.76128h558.1056c33.01376 0 33.01376-51.23584 0-51.23584H239.42144c-33.01888 0-33.01888 51.23584 0 51.23584z" p-id="2281"></path><path d="M544.1024 799.20128V241.09056c0-33.01888-51.23072-33.01888-51.23072 0v558.11072c-0.00512 33.01376 51.23072 33.01376 51.23072 0z" p-id="2282"></path></svg>