<?xml version="1.0" standalone="no"?><!DOCTYPE svg PUBLIC "-//W3C//DTD SVG 1.1//EN" "http://www.w3.org/Graphics/SVG/1.1/DTD/svg11.dtd"><svg t="1592143221448" class="icon" viewBox="0 0 1024 1024" version="1.1" xmlns="http://www.w3.org/2000/svg" p-id="2568" xmlns:xlink="http://www.w3.org/1999/xlink" width="200" height="200"><defs><style type="text/css"></style></defs><path d="M689.641351 411.482679c0 6.046716 0.431835 12.133342-0.125867 18.130939-0.506537 5.436826 1.440815 6.835685 6.489808 6.237051 36.348859-4.299933 70.868047 2.424212 102.898555 19.59222 55.276954 29.623691 86.608543 76.366272 95.429443 138.264017 2.153036 15.09479-2.444679 27.982308-15.495926 36.601616-11.509125 7.604188-23.905456 8.066723-35.941584 1.172709-11.006681-6.30152-16.213263-16.301268-18.044982-28.886911-6.818289-46.828538-32.426527-79.198783-77.747735-93.074815-39.798425-12.183484-76.939323-3.77907-106.826004 25.578562-68.665893 67.454298-136.304386 135.953392-204.465788 203.923436-32.568766 32.475646-71.38891 50.953486-117.774357 54.386678-90.432639 6.697539-168.177304-56.065923-186.951903-138.084938-24.041556-105.017822 46.965661-208.337979 159.723771-220.48053 10.906397-1.174756 22.029736-1.291412 32.9259 0.38374 6.433526 0.988514 8.731872 0.207731 8.15575-7.231705-2.411933-31.147394 1.074472-61.550845 14.32731-90.239234 28.02017-60.654428 75.401294-96.17441 141.200906-106.171088 71.04201-10.791787 145.764851 27.092032 179.905416 89.940428C684.241364 352.662015 690.150958 376.044562 689.641351 411.482679zM620.501668 410.010141c1.044796-55.863309-44.008306-109.989043-110.020766-110.275569-60.398602-0.260943-109.216447 49.629327-109.476367 110.101607-0.24457 57.08616 45.0091 109.920482 109.706611 109.866247C574.836629 519.649214 620.900757 468.037742 620.501668 410.010141zM305.704029 505.531682c-61.21213-2.200108-110.138446 51.575656-109.564371 109.139699 0.583285 58.380642 46.017056 109.776196 109.74959 109.769033 65.567321-0.00921 109.310591-52.623521 109.573581-109.844757C415.748331 552.893362 364.195188 503.776711 305.704029 505.531682z" p-id="2569"></path><path d="M894.783545 759.206218c-0.00921 19.534915-14.94334 34.916231-34.019815 35.035958-19.166525 0.122797-35.289738-16.005532-35.226293-35.240619 0.062422-18.859533 15.766079-34.111912 35.080983-34.075073C880.607684 724.965369 894.793778 739.197512 894.783545 759.206218z" p-id="2570"></path></svg>