<?xml version="1.0" standalone="no"?><!DOCTYPE svg PUBLIC "-//W3C//DTD SVG 1.1//EN" "http://www.w3.org/Graphics/SVG/1.1/DTD/svg11.dtd"><svg t="1594808049781" class="icon" viewBox="0 0 1024 1024" version="1.1" xmlns="http://www.w3.org/2000/svg" p-id="19825" xmlns:xlink="http://www.w3.org/1999/xlink" width="200" height="200"><defs><style type="text/css"></style></defs><path d="M307.09064 376.728425V312.840872c-225.105729 0-241.897819 148.800496-241.89782 148.800496s-1.904985-260.453784 241.89782-260.453784V137.441141l142.344713 119.590726-142.344713 119.696558zM934.254039 801.928136c-4.51552-22.330658-6.77328-57.325938-6.77328-104.703621l1.587488-166.721466c0-62.053123-6.561615-104.456678-19.155683-127.704551-12.629345-23.247873-34.536673-42.403555-65.651428-57.325938-31.361698-15.09877-78.739381-22.789265-142.379991-22.789265-69.955283 0-122.977366 12.629345-158.395976 37.67637-35.41861 25.047025-60.6773 63.605333-75.141076 115.745478l129.503704 23.459538c8.784098-25.047025 20.31984-42.650498 34.501395-52.810418 14.005168-9.912978 33.831123-14.887105 59.336756-14.887105 37.67637 0 63.182003 5.856065 76.728563 17.603473 13.54656 11.500465 20.31984 31.150033 20.31984 58.454818v14.216832c-25.928963 11.041858-71.966101 22.5776-138.746409 35.206946-49.423778 9.489648-87.311813 20.531505-113.487718 33.16085-26.175905 12.629345-46.70741 30.90309-61.135908 54.821235-14.67544 23.918145-21.907328 51.22293-21.907328 81.667413 0 45.790195 16.015985 83.925173 48.083233 114.157991 32.03197 30.232818 75.811348 45.366865 131.302856 45.366865 31.573363 0 61.135908-5.856065 88.899301-17.815137 27.763393-11.747408 53.939298-29.562545 78.280773-53.233748 0.917215 2.716368 2.469425 8.360768 4.974127 16.686258 5.432735 18.732353 9.912978 32.702243 13.758225 42.19189h141.251112c-12.664623-25.717298-21.237055-49.847108-25.752576-72.424708z m-145.272746-158.184311c0 34.28973-1.799153 57.537603-5.6444 69.743618-5.397458 18.48541-16.9332 34.28973-34.078065 47.166018-23.247873 16.9332-47.83629 25.25869-73.553588 25.25869-23.00093 0-41.980225-7.231888-56.86733-21.87205-14.887105-14.428498-22.330658-31.820305-22.330658-51.681538 0-20.531505 9.242705-37.217763 27.975058-50.305716 12.170738-8.113825 37.923313-16.474593 77.6105-25.047025 39.722465-8.360768 68.579461-15.80432 86.853206-21.660385v28.398388zM246.801392 530.926379H182.067179L63.993385 886.523581h64.910601l24.97647-80.71492h121.178214l26.458125 80.71492h66.533365L246.801392 530.926379z m-74.047473 214.945809l40.9219-131.902574L255.409102 745.872188H172.753919z" p-id="19826"></path></svg>