<?xml version="1.0" standalone="no"?><!DOCTYPE svg PUBLIC "-//W3C//DTD SVG 1.1//EN" "http://www.w3.org/Graphics/SVG/1.1/DTD/svg11.dtd"><svg t="1591969406248" class="icon" viewBox="0 0 1024 1024" version="1.1" xmlns="http://www.w3.org/2000/svg" p-id="20713" xmlns:xlink="http://www.w3.org/1999/xlink" width="200" height="200"><defs><style type="text/css"></style></defs><path d="M810.666667 768H256a170.666667 170.666667 0 0 1-170.666667-170.666667 170.666667 170.666667 0 0 1 170.666667-170.666666h30.293333C314.453333 328.106667 405.333333 256 512 256a234.666667 234.666667 0 0 1 234.666667 234.666667v21.333333H810.666667a128 128 0 0 1 128 128 128 128 0 0 1-128 128m14.933333-340.053333A319.573333 319.573333 0 0 0 512 170.666667C388.693333 170.666667 281.6 240.64 228.266667 342.613333A256.170667 256.170667 0 0 0 0 597.333333a256 256 0 0 0 256 256h554.666667a213.333333 213.333333 0 0 0 213.333333-213.333333c0-112.64-87.466667-203.946667-198.4-212.053333z" fill="" p-id="20714"></path></svg>