<?xml version="1.0" standalone="no"?><!DOCTYPE svg PUBLIC "-//W3C//DTD SVG 1.1//EN" "http://www.w3.org/Graphics/SVG/1.1/DTD/svg11.dtd"><svg t="1594808021330" class="icon" viewBox="0 0 1024 1024" version="1.1" xmlns="http://www.w3.org/2000/svg" p-id="18418" xmlns:xlink="http://www.w3.org/1999/xlink" width="200" height="200"><defs><style type="text/css"></style></defs><path d="M 851.412 806.16 l -90.696 90.32 l -67.696 -67.696 l 90.508 -90.508 c 87.48 -87.48 87.48 -229.308 0 -316.784 c -87.48 -87.48 -229.304 -87.48 -316.784 0 l -90.528 90.528 l -67.88 -67.88 l 90.528 -90.532 c 124.968 -124.968 327.58 -124.968 452.548 0 c 124.968 124.968 124.968 327.58 0 452.548 Z" p-id="18419"></path><path d="M 172.588 217.84 l 90.696 -90.32 l 67.696 67.696 l -90.508 90.508 c -87.48 87.48 -87.48 229.308 0 316.784 c 87.48 87.48 229.304 87.48 316.784 0 l 90.528 -90.528 l 67.88 67.88 l -90.528 90.532 c -124.968 124.968 -327.58 124.968 -452.548 0 c -124.968 -124.968 -124.968 -327.58 0 -452.548 Z" p-id="18420"></path></svg>