<?xml version="1.0" standalone="no"?><!DOCTYPE svg PUBLIC "-//W3C//DTD SVG 1.1//EN" "http://www.w3.org/Graphics/SVG/1.1/DTD/svg11.dtd"><svg t="1594641144644" class="icon" viewBox="0 0 1024 1024" version="1.1" xmlns="http://www.w3.org/2000/svg" p-id="2924" xmlns:xlink="http://www.w3.org/1999/xlink" width="200" height="200"><defs><style type="text/css"></style></defs><path d="M866.461538 39.384615H354.461538c-43.323077 0-78.769231 35.446154-78.76923 78.769231v39.384616h472.615384c43.323077 0 78.769231 35.446154 78.769231 78.76923v551.384616h39.384615c43.323077 0 78.769231-35.446154 78.769231-78.769231V118.153846c0-43.323077-35.446154-78.769231-78.769231-78.769231z m-118.153846 275.692308c0-43.323077-35.446154-78.769231-78.76923-78.769231H157.538462c-43.323077 0-78.769231 35.446154-78.769231 78.769231v590.769231c0 43.323077 35.446154 78.769231 78.769231 78.769231h512c43.323077 0 78.769231-35.446154 78.76923-78.769231V315.076923z m-354.461538 137.846154c0 11.815385-7.876923 19.692308-19.692308 19.692308h-157.538461c-11.815385 0-19.692308-7.876923-19.692308-19.692308v-39.384615c0-11.815385 7.876923-19.692308 19.692308-19.692308h157.538461c11.815385 0 19.692308 7.876923 19.692308 19.692308v39.384615z m157.538461 315.076923c0 11.815385-7.876923 19.692308-19.692307 19.692308H216.615385c-11.815385 0-19.692308-7.876923-19.692308-19.692308v-39.384615c0-11.815385 7.876923-19.692308 19.692308-19.692308h315.076923c11.815385 0 19.692308 7.876923 19.692307 19.692308v39.384615z m78.769231-157.538462c0 11.815385-7.876923 19.692308-19.692308 19.692308H216.615385c-11.815385 0-19.692308-7.876923-19.692308-19.692308v-39.384615c0-11.815385 7.876923-19.692308 19.692308-19.692308h393.846153c11.815385 0 19.692308 7.876923 19.692308 19.692308v39.384615z" p-id="2925"></path></svg>