<?xml version="1.0" standalone="no"?><!DOCTYPE svg PUBLIC "-//W3C//DTD SVG 1.1//EN" "http://www.w3.org/Graphics/SVG/1.1/DTD/svg11.dtd"><svg t="1594749892339" class="icon" viewBox="0 0 1024 1024" version="1.1" xmlns="http://www.w3.org/2000/svg" p-id="7733" xmlns:xlink="http://www.w3.org/1999/xlink" width="200" height="200"><defs><style type="text/css"></style></defs><path d="M367.589744 0H78.769231a78.769231 78.769231 0 0 0-78.769231 78.769231v288.820513a78.769231 78.769231 0 0 0 78.769231 78.76923h288.820513a78.769231 78.769231 0 0 0 78.76923-78.76923V78.769231a78.769231 78.769231 0 0 0-78.76923-78.769231z m0 367.589744H78.769231V78.769231h288.820513v288.820513zM945.230769 0H656.410256a78.769231 78.769231 0 0 0-78.76923 78.769231v288.820513a78.769231 78.769231 0 0 0 78.76923 78.76923h288.820513a78.769231 78.769231 0 0 0 78.769231-78.76923V78.769231a78.769231 78.769231 0 0 0-78.769231-78.769231z m0 367.589744H656.410256V78.769231h288.820513v288.820513z m-577.641025 210.051282H78.769231a78.769231 78.769231 0 0 0-78.769231 78.76923v288.820513a78.769231 78.769231 0 0 0 78.769231 78.769231h288.820513a78.769231 78.769231 0 0 0 78.76923-78.769231V656.410256a78.769231 78.769231 0 0 0-78.76923-78.76923z m0 367.589743H78.769231V656.410256h288.820513v288.820513z m577.641025-367.589743H656.410256a78.769231 78.769231 0 0 0-78.76923 78.76923v288.820513a78.769231 78.769231 0 0 0 78.76923 78.769231h288.820513a78.769231 78.769231 0 0 0 78.769231-78.769231V656.410256a78.769231 78.769231 0 0 0-78.769231-78.76923z m0 367.589743H656.410256V656.410256h288.820513v288.820513z" p-id="7734"></path></svg>