<?xml version="1.0" standalone="no"?><!DOCTYPE svg PUBLIC "-//W3C//DTD SVG 1.1//EN" "http://www.w3.org/Graphics/SVG/1.1/DTD/svg11.dtd"><svg t="1592148793078" class="icon" viewBox="0 0 1024 1024" version="1.1" xmlns="http://www.w3.org/2000/svg" p-id="10701" xmlns:xlink="http://www.w3.org/1999/xlink" width="200" height="200"><defs><style type="text/css"></style></defs><path d="M997 237.2c-16.5-17.2-39.4-27-63.2-27.1H700C681.9 131.4 612.2 74 533.4 74H88.9c-48.4 0-87.8 40.2-87.8 88.6v698c0 48.4 40.2 88.6 87.8 88.6h844.9c48.4 0 87.8-40.2 87.8-88.6V299.5c0.7-22.9-8.3-45.1-24.6-62.3zM70.8 165c0-9.8 9-18 18.1-18h443.8c41.9 0 79.6 26.3 93.5 64.8H70.8V165z m882.6 146.9v531.5h-1.7v4.9c0 16.4-14 31.2-29.5 31.2H101.9c-16.4 0-29.5-13.9-29.5-31.2V281.5h852.4c15.5 0 28.6 13.9 28.6 30.4z" p-id="10702"></path></svg>