<?xml version="1.0" standalone="no"?><!DOCTYPE svg PUBLIC "-//W3C//DTD SVG 1.1//EN" "http://www.w3.org/Graphics/SVG/1.1/DTD/svg11.dtd"><svg t="1594649931031" class="icon" viewBox="0 0 1191 1024" version="1.1" xmlns="http://www.w3.org/2000/svg" p-id="2733" xmlns:xlink="http://www.w3.org/1999/xlink" width="232.6171875" height="200"><defs><style type="text/css"></style></defs><path d="M1190.623541 610.535849v-1.159245L1088.609956 88.682264a109.162264 109.162264 0 0 0-34.584151-60.280755l-2.125283-1.932075A109.355472 109.355472 0 0 0 980.993352 0H210.288447a109.355472 109.355472 0 0 0-70.713962 26.083019l-3.284529 3.091321a109.162264 109.162264 0 0 0-33.618113 59.507924L0.078635 608.990189v1.159245a28.787925 28.787925 0 0 0 0 4.250566v341.977358A67.815849 67.815849 0 0 0 67.894485 1024h1055.49283a67.815849 67.815849 0 0 0 67.815849-67.622642V614.786415a28.787925 28.787925 0 0 0-0.579623-4.250566z m-63.75849-24.730566h-55.257359L974.037881 197.071698l57.962264-93.319245z m-381.971321 28.981132v4.443774a149.349434 149.349434 0 0 1-298.698868 0v-4.443774a28.981132 28.981132 0 0 0-28.981132-28.981132H182.659768l77.283018-372.890566h656.905661l93.70566 372.890566H774.068069a28.981132 28.981132 0 0 0-28.981132 28.981132zM980.993352 57.962264a51.2 51.2 0 0 1 11.012831 1.352453l-59.89434 96.603774H259.169956l-59.894339-96.603774a51.2 51.2 0 0 1 11.01283-1.352453zM158.702032 103.94566l49.074717 78.249057-84.431698 403.610566H64.223541zM1133.047692 956.377358a9.853585 9.853585 0 0 1-9.853585 9.660378H67.894485a9.853585 9.853585 0 0 1-9.853585-9.660378V643.767547h331.737358a207.311698 207.311698 0 0 0 411.725283 0h331.544151z" p-id="2734"></path></svg>