<?xml version="1.0" standalone="no"?><!DOCTYPE svg PUBLIC "-//W3C//DTD SVG 1.1//EN" "http://www.w3.org/Graphics/SVG/1.1/DTD/svg11.dtd"><svg t="1592143278020" class="icon" viewBox="0 0 1024 1024" version="1.1" xmlns="http://www.w3.org/2000/svg" p-id="3501" xmlns:xlink="http://www.w3.org/1999/xlink" width="200" height="200"><defs><style type="text/css"></style></defs><path d="M921.6 819.2H102.4C44.373 819.2 0 774.827 0 716.8V170.667c0-58.027 44.373-102.4 102.4-102.4H256c44.373 0 81.92 27.306 95.573 71.68l3.414 20.48c10.24 27.306 34.133 44.373 64.853 44.373H921.6c58.027 0 102.4 44.373 102.4 102.4v409.6c0 58.027-44.373 102.4-102.4 102.4zM102.4 102.4c-37.547 0-68.267 30.72-68.267 68.267V716.8c0 37.547 30.72 68.267 68.267 68.267h819.2c37.547 0 68.267-30.72 68.267-68.267V307.2c0-37.547-30.72-68.267-68.267-68.267H423.253c-44.373 0-81.92-27.306-95.573-71.68l-6.827-20.48C310.613 122.88 286.72 102.4 256 102.4H102.4z" p-id="3502"></path><path d="M972.8 256c-10.24 0-17.067-6.827-17.067-17.067V102.4c0-37.547-30.72-68.267-68.266-68.267H136.533c-20.48 0-68.266 3.414-68.266 51.2V102.4c0 10.24-6.827 17.067-17.067 17.067S34.133 112.64 34.133 102.4V85.333c0-51.2 40.96-85.333 102.4-85.333h750.934c58.026 0 102.4 44.373 102.4 102.4v136.533c0 10.24-6.827 17.067-17.067 17.067z m-409.6 768H426.667c-10.24 0-17.067-6.827-17.067-17.067v-102.4c0-10.24 6.827-17.066 17.067-17.066h17.066V870.4c0-10.24 6.827-17.067 17.067-17.067h68.267c10.24 0 17.066 6.827 17.066 17.067v17.067H563.2c10.24 0 17.067 6.826 17.067 17.066v102.4c0 10.24-6.827 17.067-17.067 17.067z m-119.467-34.133h102.4V921.6h-17.066c-10.24 0-17.067-6.827-17.067-17.067v-17.066h-34.133v17.066c0 10.24-6.827 17.067-17.067 17.067h-17.067v68.267z" p-id="3503"></path><path d="M494.933 887.467c-10.24 0-17.066-6.827-17.066-17.067v-68.267c0-10.24 6.826-17.066 17.066-17.066S512 791.893 512 802.133V870.4c0 10.24-6.827 17.067-17.067 17.067z m512 102.4H563.2c-10.24 0-17.067-6.827-17.067-17.067s6.827-17.067 17.067-17.067h443.733c10.24 0 17.067 6.827 17.067 17.067s-6.827 17.067-17.067 17.067z" p-id="3504"></path><path d="M426.667 989.867h-409.6C6.827 989.867 0 983.04 0 972.8s6.827-17.067 17.067-17.067h409.6c10.24 0 17.066 6.827 17.066 17.067s-6.826 17.067-17.066 17.067z" p-id="3505"></path><path d="M259.114 628V394.987h142.138v28.628H290.738v68.24h85.216v28.626h-85.216V628h-31.624z m240.364 0V423.615H431.57v-28.628h167.436v28.628h-67.906V628h-31.623z m151.152 0V394.987h76.894q37.282 0 58.087 18.142 20.805 18.142 20.805 57.421 0 38.614-20.971 57.255-20.971 18.64-57.92 18.64h-43.607V628H650.63z m33.288-109.849h38.946q25.632 0 38.28-11.65 12.65-11.651 12.65-35.618 0-24.3-12.15-35.95-12.15-11.651-38.78-11.651h-38.946v94.87z" p-id="3506"></path></svg>