<?xml version="1.0" standalone="no"?><!DOCTYPE svg PUBLIC "-//W3C//DTD SVG 1.1//EN" "http://www.w3.org/Graphics/SVG/1.1/DTD/svg11.dtd"><svg t="1592073615771" class="icon" viewBox="0 0 1024 1024" version="1.1" xmlns="http://www.w3.org/2000/svg" p-id="3585" xmlns:xlink="http://www.w3.org/1999/xlink" width="200" height="200"><defs><style type="text/css"></style></defs><path d="M896 256h-288a32 32 0 1 1 0-64h288a32 32 0 1 1 0 64z m0 160h-288a32 32 0 1 1 0-64h288a32 32 0 1 1 0 64z m0 256h-288a32 32 0 1 1 0-64h288a32 32 0 1 1 0 64z m0 160h-288a32 32 0 1 1 0-64h288a32 32 0 1 1 0 64zM384 480H192c-52.928 0-96-43.072-96-96V192c0-52.928 43.072-96 96-96h192c52.928 0 96 43.072 96 96v192c0 52.928-43.072 96-96 96zM192 160c-17.632 0-32 14.368-32 32v192c0 17.632 14.368 32 32 32h192c17.632 0 32-14.368 32-32V192c0-17.632-14.368-32-32-32H192z m192 768H192c-52.928 0-96-43.072-96-96v-192c0-52.928 43.072-96 96-96h192c52.928 0 96 43.072 96 96v192c0 52.928-43.072 96-96 96zM192 608c-17.632 0-32 14.336-32 32v192c0 17.664 14.368 32 32 32h192c17.632 0 32-14.336 32-32v-192c0-17.664-14.368-32-32-32H192z" p-id="3586"></path></svg>