<?xml version="1.0" standalone="no"?><!DOCTYPE svg PUBLIC "-//W3C//DTD SVG 1.1//EN" "http://www.w3.org/Graphics/SVG/1.1/DTD/svg11.dtd"><svg t="1594639585564" class="icon" viewBox="0 0 1024 1024" version="1.1" xmlns="http://www.w3.org/2000/svg" p-id="1242" xmlns:xlink="http://www.w3.org/1999/xlink" width="200" height="200"><defs><style type="text/css"></style></defs><path d="M989.952 989.952c-37.12 37.12-97.216 37.12-134.336 0l-167.68-167.68c-68.992 44.16-150.464 70.528-238.4 70.528-244.864 0-443.328-198.464-443.328-443.264S204.672 6.208 449.536 6.208c244.8 0 443.264 198.464 443.264 443.328 0 87.936-26.368 169.472-70.528 238.4l167.616 167.616c37.12 37.184 37.12 97.28 0.064 134.4zM447.68 127.872c-176.576 0-319.808 143.232-319.808 319.808 0 176.64 143.168 319.744 319.808 319.744S767.424 624.256 767.424 447.68c0.064-176.576-143.104-319.808-319.744-319.808z" p-id="1243"></path></svg>