<?xml version="1.0" standalone="no"?><!DOCTYPE svg PUBLIC "-//W3C//DTD SVG 1.1//EN" "http://www.w3.org/Graphics/SVG/1.1/DTD/svg11.dtd"><svg t="1594676999021" class="icon" viewBox="0 0 1024 1024" version="1.1" xmlns="http://www.w3.org/2000/svg" p-id="3476" xmlns:xlink="http://www.w3.org/1999/xlink" width="200" height="200"><defs><style type="text/css"></style></defs><path d="M594.272 717.728l0 137.152q0 9.152-6.848 16t-16 6.848l-137.152 0q-9.152 0-16-6.848t-6.848-16l0-137.152q0-9.152 6.848-16t16-6.848l137.152 0q9.152 0 16 6.848t6.848 16zM774.848 374.848q0 30.848-8.864 57.728t-20 43.712-31.424 34.016-32.864 24.864-34.848 20.288q-23.424 13.152-39.136 37.152t-15.712 38.272q0 9.728-6.848 18.56t-16 8.864l-137.152 0q-8.576 0-14.56-10.56t-6.016-21.44l0-25.728q0-47.424 37.152-89.44t81.728-62.016q33.728-15.424 48-32t14.272-43.424q0-24-26.56-42.272t-61.44-18.272q-37.152 0-61.728 16.576-20 14.272-61.152 65.728-7.424 9.152-17.728 9.152-6.848 0-14.272-4.576l-93.728-71.424q-7.424-5.728-8.864-14.272t3.136-16q91.424-152 265.152-152 45.728 0 92 17.728t83.424 47.424 60.576 72.864 23.424 90.56z" p-id="3477"></path></svg>