<?xml version="1.0" standalone="no"?><!DOCTYPE svg PUBLIC "-//W3C//DTD SVG 1.1//EN" "http://www.w3.org/Graphics/SVG/1.1/DTD/svg11.dtd"><svg t="1594528122147" class="icon" viewBox="0 0 1024 1024" version="1.1" xmlns="http://www.w3.org/2000/svg" p-id="4049" xmlns:xlink="http://www.w3.org/1999/xlink" width="200" height="200"><defs><style type="text/css"></style></defs><path d="M936.3 117c-0.6-24-18.8-39.1-45-38.5-26.1 0.5-39.6 16.5-43.9 40.5-2.2 12.4-1.5 25.4-1.6 38.2-0.2 21.8-0.1 43.5-0.1 65.3-3.4 1.5-6.8 3.1-10.2 4.6-11.4-11-22.6-22.2-34.3-32.9C696.4 97.4 571.9 61.3 432.6 82.8 235.8 113 90 277.1 72.9 482c-16 192.2 107.7 377.8 293.5 440.3 187.9 63.2 397-10.3 502.7-177 6.8-10.7 13.9-21.8 18-33.6 8.1-23 4-44.5-18.7-56.8-21.9-11.9-42.6-7.1-58.2 13-7.8 10.1-13.7 21.6-20.9 32-65.5 94.8-155.5 146.5-270.7 152.1C364.4 859.5 223 759.3 178 611.6 131.6 459 195.8 294.7 333.1 214.5c133.5-77.9 304.9-55.6 413 54.3 7.9 8 13.2 18.6 26.1 37.1-42.2 0-74.7-1.7-106.9 0.5-29.7 2.1-45.5 19.8-45.2 44.7 0.2 24.2 17.1 44.3 45.7 45 74.7 1.8 149.5 1.2 224.2 0.4 24.6-0.3 45-14.4 45.8-38.7 2.3-80.3 2.5-160.6 0.5-240.8z" p-id="4050"></path></svg>