<?xml version="1.0" standalone="no"?><!DOCTYPE svg PUBLIC "-//W3C//DTD SVG 1.1//EN" "http://www.w3.org/Graphics/SVG/1.1/DTD/svg11.dtd"><svg t="1592067373047" class="icon" viewBox="0 0 1024 1024" version="1.1" xmlns="http://www.w3.org/2000/svg" p-id="2708" xmlns:xlink="http://www.w3.org/1999/xlink" width="200" height="200"><defs><style type="text/css"></style></defs><path d="M846.1 541.1v-28.7-28.8l76.4-104.2c7.5-10.2 8.3-23.9 1.9-34.9-14.4-25-22.3-38.8-30.3-52.6-8-13.8-15.9-27.7-30.3-52.7-6.3-11-18.6-17.2-31.2-15.8l-128.5 13.9c-18.2-10.5-32.8-19-49.8-28.8l-52-118.2c-5.1-11.6-16.6-19.1-29.3-19.1-57.7 0-63.8 0-121.4-0.1h-0.1c-12.7 0-24.1 7.5-29.3 19.1l-52.3 118.1c-8.8 5.1-16.9 9.7-25 14.4-8 4.6-16.1 9.3-24.9 14.3l-128.4-14.1c-12.6-1.4-24.8 4.8-31.2 15.7-19.4 33.4-27.1 46.8-38.8 67-5.8 10-12.5 21.6-22.1 38.1-6.4 11-5.6 24.7 1.9 34.9L177.6 483v57.5l-76.4 104.2c-7.5 10.2-8.3 23.9-1.9 34.9 14.4 25 22.3 38.8 30.3 52.6 8 13.8 15.9 27.7 30.3 52.7 6.3 11 18.6 17.2 31.2 15.8l128.5-13.9c18.4 10.6 32.9 19 49.8 28.8l52 118.2c5.1 11.6 16.6 19.1 29.3 19.1 57.7 0 63.8 0 121.4 0.1h0.1c12.7 0 24.1-7.5 29.3-19.1l52.3-118.1c8.9-5.1 16.9-9.7 25-14.4 8-4.6 16-9.2 24.8-14.3L832 801.2c12.6 1.4 24.8-4.8 31.2-15.7 19.4-33.3 27.1-46.7 38.8-66.9 5.8-10 12.5-21.7 22.1-38.2 6.4-11 5.6-24.7-1.9-34.9l-76.1-104.4z m0.6 145.4c-9.3 16.1-16.1 27.8-28.3 48.8l-118.1-12.9c-6.7-0.7-13.5 0.7-19.4 4.1-12.5 7.2-23.2 13.4-34 19.5-10.7 6.2-21.5 12.4-34 19.6-5.9 3.4-10.6 8.6-13.3 14.8L551.5 889c-33.3-0.1-46.5-0.1-79.8-0.1l-47.8-108.7c-2.7-6.2-7.4-11.4-13.2-14.8-23.8-13.8-41.6-24.1-67.9-39.3-5.9-3.4-12.7-4.8-19.4-4.1l-118.1 12.8c-8.3-14.4-14.1-24.5-19.9-34.5-5.8-10.1-11.6-20.2-19.9-34.6l70.3-95.8c4-5.5 6.2-12.1 6.2-18.9v-39.1c0-12.4 0.1-24.8 0.1-39.3 0-6.8-2.2-13.4-6.2-18.9l-70.1-95.9c4.5-7.7 8.2-14.2 11.6-20.1 9.3-16.1 16.1-27.9 28.3-48.9l118.1 12.9c6.7 0.7 13.5-0.7 19.4-4.1 12.5-7.2 23.3-13.4 34-19.5 10.7-6.2 21.5-12.3 34-19.6 5.9-3.4 10.6-8.6 13.3-14.8l48-108.7c33.3 0.1 46.5 0.1 79.8 0.1l47.8 108.7c2.7 6.2 7.4 11.4 13.2 14.8 24 13.9 41.8 24.2 67.9 39.3 5.9 3.4 12.7 4.8 19.4 4.1l118.1-12.8c8.3 14.4 14.1 24.5 19.9 34.5 5.8 10.1 11.6 20.2 19.9 34.6l-70.3 95.8c-4 5.5-6.2 12.1-6.2 18.9v39.1c0 12.4-0.1 24.8-0.1 39.3 0 6.8 2.2 13.4 6.2 18.9l70.1 95.9c-4.3 7.9-8.1 14.4-11.5 20.3z" p-id="2709"></path><path d="M512 322.6c-104.4 0-189.4 85-189.4 189.4s85 189.4 189.4 189.4 189.4-85 189.4-189.4-85-189.4-189.4-189.4z m0 314.8c-69.1 0-125.4-56.3-125.4-125.4 0-69.1 56.3-125.4 125.4-125.4 69.1 0 125.4 56.3 125.4 125.4 0 69.1-56.3 125.4-125.4 125.4z" p-id="2710"></path></svg>