<?xml version="1.0" standalone="no"?><!DOCTYPE svg PUBLIC "-//W3C//DTD SVG 1.1//EN" "http://www.w3.org/Graphics/SVG/1.1/DTD/svg11.dtd"><svg t="1592143324220" class="icon" viewBox="0 0 1024 1024" version="1.1" xmlns="http://www.w3.org/2000/svg" p-id="4240" xmlns:xlink="http://www.w3.org/1999/xlink" width="200" height="200"><defs><style type="text/css"></style></defs><path d="M921.6 819.2H102.4C44.373 819.2 0 774.827 0 716.8V170.667c0-58.027 44.373-102.4 102.4-102.4H256c44.373 0 81.92 27.306 95.573 71.68l3.414 20.48c10.24 27.306 34.133 44.373 64.853 44.373H921.6c58.027 0 102.4 44.373 102.4 102.4v409.6c0 58.027-44.373 102.4-102.4 102.4zM102.4 102.4c-37.547 0-68.267 30.72-68.267 68.267V716.8c0 37.547 30.72 68.267 68.267 68.267h819.2c37.547 0 68.267-30.72 68.267-68.267V307.2c0-37.547-30.72-68.267-68.267-68.267H423.253c-44.373 0-81.92-27.306-95.573-71.68l-6.827-20.48C310.613 122.88 286.72 102.4 256 102.4H102.4z" p-id="4241"></path><path d="M972.8 256c-10.24 0-17.067-6.827-17.067-17.067V102.4c0-37.547-30.72-68.267-68.266-68.267H136.533c-20.48 0-68.266 3.414-68.266 51.2V102.4c0 10.24-6.827 17.067-17.067 17.067S34.133 112.64 34.133 102.4V85.333c0-51.2 40.96-85.333 102.4-85.333h750.934c58.026 0 102.4 44.373 102.4 102.4v136.533c0 10.24-6.827 17.067-17.067 17.067z m-409.6 768H426.667c-10.24 0-17.067-6.827-17.067-17.067v-102.4c0-10.24 6.827-17.066 17.067-17.066h17.066V870.4c0-10.24 6.827-17.067 17.067-17.067h68.267c10.24 0 17.066 6.827 17.066 17.067v17.067H563.2c10.24 0 17.067 6.826 17.067 17.066v102.4c0 10.24-6.827 17.067-17.067 17.067z m-119.467-34.133h102.4V921.6h-17.066c-10.24 0-17.067-6.827-17.067-17.067v-17.066h-34.133v17.066c0 10.24-6.827 17.067-17.067 17.067h-17.067v68.267z" p-id="4242"></path><path d="M494.933 887.467c-10.24 0-17.066-6.827-17.066-17.067v-68.267c0-10.24 6.826-17.066 17.066-17.066S512 791.893 512 802.133V870.4c0 10.24-6.827 17.067-17.067 17.067z m512 102.4H563.2c-10.24 0-17.067-6.827-17.067-17.067s6.827-17.067 17.067-17.067h443.733c10.24 0 17.067 6.827 17.067 17.067s-6.827 17.067-17.067 17.067z" p-id="4243"></path><path d="M426.667 989.867h-409.6C6.827 989.867 0 983.04 0 972.8s6.827-17.067 17.067-17.067h409.6c10.24 0 17.066 6.827 17.066 17.067s-6.826 17.067-17.066 17.067z" p-id="4244"></path><path d="M309.346 576.822q-16.926 0-34.398-3.685-17.472-3.686-28.119-8.6l3.55-27.573q13.65 6.552 30.848 11.466 17.2 4.914 34.125 4.914 19.11 0 29.62-6.962 10.511-6.961 10.511-20.884 0-10.374-5.323-17.335-5.324-6.962-15.561-11.74-10.238-4.777-28.529-10.237-18.564-5.46-30.849-11.739-12.285-6.279-19.792-17.199-7.508-10.92-7.508-27.573 0-23.205 17.882-37.401 17.881-14.196 50.368-14.196 17.472 0 33.17 3.822 15.697 3.822 27.436 9.282l-2.73 27.573q-15.288-9.009-29.484-13.104-14.196-4.095-29.484-4.095-17.745 0-28.255 6.552-10.51 6.552-10.51 20.202 0 9.282 4.777 15.288t13.786 10.237q9.01 4.232 25.116 9.146 32.214 9.828 48.048 23.341 15.834 13.514 15.834 37.265 0 25.116-18.837 39.175-18.837 14.06-55.692 14.06zM620.91 573h-27.3l-18.018-144.417-51.87 99.099-52.962-99.372L452.742 573h-27.3l25.662-191.1h22.113l50.232 94.731 49.686-94.731h22.386l25.39 191.1z m150.767-104.013q18.018 4.368 27.573 16.79 9.555 12.421 9.555 32.623 0 25.389-16.243 39.994Q776.318 573 747.926 573h-72.072V381.9h60.333q26.208 0 40.54 11.739 14.333 11.739 14.333 34.944 0 13.65-4.914 24.297t-14.469 16.107z m-69.888-63.882v56.238h31.122q15.288 0 23.342-6.143 8.053-6.142 8.053-21.976t-8.053-21.977q-8.054-6.142-23.342-6.142H701.79z m43.953 144.417q16.107 0 25.39-8.054 9.281-8.053 9.281-23.887 0-32.76-34.67-32.76h-43.954v64.701h43.953z" p-id="4245"></path></svg>