<?xml version="1.0" standalone="no"?><!DOCTYPE svg PUBLIC "-//W3C//DTD SVG 1.1//EN" "http://www.w3.org/Graphics/SVG/1.1/DTD/svg11.dtd"><svg t="1594656351677" class="icon" viewBox="0 0 1024 1024" version="1.1" xmlns="http://www.w3.org/2000/svg" p-id="6714" xmlns:xlink="http://www.w3.org/1999/xlink" width="200" height="200"><defs><style type="text/css"></style></defs><path d="M960.253652 703.916984c8.637728 8.636704 8.637728 22.64065 0.001023 31.277354l-281.871739 281.871739c-8.636704 8.636704-22.64065 8.636704-31.278377-0.001023l0 0c-8.636704-8.635681-8.636704-22.64065 0-31.276331l281.871739-281.871739C937.614026 695.279257 951.616948 695.279257 960.253652 703.916984L960.253652 703.916984z" p-id="6715"></path><path d="M960.254675 1017.065054c-8.636704 8.637728-22.64065 8.637728-31.277354 0.002047l-281.871739-281.871739c-8.636704-8.636704-8.636704-22.641673 0.001023-31.278377l0 0c8.635681-8.636704 22.64065-8.636704 31.276331 0l281.871739 281.871739C968.892403 994.425428 968.892403 1008.429373 960.254675 1017.065054L960.254675 1017.065054z" p-id="6716"></path><path d="M732.397131 248.980631c0 12.216229-9.901511 22.11774-22.115694 22.11774l-398.626883 0c-12.215206 0-22.116717-9.902534-22.116717-22.11774l0 0c0-12.214183 9.902534-22.115694 22.116717-22.115694l398.626883 0C722.49562 226.863914 732.397131 236.766448 732.397131 248.980631L732.397131 248.980631z" p-id="6717"></path><path d="M732.397131 492.752634c0 12.216229-9.901511 22.11774-22.115694 22.11774l-398.626883 0c-12.215206 0-22.116717-9.902534-22.116717-22.11774l0 0c0-12.214183 9.902534-22.115694 22.116717-22.115694l398.626883 0C722.49562 470.63694 732.397131 480.539474 732.397131 492.752634L732.397131 492.752634z" p-id="6718"></path><path d="M522.024819 721.127971c0 12.216229-9.901511 22.11774-22.115694 22.11774l-188.254571 0c-12.215206 0-22.116717-9.902534-22.116717-22.11774l0 0c0-12.214183 9.902534-22.115694 22.116717-22.115694l188.254571 0C512.124332 699.012278 522.024819 708.914812 522.024819 721.127971L522.024819 721.127971z" p-id="6719"></path><path d="M836.267826 0.455371l-648.536676 0c-71.938426 0-130.464377 58.525951-130.464377 130.464377l0 762.109338c0 71.938426 58.525951 130.464377 130.464377 130.464377l355.275539 0c0.473791 0.029676 0.949628 0.050142 1.430582 0.050142 12.446473 0 22.537296-10.090822 22.537296-22.537296 0-12.008498-9.392928-21.819958-21.230534-22.496363-0.00614-0.014326-0.01228-0.027629-0.017396-0.040932l-357.995487 0c-47.110971 0-85.438904-38.327934-85.438904-85.438904l0-762.109338c0-47.110971 38.327934-85.438904 85.438904-85.438904l648.536676 0c47.110971 0 85.438904 38.327934 85.438904 85.438904l0 467.611024c-0.029676 0.471744-0.049119 0.946558-0.049119 1.425466 0 12.446473 10.089799 22.537296 22.537296 22.537296 12.446473 0 22.537296-10.090822 22.537296-22.537296l0-469.036489C966.732204 58.982346 908.206252 0.455371 836.267826 0.455371z" p-id="6720"></path></svg>