<?xml version="1.0" standalone="no"?><!DOCTYPE svg PUBLIC "-//W3C//DTD SVG 1.1//EN" "http://www.w3.org/Graphics/SVG/1.1/DTD/svg11.dtd"><svg t="1594640983874" class="icon" viewBox="0 0 1640 1024" version="1.1" xmlns="http://www.w3.org/2000/svg" p-id="2191" xmlns:xlink="http://www.w3.org/1999/xlink" width="320.3125" height="200"><defs><style type="text/css"></style></defs><path d="M1612.6464 545.9456c-16.0768 19.5072-376.3712 477.3888-794.9312 477.3888-395.6736 0-775.4752-461.4656-791.4496-481.28l-26.2656-31.4368 26.368-32C42.4448 459.1104 425.1136 0.512 820.48 0.512c396.6976 0.8704 778.24 461.824 794.0608 481.28l25.6 31.9488z m-791.808-442.88c-290.9184 0-593.92 306.688-685.7728 408.0128C226.7648 612.864 527.4112 921.6 817.3056 922.0608c313.9584 0 593.6128-306.7392 685.568-408.064-91.6992-101.7344-392.1408-410.3168-682.0352-410.9312z m22.6304 713.6768a291.84 291.84 0 0 1-207.3088-90.4192 299.1104 299.1104 0 0 1 209.92-509.184 296.96 296.96 0 0 1 294.1952 298.9056 307.7632 307.7632 0 0 1-296.8064 300.6976z m2.8672-498.3296a194.304 194.304 0 0 0-137.5232 331.2128 187.904 187.904 0 0 0 134.3488 56.9344 198.2464 198.2464 0 0 0 194.56-193.6896 192.6144 192.6144 0 0 0-191.3856-194.4576z" p-id="2192"></path></svg>